<svg width="353" height="253" viewBox="0 0 353 253" fill="none" xmlns="http://www.w3.org/2000/svg">
<g filter="url(#filter0_d_265_2535)">
<rect x="8" y="8.98218" width="337" height="236" rx="16" fill="#FFFFFE" shape-rendering="crispEdges"/>
<g filter="url(#filter1_bii_265_2535)">
<path d="M8 16.9822C8 12.5639 11.5817 8.98218 16 8.98218H337C341.418 8.98218 345 12.5639 345 16.9822V236.982C345 241.4 341.418 244.982 337 244.982H16C11.5817 244.982 8 241.4 8 236.982V16.9822Z" fill="white" fill-opacity="0.33"/>
</g>
</g>
<path opacity="0.48" d="M56.1959 8.98218C56.1959 29.7426 32.6531 131.959 83.9764 150.794C159.504 185.394 223.58 97.3097 275.651 126.18C319.462 154.864 310.864 182.691 310.863 245.018" stroke="url(#paint0_linear_265_2535)" stroke-width="40"/>
<path d="M326.955 155.838C321.449 151.458 308.922 149.817 298.975 152.171C289.028 154.524 285.422 159.981 290.928 164.361C296.431 168.739 308.958 170.38 318.906 168.027C328.853 165.674 332.458 160.217 326.955 155.838ZM317.128 166.613C308.968 168.543 298.655 167.193 294.141 163.601C289.624 160.007 292.592 155.515 300.752 153.585C308.913 151.655 319.225 153.005 323.743 156.598C328.257 160.19 325.288 164.682 317.128 166.613Z" fill="#E6E6E1"/>
<path d="M298.974 152.172L300.751 153.586C292.591 155.516 289.623 160.008 294.14 163.602L290.927 164.362C285.422 159.982 289.027 154.525 298.974 152.172Z" fill="#FFFFFE"/>
<path d="M300.752 153.584C308.912 151.654 319.224 153.005 323.742 156.599C328.256 160.19 325.288 164.684 317.128 166.614C308.968 168.544 298.656 167.193 294.141 163.601C289.624 160.007 292.592 155.514 300.752 153.584Z" fill="#999996"/>
<path d="M300.433 154.955C308.593 153.024 318.906 154.374 323.423 157.968C324.88 159.127 325.553 160.38 325.529 161.61C326.273 159.964 325.746 158.193 323.742 156.598C319.226 153.005 308.913 151.655 300.752 153.585C295.226 154.893 292.085 157.375 292.033 159.957C292.965 157.894 295.895 156.028 300.433 154.955Z" fill="#4D4D4B"/>
<path d="M288.35 159.973L288.299 167.99C288.29 169.472 289.119 170.979 290.876 172.377L290.926 164.361C289.169 162.963 288.34 161.455 288.35 159.973Z" fill="#999996"/>
<path d="M329.529 160.223C329.493 165.892 319.17 168.363 313.509 168.897C306.655 169.544 296.276 168.614 290.927 164.358L290.877 172.376C299.136 178.948 321.265 178.586 327.882 171.689C327.885 171.687 327.886 171.684 327.889 171.682C327.896 171.674 327.902 171.666 327.909 171.659C328.801 170.721 329.47 169.552 329.478 168.242L329.529 160.223Z" fill="#4D4D4B"/>
<path d="M329.132 202.745C323.626 198.365 311.099 196.724 301.152 199.078C291.205 201.431 287.6 206.888 293.105 211.268C298.609 215.646 311.136 217.286 321.084 214.933C331.031 212.58 334.636 207.123 329.132 202.745ZM319.306 213.519C311.146 215.45 300.833 214.1 296.318 210.508C291.802 206.914 294.77 202.422 302.93 200.492C311.091 198.561 321.403 199.911 325.92 203.505C330.435 207.096 327.466 211.589 319.306 213.519Z" fill="#E6E6E1"/>
<path d="M301.151 199.079L302.929 200.493C294.769 202.423 291.801 206.915 296.317 210.508L293.105 211.268C287.6 206.888 291.204 201.431 301.151 199.079Z" fill="#FFFFFE"/>
<path d="M302.929 200.491C311.09 198.561 321.402 199.912 325.919 203.505C330.434 207.097 327.466 211.59 319.306 213.52C311.146 215.45 300.834 214.1 296.319 210.507C291.801 206.914 294.77 202.421 302.929 200.491Z" fill="#999996"/>
<path d="M302.61 201.861C310.77 199.931 321.083 201.281 325.601 204.875C327.057 206.034 327.731 207.287 327.706 208.517C328.451 206.871 327.924 205.099 325.92 203.505C321.404 199.912 311.09 198.561 302.93 200.492C297.404 201.799 294.263 204.282 294.211 206.864C295.143 204.801 298.072 202.935 302.61 201.861Z" fill="#4D4D4B"/>
<path d="M290.527 206.88L290.477 214.896C290.468 216.378 291.297 217.886 293.054 219.284L293.104 211.268C291.347 209.87 290.518 208.362 290.527 206.88Z" fill="#999996"/>
<path d="M331.707 207.13C331.671 212.799 321.348 215.27 315.687 215.804C308.833 216.451 298.454 215.52 293.105 211.264L293.054 219.283C301.314 225.855 323.443 225.493 330.06 218.596C330.062 218.594 330.064 218.591 330.066 218.589C330.074 218.581 330.08 218.573 330.087 218.566C330.979 217.628 331.648 216.459 331.656 215.148L331.707 207.13Z" fill="#4D4D4B"/>
<path d="M212.031 128.745C206.525 124.365 193.998 122.724 184.051 125.078C174.104 127.431 170.498 132.888 176.004 137.268C181.508 141.646 194.035 143.286 203.982 140.933C213.929 138.58 217.535 133.123 212.031 128.745ZM202.205 139.519C194.045 141.45 183.732 140.1 179.217 136.508C174.701 132.914 177.669 128.422 185.829 126.492C193.989 124.561 204.302 125.911 208.819 129.505C213.334 133.096 210.365 137.589 202.205 139.519Z" fill="#E6E6E1"/>
<path d="M184.05 125.079L185.828 126.493C177.668 128.423 174.7 132.915 179.216 136.508L176.004 137.268C170.499 132.888 174.103 127.431 184.05 125.079Z" fill="#FFFFFE"/>
<path d="M185.828 126.491C193.989 124.561 204.301 125.912 208.818 129.505C213.333 133.097 210.365 137.59 202.205 139.52C194.045 141.45 183.732 140.1 179.217 136.507C174.7 132.914 177.669 128.421 185.828 126.491Z" fill="#999996"/>
<path d="M185.509 127.861C193.669 125.931 203.982 127.281 208.5 130.875C209.956 132.034 210.63 133.287 210.605 134.517C211.35 132.871 210.823 131.099 208.819 129.505C204.302 125.912 193.989 124.561 185.829 126.492C180.303 127.799 177.162 130.282 177.11 132.864C178.042 130.801 180.971 128.935 185.509 127.861Z" fill="#4D4D4B"/>
<path d="M173.426 132.88L173.376 140.896C173.367 142.378 174.196 143.886 175.952 145.284L176.003 137.268C174.246 135.87 173.417 134.362 173.426 132.88Z" fill="#999996"/>
<path d="M214.605 133.13C214.57 138.799 204.246 141.27 198.585 141.804C191.732 142.451 181.353 141.52 176.004 137.264L175.953 145.283C184.212 151.855 206.342 151.493 212.959 144.596C212.961 144.594 212.963 144.591 212.965 144.589C212.972 144.581 212.979 144.573 212.986 144.566C213.878 143.628 214.547 142.459 214.555 141.148L214.605 133.13Z" fill="#4D4D4B"/>
<path d="M143.306 149.791C137.8 145.412 125.273 143.771 115.326 146.124C105.379 148.477 101.773 153.934 107.279 158.314C112.783 162.693 125.31 164.333 135.257 161.98C145.204 159.627 148.81 154.17 143.306 149.791ZM133.48 160.566C125.32 162.496 115.007 161.146 110.492 157.554C105.976 153.961 108.944 149.469 117.104 147.538C125.264 145.608 135.577 146.958 140.094 150.551C144.608 154.143 141.64 158.635 133.48 160.566Z" fill="#E6E6E1"/>
<path d="M115.325 146.125L117.102 147.539C108.943 149.469 105.975 153.962 110.491 157.555L107.279 158.315C101.774 153.935 105.378 148.478 115.325 146.125Z" fill="#FFFFFE"/>
<path d="M117.103 147.538C125.263 145.607 135.576 146.958 140.093 150.552C144.608 154.144 141.64 158.637 133.48 160.567C125.32 162.497 115.007 161.146 110.492 157.554C105.975 153.96 108.944 149.468 117.103 147.538Z" fill="#999996"/>
<path d="M116.784 148.908C124.944 146.978 135.257 148.328 139.774 151.921C141.231 153.081 141.905 154.333 141.88 155.563C142.625 153.917 142.098 152.146 140.094 150.552C135.577 146.958 125.264 145.608 117.104 147.538C111.577 148.846 108.436 151.328 108.385 153.91C109.317 151.847 112.246 149.982 116.784 148.908Z" fill="#4D4D4B"/>
<path d="M104.701 153.927L104.651 161.943C104.642 163.425 105.47 164.933 107.227 166.331L107.278 158.314C105.52 156.917 104.692 155.409 104.701 153.927Z" fill="#999996"/>
<path d="M145.88 154.177C145.845 159.845 135.521 162.317 129.86 162.851C123.007 163.497 112.628 162.567 107.279 158.311L107.228 166.329C115.487 172.901 137.617 172.54 144.234 165.643C144.236 165.64 144.238 165.637 144.24 165.635C144.247 165.628 144.254 165.62 144.261 165.612C145.152 164.674 145.822 163.505 145.83 162.195L145.88 154.177Z" fill="#4D4D4B"/>
<path d="M84.0312 129.77C78.5254 125.39 65.9982 123.75 56.0513 126.103C46.1043 128.456 42.4985 133.913 48.0042 138.293C53.5078 142.672 66.035 144.312 75.9825 141.959C85.9295 139.606 89.5347 134.149 84.0312 129.77ZM74.2051 140.545C66.0448 142.475 55.7321 141.125 51.2172 137.533C46.7007 133.94 49.6688 129.447 57.8291 127.517C65.9895 125.587 76.3021 126.937 80.8192 130.53C85.3335 134.122 82.3649 138.614 74.2051 140.545Z" fill="#E6E6E1"/>
<path d="M56.0502 126.104L57.8275 127.518C49.6681 129.448 46.6999 133.94 51.2164 137.534L48.0041 138.294C42.499 133.914 46.1033 128.457 56.0502 126.104Z" fill="#FFFFFE"/>
<path d="M57.8283 127.516C65.9885 125.586 76.3011 126.937 80.8182 130.531C85.3332 134.123 82.3648 138.616 74.2052 140.546C66.045 142.476 55.7324 141.125 51.2175 137.533C46.7003 133.939 49.6687 129.446 57.8283 127.516Z" fill="#999996"/>
<path d="M57.5093 128.887C65.6692 126.956 75.9824 128.307 80.4995 131.9C81.9563 133.059 82.6301 134.312 82.6053 135.542C83.3497 133.896 82.8227 132.125 80.8191 130.53C76.3025 126.937 65.9893 125.587 57.8289 127.517C52.3025 128.825 49.1616 131.307 49.11 133.889C50.0421 131.826 52.9714 129.96 57.5093 128.887Z" fill="#4D4D4B"/>
<path d="M45.4263 133.906L45.3758 141.922C45.3666 143.404 46.1956 144.912 47.9525 146.31L48.003 138.293C46.2456 136.895 45.4166 135.387 45.4263 133.906Z" fill="#999996"/>
<path d="M86.6055 134.156C86.57 139.824 76.2465 142.295 70.5855 142.829C63.7317 143.476 53.3526 142.546 48.0036 138.29L47.9532 146.308C56.2125 152.88 78.3416 152.518 84.9588 145.621C84.9612 145.619 84.963 145.616 84.9654 145.614C84.9725 145.606 84.979 145.599 84.9861 145.591C85.8775 144.653 86.5469 143.484 86.5551 142.174L86.6055 134.156Z" fill="#4D4D4B"/>
<path d="M290.889 108.241C282.13 101.945 262.201 99.5862 246.376 102.969C230.551 106.352 224.815 114.196 233.574 120.493C242.33 126.787 262.259 129.145 278.085 125.762C293.909 122.38 299.645 114.535 290.889 108.241ZM275.257 123.73C262.275 126.504 245.868 124.563 238.685 119.4C231.5 114.234 236.222 107.777 249.204 105.002C262.187 102.227 278.593 104.168 285.78 109.334C292.961 114.496 288.239 120.954 275.257 123.73Z" fill="#FAEA87"/>
<path d="M246.375 102.971L249.203 105.004C236.222 107.778 231.5 114.236 238.685 119.401L233.575 120.494C224.817 114.197 230.551 106.353 246.375 102.971Z" fill="#FCF2B7"/>
<path d="M249.203 105.001C262.186 102.226 278.592 104.168 285.778 109.334C292.961 114.497 288.239 120.956 275.257 123.731C262.275 126.505 245.869 124.563 238.686 119.399C231.5 114.233 236.222 107.775 249.203 105.001Z" fill="#E2D05F"/>
<path d="M248.696 106.971C261.678 104.196 278.085 106.137 285.272 111.302C287.589 112.969 288.661 114.77 288.622 116.538C289.806 114.172 288.968 111.625 285.78 109.334C278.595 104.168 262.187 102.227 249.205 105.002C240.413 106.882 235.416 110.45 235.334 114.162C236.817 111.196 241.477 108.514 248.696 106.971Z" fill="#CABB5A"/>
<path d="M229.473 114.185L229.393 125.709C229.378 127.839 230.697 130.006 233.492 132.016L233.572 120.493C230.777 118.483 229.458 116.316 229.473 114.185Z" fill="#E2D05F"/>
<path d="M294.986 114.545C294.929 122.693 278.505 126.246 269.499 127.014C258.595 127.943 242.083 126.606 233.574 120.488L233.493 132.014C246.633 141.461 281.838 140.941 292.366 131.027C292.37 131.024 292.373 131.02 292.376 131.016C292.388 131.006 292.398 130.994 292.409 130.984C293.827 129.635 294.892 127.955 294.905 126.071L294.986 114.545Z" fill="#CABB5A"/>
<path d="M69.7958 81.7448C64.2901 77.3649 51.7629 75.7241 41.8159 78.0777C31.8689 80.4307 28.2631 85.8878 33.7689 90.2677C39.2724 94.6462 51.7996 96.2865 61.7471 93.9334C71.6941 91.5803 75.2994 86.1233 69.7958 81.7448ZM59.9698 92.5195C51.8094 94.4498 41.4968 93.0995 36.9819 89.5076C32.4653 85.9142 35.4334 81.4219 43.5938 79.4916C51.7541 77.5613 62.0668 78.9115 66.5839 82.5048C71.0982 86.0963 68.1296 90.5887 59.9698 92.5195Z" fill="#E6E6E1"/>
<path d="M41.8148 78.0788L43.5922 79.4928C35.4328 81.4227 32.4645 85.9149 36.981 89.5085L33.7687 90.2684C28.2636 85.8882 31.8679 80.4315 41.8148 78.0788Z" fill="#FFFFFE"/>
<path d="M43.593 79.4909C51.7532 77.5608 62.0657 78.9115 66.5829 82.5053C71.0978 86.0972 68.1295 90.5903 59.9698 92.5203C51.8096 94.4505 41.4971 93.0997 36.9821 89.5073C32.4649 85.9135 35.4333 81.421 43.593 79.4909Z" fill="#999996"/>
<path d="M43.2739 80.8613C51.4339 78.931 61.7471 80.2812 66.2642 83.8747C67.721 85.034 68.3948 86.2867 68.3699 87.5169C69.1143 85.8706 68.5874 84.0994 66.5838 82.5051C62.0671 78.9116 51.7539 77.5614 43.5935 79.4917C38.0672 80.7993 34.9262 83.2816 34.8746 85.8639C35.8067 83.8008 38.736 81.9349 43.2739 80.8613Z" fill="#4D4D4B"/>
<path d="M31.191 85.8802L31.1405 93.8964C31.1313 95.3783 31.9602 96.8861 33.7171 98.2841L33.7676 90.2679C32.0102 88.8699 31.1813 87.3621 31.191 85.8802Z" fill="#999996"/>
<path d="M72.3701 86.1302C72.3347 91.7985 62.0111 94.27 56.3501 94.8041C49.4964 95.4508 39.1173 94.5205 33.7683 90.2645L33.7179 98.2827C41.9771 104.855 64.1063 104.493 70.7235 97.5959C70.7258 97.5936 70.7276 97.5908 70.73 97.5885C70.7371 97.5811 70.7437 97.5732 70.7508 97.5657C71.6422 96.6277 72.3115 95.4588 72.3197 94.1485L72.3701 86.1302Z" fill="#4D4D4B"/>
<path d="M79.0806 26.9856H75.2148V67.6138H79.0806V26.9856Z" fill="#4D4D4B"/>
<path opacity="0.4" d="M79.0806 26.9856H75.2148V67.6138H79.0806V26.9856Z" fill="#FFFFFE"/>
<path opacity="0.3" d="M79.0806 26.9856V49.7897L75.2148 49.4657V26.9856H79.0806Z" fill="#1A1A19"/>
<path d="M28.824 26.9856H24.958V67.6138H28.824V26.9856Z" fill="#4D4D4B"/>
<path opacity="0.4" d="M28.824 26.9856H24.958V67.6138H28.824V26.9856Z" fill="#FFFFFE"/>
<path opacity="0.3" d="M24.958 26.9856H28.824V36.7311L24.958 36.4412V26.9856Z" fill="#1A1A19"/>
<path d="M25.058 46.2882V27.0856H78.9808V46.2882H25.058Z" fill="#E6E6E1" stroke="black" stroke-width="0.2"/>
<path opacity="0.7" d="M25.058 46.2882V27.0856H78.9808V46.2882H25.058Z" fill="#FFFFFE" stroke="black" stroke-width="0.2"/>
<path d="M25.058 46.2888V41.6381H28.724V46.2888H25.058Z" fill="#1A1A19" stroke="black" stroke-width="0.2"/>
<path d="M25.058 36.5877V31.9369H28.724V36.5877H25.058Z" fill="#1A1A19" stroke="black" stroke-width="0.2"/>
<path d="M28.9242 41.438V36.7873H32.5902V41.438H28.9242Z" fill="#1A1A19" stroke="black" stroke-width="0.2"/>
<path d="M32.7899 46.2888V41.6381H36.4559V46.2888H32.7899Z" fill="#1A1A19" stroke="black" stroke-width="0.2"/>
<path d="M28.9242 31.7363V27.0856H32.5902V31.7363H28.9242Z" fill="#1A1A19" stroke="black" stroke-width="0.2"/>
<path d="M32.7904 36.5877V31.9369H36.4564V36.5877H32.7904Z" fill="#1A1A19" stroke="black" stroke-width="0.2"/>
<path d="M36.6562 41.438V36.7873H40.3221V41.438H36.6562Z" fill="#1A1A19" stroke="black" stroke-width="0.2"/>
<path d="M40.5219 46.2888V41.6381H44.1878V46.2888H40.5219Z" fill="#1A1A19" stroke="black" stroke-width="0.2"/>
<path d="M36.6562 31.7363V27.0856H40.3221V31.7363H36.6562Z" fill="#1A1A19" stroke="black" stroke-width="0.2"/>
<path d="M40.5219 36.5877V31.9369H44.1878V36.5877H40.5219Z" fill="#1A1A19" stroke="black" stroke-width="0.2"/>
<path d="M44.3876 41.438V36.7873H48.0536V41.438H44.3876Z" fill="#1A1A19" stroke="black" stroke-width="0.2"/>
<path d="M48.2538 46.2888V41.6381H51.9198V46.2888H48.2538Z" fill="#1A1A19" stroke="black" stroke-width="0.2"/>
<path d="M44.3876 31.7363V27.0856H48.0536V31.7363H44.3876Z" fill="#1A1A19" stroke="black" stroke-width="0.2"/>
<path d="M48.2538 36.5877V31.9369H51.9198V36.5877H48.2538Z" fill="#1A1A19" stroke="black" stroke-width="0.2"/>
<path d="M52.1195 41.438V36.7873H55.7855V41.438H52.1195Z" fill="#1A1A19" stroke="black" stroke-width="0.2"/>
<path d="M55.9857 46.2888V41.6381H59.6517V46.2888H55.9857Z" fill="#1A1A19" stroke="black" stroke-width="0.2"/>
<path d="M52.1195 31.7363V27.0856H55.7855V31.7363H52.1195Z" fill="#1A1A19" stroke="black" stroke-width="0.2"/>
<path d="M55.9857 36.5877V31.9369H59.6517V36.5877H55.9857Z" fill="#1A1A19" stroke="black" stroke-width="0.2"/>
<path d="M59.851 41.438V36.7873H63.5169V41.438H59.851Z" fill="#1A1A19" stroke="black" stroke-width="0.2"/>
<path d="M63.7172 46.2888V41.6381H67.3832V46.2888H63.7172Z" fill="#1A1A19" stroke="black" stroke-width="0.2"/>
<path d="M59.851 31.7363V27.0856H63.5169V31.7363H59.851Z" fill="#1A1A19" stroke="black" stroke-width="0.2"/>
<path d="M63.7172 36.5877V31.9369H67.3832V36.5877H63.7172Z" fill="#1A1A19" stroke="black" stroke-width="0.2"/>
<path d="M67.5829 41.438V36.7873H71.2489V41.438H67.5829Z" fill="#1A1A19" stroke="black" stroke-width="0.2"/>
<path d="M71.4486 46.2888V41.6381H75.1146V46.2888H71.4486Z" fill="#1A1A19" stroke="black" stroke-width="0.2"/>
<path d="M67.5829 31.7363V27.0856H71.2489V31.7363H67.5829Z" fill="#1A1A19" stroke="black" stroke-width="0.2"/>
<path d="M71.4491 36.5877V31.9369H75.1151V36.5877H71.4491Z" fill="#1A1A19" stroke="black" stroke-width="0.2"/>
<path d="M75.3148 41.438V36.7873H78.9808V41.438H75.3148Z" fill="#1A1A19" stroke="black" stroke-width="0.2"/>
<path d="M75.3148 31.7363V27.0856H78.9808V31.7363H75.3148Z" fill="#1A1A19" stroke="black" stroke-width="0.2"/>
<g opacity="0.1">
<path d="M25.058 46.2888V41.6381H28.724V46.2888H25.058Z" fill="#FFFFFE" stroke="black" stroke-width="0.2"/>
<path d="M25.058 36.5877V31.9369H28.724V36.5877H25.058Z" fill="#FFFFFE" stroke="black" stroke-width="0.2"/>
<path d="M28.9242 41.438V36.7873H32.5902V41.438H28.9242Z" fill="#FFFFFE" stroke="black" stroke-width="0.2"/>
<path d="M32.7899 46.2888V41.6381H36.4559V46.2888H32.7899Z" fill="#FFFFFE" stroke="black" stroke-width="0.2"/>
<path d="M28.9242 31.7363V27.0856H32.5902V31.7363H28.9242Z" fill="#FFFFFE" stroke="black" stroke-width="0.2"/>
<path d="M32.7904 36.5877V31.9369H36.4564V36.5877H32.7904Z" fill="#FFFFFE" stroke="black" stroke-width="0.2"/>
<path d="M36.6562 41.438V36.7873H40.3221V41.438H36.6562Z" fill="#FFFFFE" stroke="black" stroke-width="0.2"/>
<path d="M40.5219 46.2888V41.6381H44.1878V46.2888H40.5219Z" fill="#FFFFFE" stroke="black" stroke-width="0.2"/>
<path d="M36.6562 31.7363V27.0856H40.3221V31.7363H36.6562Z" fill="#FFFFFE" stroke="black" stroke-width="0.2"/>
<path d="M40.5219 36.5877V31.9369H44.1878V36.5877H40.5219Z" fill="#FFFFFE" stroke="black" stroke-width="0.2"/>
<path d="M44.3876 41.438V36.7873H48.0536V41.438H44.3876Z" fill="#FFFFFE" stroke="black" stroke-width="0.2"/>
<path d="M48.2538 46.2888V41.6381H51.9198V46.2888H48.2538Z" fill="#FFFFFE" stroke="black" stroke-width="0.2"/>
<path d="M44.3876 31.7363V27.0856H48.0536V31.7363H44.3876Z" fill="#FFFFFE" stroke="black" stroke-width="0.2"/>
<path d="M48.2538 36.5877V31.9369H51.9198V36.5877H48.2538Z" fill="#FFFFFE" stroke="black" stroke-width="0.2"/>
<path d="M52.1195 41.438V36.7873H55.7855V41.438H52.1195Z" fill="#FFFFFE" stroke="black" stroke-width="0.2"/>
<path d="M55.9857 46.2888V41.6381H59.6517V46.2888H55.9857Z" fill="#FFFFFE" stroke="black" stroke-width="0.2"/>
<path d="M52.1195 31.7363V27.0856H55.7855V31.7363H52.1195Z" fill="#FFFFFE" stroke="black" stroke-width="0.2"/>
<path d="M55.9857 36.5877V31.9369H59.6517V36.5877H55.9857Z" fill="#FFFFFE" stroke="black" stroke-width="0.2"/>
<path d="M59.851 41.438V36.7873H63.5169V41.438H59.851Z" fill="#FFFFFE" stroke="black" stroke-width="0.2"/>
<path d="M63.7172 46.2888V41.6381H67.3832V46.2888H63.7172Z" fill="#FFFFFE" stroke="black" stroke-width="0.2"/>
<path d="M59.851 31.7363V27.0856H63.5169V31.7363H59.851Z" fill="#FFFFFE" stroke="black" stroke-width="0.2"/>
<path d="M63.7172 36.5877V31.9369H67.3832V36.5877H63.7172Z" fill="#FFFFFE" stroke="black" stroke-width="0.2"/>
<path d="M67.5829 41.438V36.7873H71.2489V41.438H67.5829Z" fill="#FFFFFE" stroke="black" stroke-width="0.2"/>
<path d="M71.4486 46.2888V41.6381H75.1146V46.2888H71.4486Z" fill="#FFFFFE" stroke="black" stroke-width="0.2"/>
<path d="M67.5829 31.7363V27.0856H71.2489V31.7363H67.5829Z" fill="#FFFFFE" stroke="black" stroke-width="0.2"/>
<path d="M71.4491 36.5877V31.9369H75.1151V36.5877H71.4491Z" fill="#FFFFFE" stroke="black" stroke-width="0.2"/>
<path d="M75.3148 41.438V36.7873H78.9808V41.438H75.3148Z" fill="#FFFFFE" stroke="black" stroke-width="0.2"/>
<path d="M75.3148 31.7363V27.0856H78.9808V31.7363H75.3148Z" fill="#FFFFFE" stroke="black" stroke-width="0.2"/>
</g>
<path d="M256.172 56.4121C258.382 59.1037 264.355 62.9164 264.355 62.9164L267.158 69.4606C267.158 69.4606 267.743 77.4197 267.855 81.179C270.948 83.7593 271.345 85.1118 272.859 87.9946C274.015 90.1968 275.926 94.45 275.934 94.4677C276.707 96.0204 277.381 97.3462 277.381 97.3462L277.591 97.7377C279.376 101.711 281.385 102.053 281.064 103.401C280.863 104.255 280.171 104.736 279.403 105.777C278.925 106.444 278.818 106.222 278.613 107.556C278.448 108.66 278.457 109.145 278.341 110.137C278.242 110.969 277.336 112.085 275.707 112.432C273.336 112.935 271.042 112.481 270.939 111.382C270.837 110.283 271.97 109.705 272.546 109.158C273.439 108.268 273.841 106.818 273.984 105.67C274.158 104.233 274.528 103.196 273.756 101.826C270.971 96.8746 261.703 87.8701 259.886 85.3654C256.558 80.5859 254.482 75.0527 253.847 69.2693C253.391 64.8508 254.198 60.394 256.172 56.4121Z" fill="#FFA190"/>
<path d="M255.789 64.9851C256.999 66.8581 259.775 68.0192 259.775 68.0192L267.578 75.7825C267.699 77.7489 267.806 79.7865 267.851 81.1923C268.011 81.3258 268.159 81.4504 268.297 81.5794L268.449 81.7084L268.565 81.8152L268.609 81.8552L268.989 82.2067L269.15 82.358L269.475 82.6872L269.609 82.8251C269.717 82.9363 269.819 83.052 269.917 83.1632L269.984 83.2388L266.828 89.6808C267.12 90.8208 267.132 92.0141 266.864 93.1598C263.829 89.8009 260.833 86.7 259.887 85.3743L259.57 84.9294L259.463 84.7648C259.4 84.6758 259.342 84.5824 259.28 84.489C259.217 84.3955 259.24 84.4311 259.222 84.3955L259.074 84.1731L258.838 83.7949C258.789 83.7104 258.735 83.6259 258.682 83.5413C258.628 83.4568 258.508 83.2477 258.423 83.0965L258.28 82.8562C258.15 82.6293 258.016 82.3891 257.883 82.1444L257.744 81.8819C257.65 81.7084 257.561 81.5305 257.467 81.3481L257.293 81.0055C257.249 80.9076 257.2 80.8097 257.15 80.7074L258.49 68.6688C258.49 68.6688 256.267 67.2896 255.789 64.9851Z" fill="#FA6E54"/>
<path d="M255.565 57.502C254.758 59.0102 253.222 64.5357 253.722 68.9756C253.954 71.3954 254.453 73.7825 255.208 76.0938C257.306 76.6587 259.497 76.7982 261.65 76.504C263.803 76.2098 265.875 75.4879 267.743 74.381L267.087 56.719L255.565 57.502Z" fill="#4D4D4B"/>
<path d="M259.78 68.0191L266.721 74.9282C263.893 76.3366 260.716 76.8961 257.575 76.5387L258.467 68.6375C258.467 68.6375 256.101 67.2761 255.909 64.7759C257.128 66.6444 259.78 68.0191 259.78 68.0191Z" fill="#4D4D4B"/>
<path d="M267.654 72.0144C265.484 73.0821 258.824 74.964 254.499 73.5626C254.499 73.5626 254.856 75.2532 255.32 76.6368C258.181 77.5933 263.931 77.1929 267.743 74.7371L267.654 72.0144Z" fill="#4D4D4B"/>
<path d="M281.541 103.312C281.872 103.864 281.988 105.189 281.988 106.021L280.394 107.801L279.367 106.217C279.367 106.217 281.113 104.856 281.541 103.312Z" fill="#4D4D4B"/>
<path d="M280.394 107.792L278.497 107.534C278.497 107.534 278.207 107.285 278.684 106.724C279.162 106.164 279.367 106.208 279.367 106.208L280.394 107.792Z" fill="#1A1A19"/>
<path d="M281.542 103.312C281.64 103.6 281.703 103.899 281.729 104.202C281.702 104.446 281.475 104.776 280.939 105.403C280.403 106.03 279.6 106.324 279.314 107.276C279.028 108.228 279.412 109.58 278.868 110.897C278.323 112.214 276.832 113.607 273.997 113.624C271.971 113.624 271.27 113.153 270.658 112.641C270.533 111.729 270.587 111.502 271.77 110.893C272.953 110.283 281.542 103.312 281.542 103.312Z" fill="#4D4D4B"/>
<path d="M278.109 98.0403C278.562 99.0615 279.163 100.01 279.894 100.856C280.675 101.72 281.35 102.244 281.573 103.312C281.51 104.037 280.912 104.829 280.171 105.501C279.225 106.351 278.93 106.742 278.769 108.17C278.569 109.892 279.06 110.777 276.796 112.281C275.011 113.451 271.551 113.104 270.734 112.036C270.23 109.585 272.274 110.017 273.082 107.588C273.529 106.253 273.975 104.754 273.721 103.326C273.633 102.842 273.474 102.374 273.247 101.938C273.047 101.537 270.949 98.8233 271.413 98.4229L271.859 98.9968C272.74 99.1582 273.649 98.9767 274.399 98.4896C276.546 97.1283 276.725 95.9983 276.725 95.9983L276.511 95.5534C276.703 95.3443 277.051 96.0072 278.109 98.0403Z" fill="#E66D57"/>
<path opacity="0.3" d="M278.109 98.0403C278.562 99.0615 279.163 100.01 279.894 100.856C280.675 101.72 281.35 102.244 281.573 103.312C281.51 104.037 280.912 104.829 280.171 105.501C279.225 106.351 278.93 106.742 278.769 108.17C278.569 109.892 279.06 110.777 276.796 112.281C275.011 113.451 271.551 113.104 270.734 112.036C270.23 109.585 272.274 110.017 273.082 107.588C273.529 106.253 273.975 104.754 273.721 103.326C273.633 102.842 273.474 102.374 273.247 101.938C273.047 101.537 270.949 98.8233 271.413 98.4229L271.859 98.9968C272.74 99.1582 273.649 98.9767 274.399 98.4896C276.546 97.1283 276.725 95.9983 276.725 95.9983L276.511 95.5534C276.703 95.3443 277.051 96.0072 278.109 98.0403Z" fill="#1A1A19"/>
<path d="M279.568 100.514C279.662 100.625 279.756 100.741 279.863 100.856C280.644 101.719 281.318 102.244 281.542 103.312C281.479 104.037 280.881 104.829 280.14 105.501C279.773 105.799 279.452 106.15 279.189 106.542C278.35 104.842 278.002 102.396 279.568 100.514Z" fill="#E66D57"/>
<path opacity="0.5" d="M279.568 100.514C279.662 100.625 279.756 100.741 279.863 100.856C280.644 101.719 281.318 102.244 281.542 103.312C281.479 104.037 280.881 104.829 280.14 105.501C279.773 105.799 279.452 106.15 279.189 106.542C278.35 104.842 278.002 102.396 279.568 100.514Z" fill="#1A1A19"/>
<path d="M277.827 111.431C277.452 109.963 274.256 109.091 271.988 109.256C270.252 110.323 270.27 111.48 270.622 112.107C271.082 112.913 275.39 114.247 277.827 111.431Z" fill="#E66D57"/>
<path opacity="0.5" d="M277.827 111.431C277.452 109.963 274.256 109.091 271.988 109.256C270.252 110.323 270.27 111.48 270.622 112.107C271.082 112.913 275.39 114.247 277.827 111.431Z" fill="#1A1A19"/>
<path d="M276.323 108.998C276.336 109.003 276.35 109.003 276.363 108.998C276.368 108.993 276.372 108.987 276.375 108.98C276.378 108.974 276.379 108.967 276.379 108.96C276.379 108.953 276.378 108.946 276.375 108.939C276.372 108.933 276.368 108.927 276.363 108.922C275.882 108.266 275.208 107.776 274.435 107.521C275.154 107.331 275.887 107.195 276.627 107.116C276.639 107.115 276.651 107.11 276.66 107.102C276.67 107.094 276.677 107.083 276.68 107.071C276.682 107.06 276.681 107.048 276.677 107.037C276.673 107.026 276.667 107.017 276.658 107.009C276.094 106.592 275.481 106.246 274.832 105.977C275.457 105.706 276.119 105.529 276.796 105.452C276.807 105.449 276.818 105.443 276.826 105.436C276.835 105.428 276.841 105.418 276.845 105.407C276.85 105.398 276.853 105.387 276.853 105.376C276.853 105.365 276.85 105.355 276.845 105.345C276.284 104.913 275.655 104.577 274.984 104.349C275.553 104.056 276.151 103.825 276.769 103.659C276.782 103.656 276.793 103.649 276.801 103.64C276.809 103.63 276.813 103.618 276.814 103.606C276.817 103.594 276.815 103.581 276.81 103.571C276.804 103.56 276.794 103.552 276.783 103.548C276.278 103.303 275.805 103.103 275.35 102.925L274.649 102.631C275.157 102.05 275.743 101.541 276.39 101.119C276.401 101.111 276.409 101.1 276.413 101.087C276.417 101.074 276.417 101.06 276.412 101.048C276.408 101.035 276.399 101.024 276.388 101.017C276.376 101.01 276.363 101.007 276.35 101.008C275.62 101.077 274.883 101.058 274.158 100.95C274.789 100.421 275.32 99.7838 275.725 99.0678C275.732 99.0574 275.736 99.0449 275.736 99.0322C275.736 99.0195 275.732 99.0071 275.725 98.9966C275.714 98.989 275.7 98.9849 275.687 98.9849C275.673 98.9849 275.66 98.989 275.649 98.9966C274.171 100.007 272.582 100.362 272.024 100.06C272.013 100.052 272 100.047 271.986 100.047C271.973 100.047 271.959 100.052 271.948 100.06C271.94 100.071 271.935 100.085 271.935 100.1C271.935 100.114 271.94 100.128 271.948 100.14C272.495 100.621 273.172 100.931 273.895 101.03C273.448 101.435 273.069 101.706 273.06 101.715C273.053 101.72 273.047 101.727 273.043 101.734C273.039 101.742 273.037 101.751 273.038 101.759C273.034 101.766 273.033 101.774 273.033 101.782C273.033 101.789 273.034 101.797 273.038 101.804C273.449 102.179 273.924 102.48 274.439 102.694C274.089 103.094 273.827 103.564 273.671 104.073C273.668 104.081 273.666 104.089 273.666 104.097C273.666 104.106 273.668 104.114 273.671 104.122C273.687 104.127 273.705 104.127 273.721 104.122C274.05 104.17 274.373 104.254 274.685 104.371C274.218 104.653 273.823 105.038 273.529 105.496C273.524 105.504 273.522 105.512 273.522 105.521C273.522 105.529 273.524 105.538 273.529 105.545C273.531 105.554 273.536 105.562 273.542 105.569C273.548 105.576 273.556 105.582 273.564 105.585C273.564 105.585 274.011 105.741 274.546 105.977C273.959 106.262 273.446 106.681 273.051 107.2C273.046 107.209 273.043 107.219 273.043 107.229C273.043 107.239 273.046 107.249 273.051 107.258C273.055 107.269 273.061 107.278 273.07 107.285C273.079 107.292 273.089 107.297 273.1 107.298C273.42 107.342 273.735 107.414 274.042 107.512C273.463 107.646 272.951 107.98 272.596 108.455C272.588 108.466 272.584 108.479 272.584 108.493C272.584 108.506 272.588 108.519 272.596 108.531C272.606 108.539 272.62 108.543 272.634 108.543C272.647 108.543 272.661 108.539 272.671 108.531C273.537 107.948 275.412 108.304 276.283 108.975L276.323 108.998ZM274.238 107.561C274.928 107.776 275.551 108.162 276.051 108.682C275.158 108.17 273.734 107.93 272.863 108.286C273.26 107.936 273.739 107.691 274.256 107.574L274.238 107.561ZM276.47 106.996C275.715 107.082 274.969 107.23 274.238 107.441C273.901 107.326 273.555 107.241 273.203 107.187C273.602 106.693 274.111 106.299 274.689 106.035C275.323 106.293 275.929 106.615 276.497 106.996H276.47ZM276.64 105.332C275.965 105.424 275.306 105.613 274.685 105.892C274.238 105.688 273.828 105.541 273.667 105.483C273.967 105.043 274.364 104.676 274.828 104.411C275.482 104.635 276.102 104.951 276.667 105.35L276.64 105.332ZM276.564 103.552C275.957 103.721 275.372 103.958 274.819 104.26C274.487 104.135 274.145 104.041 273.796 103.979C273.956 103.505 274.209 103.068 274.542 102.694L275.283 103.001C275.72 103.187 276.144 103.361 276.591 103.57L276.564 103.552ZM276.118 101.11C275.526 101.519 274.988 102.001 274.515 102.542C274.029 102.342 273.577 102.067 273.176 101.728C273.31 101.626 273.645 101.368 274.037 101.021C274.73 101.141 275.434 101.177 276.136 101.128L276.118 101.11ZM275.493 99.1879C275.076 99.8223 274.571 100.395 273.993 100.887C273.376 100.788 272.786 100.562 272.261 100.224C273.033 100.362 274.345 99.9487 275.511 99.2057L275.493 99.1879Z" fill="#1A1A19"/>
<path d="M274.403 101.791C274.469 101.793 274.534 101.779 274.593 101.75C274.652 101.72 274.702 101.676 274.738 101.622C274.784 101.551 274.813 101.469 274.822 101.385C274.83 101.301 274.818 101.216 274.787 101.137C274.644 100.727 274.051 100.296 273.274 100.042C273.257 100.035 273.238 100.035 273.22 100.042C273.213 100.047 273.206 100.054 273.202 100.061C273.197 100.069 273.194 100.078 273.194 100.087C273.16 100.427 273.234 100.77 273.407 101.066C273.579 101.362 273.84 101.597 274.153 101.737C274.233 101.771 274.317 101.789 274.403 101.791ZM273.305 100.18C274.002 100.42 274.546 100.816 274.676 101.177C274.701 101.238 274.71 101.305 274.703 101.371C274.696 101.437 274.673 101.5 274.636 101.555C274.581 101.617 274.507 101.658 274.426 101.672C274.345 101.686 274.261 101.671 274.189 101.631C273.912 101.504 273.679 101.297 273.521 101.037C273.364 100.777 273.288 100.475 273.305 100.171V100.18Z" fill="#1A1A19"/>
<path d="M272.814 102.075C272.915 102.069 273.013 102.038 273.099 101.985C273.186 101.932 273.258 101.859 273.31 101.773C273.479 101.519 273.57 101.221 273.57 100.916C273.57 100.612 273.479 100.314 273.31 100.06C273.302 100.047 273.29 100.038 273.277 100.033C273.263 100.028 273.248 100.028 273.234 100.033C272.946 100.164 272.707 100.38 272.547 100.651C272.387 100.923 272.315 101.237 272.341 101.55C272.345 101.665 272.384 101.776 272.454 101.868C272.523 101.959 272.619 102.027 272.729 102.062L272.814 102.075ZM273.225 100.167C273.377 100.395 273.458 100.663 273.458 100.936C273.458 101.21 273.377 101.478 273.225 101.706C273.181 101.784 273.116 101.848 273.037 101.891C272.958 101.933 272.868 101.953 272.778 101.946C272.622 101.911 272.519 101.764 272.484 101.533C272.458 101.257 272.514 100.981 272.646 100.738C272.778 100.494 272.98 100.296 273.225 100.167Z" fill="#1A1A19"/>
<path d="M250.356 121.219C253.762 119.239 255.677 118.839 256.262 112.134C256.414 110.395 256.525 110.355 256.525 108.936C256.525 107.516 256.641 101.012 256.659 96.1895C256.806 81.4148 258.097 79.5597 259.784 68.0193C255.704 66.0974 255.097 63.3079 255.494 57.6935C255.494 57.6935 258.172 58.65 263.056 58.2184C267.94 57.7869 269.997 56.7058 269.997 56.7058C274.854 64.5091 274.93 66.4933 270.93 76.7257C269.368 81.0901 265.574 89.9077 265.574 89.9077C266.02 92.9285 265.833 94.5524 264.346 100.861C263.477 104.31 262.821 107.809 262.382 111.338C262.427 112.148 261.458 114.586 261.489 115.4C261.672 116.663 262.418 118.563 261.087 119.559C256.793 121.05 258.73 122.478 254.659 123.706C253.164 124.338 247.428 123.305 250.356 121.219Z" fill="#FFCDC4"/>
<path d="M270.109 56.5901C270.109 56.5901 272.877 60.6742 273.511 62.6583C274.288 64.7662 274.387 67.0632 273.792 69.2293C273.109 72.2056 270.725 77.433 270.725 77.433C268.194 74.1231 260.164 72.0499 258.722 74.2254L259.499 68.2105C259.499 68.2105 253.588 66.5289 255.566 57.5021L270.109 56.5901Z" fill="#4D4D4B"/>
<path d="M268.355 67.3119C267.078 66.3154 266.212 63.8819 265.775 60.0825L266.029 60.0558C266.453 63.7306 267.31 66.1686 268.511 67.1117C268.91 67.4376 269.421 67.597 269.935 67.5566C270.462 63.9308 269.524 61.3282 268.699 59.0415C268.466 58.4053 268.252 57.8047 268.069 57.1952L268.31 57.124C268.493 57.7246 268.707 58.3208 268.935 58.9525C269.783 61.2971 270.743 63.953 270.172 67.6945C269.895 69.5141 268.975 72.4326 267.94 75.5068L267.716 75.3822C268.699 72.4237 269.582 69.5987 269.881 67.8191H269.752C269.242 67.8142 268.749 67.6352 268.355 67.3119Z" fill="#4D4D4B"/>
<path d="M271.279 76.2807L270.033 79.088C268.481 77.4432 266.542 76.2107 264.391 75.5022C260.949 74.4345 258.833 74.9594 258.552 75.5022L258.936 72.5704C258.936 72.5704 261.061 71.4315 264.828 72.4102C268.596 73.389 270.649 75.1908 271.279 76.2807Z" fill="#4D4D4B"/>
<path d="M262.735 118.251C262.698 118.915 262.578 119.571 262.378 120.204C262.378 120.204 261.119 120.921 260.253 121.366V118.145L262.735 118.251Z" fill="#4D4D4B"/>
<path d="M260.253 121.366L257.722 120.645C257.722 120.645 258.271 119.19 258.909 118.669C259.288 118.357 259.757 118.173 260.248 118.145L260.253 121.366Z" fill="#1A1A19"/>
<path d="M249.209 122.669C249.093 123.003 249.468 123.559 250.606 123.901C252.222 124.369 254.833 124.431 256.682 123.092C257.463 122.514 258.181 121.857 258.824 121.13C259.605 120.351 259.717 120.16 260.936 119.795C262.154 119.43 262.328 119.123 262.659 118.705C262.659 118.705 262.998 117.468 262.346 117.068C261.695 116.668 249.209 122.669 249.209 122.669Z" fill="#4D4D4B"/>
<path d="M262.735 118.251C262.454 118.776 261.324 119.239 260.257 119.63C258.842 120.151 258.771 120.685 256.95 122.242C255.732 123.253 254.181 123.78 252.597 123.719C251.155 123.688 249.78 123.239 249.209 122.678C248.678 121.699 248.691 120.947 250.017 120.066C252.057 118.705 254.035 117.117 254.816 116.062C255.597 115.008 255.811 114.247 255.972 112.441C256.017 111.956 256.003 110.737 256.057 110.252C256.142 109.478 256.128 108.967 256.525 108.949V109.309C257.057 109.794 257.61 110.145 259.766 110.292C260.753 110.359 261.998 110.186 262.561 109.741L262.646 109.189C263.248 109.305 263.119 109.968 262.927 111.017C262.757 111.952 262.186 114.043 262.48 115.106C262.726 115.885 263.087 117.362 262.735 118.251Z" fill="#E66D57"/>
<path opacity="0.3" d="M262.735 118.251C262.454 118.776 261.324 119.239 260.257 119.63C258.842 120.151 258.771 120.685 256.95 122.242C255.732 123.253 254.181 123.78 252.597 123.719C251.155 123.688 249.78 123.239 249.209 122.678C248.678 121.699 248.691 120.947 250.017 120.066C252.057 118.705 254.035 117.117 254.816 116.062C255.597 115.008 255.811 114.247 255.972 112.441C256.017 111.956 256.003 110.737 256.057 110.252C256.142 109.478 256.128 108.967 256.525 108.949V109.309C257.057 109.794 257.61 110.145 259.766 110.292C260.753 110.359 261.998 110.186 262.561 109.741L262.646 109.189C263.248 109.305 263.119 109.968 262.927 111.017C262.757 111.952 262.186 114.043 262.48 115.106C262.726 115.885 263.087 117.362 262.735 118.251Z" fill="#1A1A19"/>
<path d="M260.132 119.675C259.521 116.792 261.092 115.386 262.463 114.959C262.47 115.004 262.481 115.049 262.494 115.093C262.722 115.885 263.083 117.339 262.73 118.242C262.449 118.767 261.32 119.23 260.253 119.622L260.132 119.675Z" fill="#FA6E54"/>
<path opacity="0.5" d="M260.132 119.675C259.521 116.792 261.092 115.386 262.463 114.959C262.47 115.004 262.481 115.049 262.494 115.093C262.722 115.885 263.083 117.339 262.73 118.242C262.449 118.767 261.32 119.23 260.253 119.622L260.132 119.675Z" fill="#1A1A19"/>
<path d="M256.012 122.892C255.894 122.143 255.559 121.445 255.05 120.883C254.54 120.32 253.877 119.918 253.142 119.724C251.856 119.395 250.963 119.217 249.763 120.053C249.187 120.458 248.357 121.708 249.196 122.723C250.044 123.59 253.874 124.48 256.012 122.892Z" fill="#E66D57"/>
<path opacity="0.5" d="M256.012 122.892C255.894 122.143 255.559 121.445 255.05 120.883C254.54 120.32 253.877 119.918 253.142 119.724C251.856 119.395 250.963 119.217 249.763 120.053C249.187 120.458 248.357 121.708 249.196 122.723C250.044 123.59 253.874 124.48 256.012 122.892Z" fill="#1A1A19"/>
<path d="M255.816 119.613H255.847C255.86 119.606 255.871 119.594 255.876 119.58C255.881 119.566 255.88 119.551 255.874 119.537C255.598 118.856 255.133 118.267 254.535 117.838C255.346 117.751 256.165 117.751 256.976 117.838C256.988 117.838 257 117.836 257.01 117.83C257.02 117.825 257.029 117.817 257.034 117.807C257.041 117.797 257.044 117.785 257.044 117.773C257.044 117.761 257.041 117.75 257.034 117.74C256.721 117.371 256.354 117.052 255.945 116.792C256.644 116.737 257.345 116.737 258.043 116.792C258.055 116.793 258.067 116.79 258.077 116.785C258.087 116.779 258.096 116.771 258.101 116.761C258.107 116.751 258.11 116.739 258.11 116.728C258.11 116.716 258.107 116.705 258.101 116.694C257.697 116.162 257.239 115.671 256.735 115.231C257.392 115.116 258.056 115.045 258.722 115.017C258.734 115.017 258.747 115.013 258.757 115.006C258.767 114.999 258.775 114.989 258.78 114.977C258.782 114.965 258.781 114.953 258.777 114.941C258.773 114.929 258.766 114.919 258.758 114.91C258.525 114.723 258.311 114.55 258.066 114.376C257.82 114.203 257.508 113.954 257.249 113.74C257.885 113.549 258.538 113.421 259.2 113.358C259.212 113.356 259.225 113.351 259.234 113.342C259.244 113.333 259.25 113.321 259.253 113.309C259.256 113.296 259.255 113.282 259.249 113.27C259.244 113.258 259.234 113.248 259.222 113.242C258.622 112.918 258.058 112.531 257.539 112.09C258.394 111.865 259.234 111.585 260.052 111.249C260.065 111.242 260.075 111.232 260.082 111.219C260.088 111.206 260.09 111.192 260.088 111.178C260.084 111.164 260.075 111.151 260.063 111.143C260.05 111.135 260.036 111.132 260.021 111.133C258.235 111.267 256.588 110.751 256.093 110.328C256.082 110.32 256.068 110.315 256.055 110.315C256.041 110.315 256.028 110.32 256.017 110.328C256.006 110.336 255.998 110.347 255.994 110.36C255.99 110.373 255.99 110.386 255.994 110.399C256.308 111.028 256.749 111.585 257.289 112.036C256.517 112.245 255.914 112.392 255.905 112.392C255.895 112.394 255.885 112.399 255.877 112.406C255.869 112.413 255.864 112.422 255.86 112.432C255.856 112.441 255.854 112.45 255.854 112.459C255.854 112.468 255.856 112.477 255.86 112.486C256.183 112.936 256.565 113.341 256.994 113.691C256.498 113.855 256.019 114.063 255.561 114.314C255.553 114.319 255.546 114.327 255.54 114.335C255.535 114.344 255.531 114.353 255.53 114.363C255.53 114.383 255.538 114.402 255.552 114.416C255.892 114.675 256.195 114.924 256.472 115.164C255.775 115.287 255.131 115.615 254.624 116.107C254.62 116.115 254.617 116.124 254.617 116.134C254.617 116.143 254.62 116.152 254.624 116.16C254.627 116.17 254.631 116.179 254.637 116.186C254.643 116.194 254.651 116.2 254.66 116.205C254.981 116.345 255.293 116.507 255.593 116.69C254.876 116.737 254.18 116.947 253.557 117.304C253.548 117.311 253.541 117.32 253.537 117.33C253.532 117.34 253.53 117.351 253.53 117.362C253.531 117.373 253.536 117.383 253.543 117.392C253.55 117.401 253.56 117.407 253.57 117.411C253.802 117.508 254.025 117.626 254.236 117.762C252.923 117.971 252.191 118.398 251.968 118.625C251.96 118.636 251.955 118.649 251.955 118.663C251.955 118.677 251.96 118.69 251.968 118.701C251.976 118.712 251.987 118.72 252 118.724C252.013 118.728 252.027 118.727 252.039 118.723C252.981 118.345 255.084 118.723 255.802 119.613C255.807 119.613 255.811 119.613 255.816 119.613ZM254.361 117.833C254.896 118.2 255.333 118.691 255.633 119.266C254.659 118.586 253.459 118.309 252.285 118.492C252.927 118.142 253.633 117.925 254.361 117.851V117.833ZM255.802 117.615C255.331 117.614 254.859 117.645 254.392 117.709C254.172 117.56 253.941 117.429 253.7 117.317C254.334 116.993 255.029 116.805 255.74 116.765C256.147 117.01 256.518 117.31 256.843 117.655C256.476 117.646 256.128 117.633 255.789 117.633L255.802 117.615ZM256.847 116.596C256.468 116.596 256.11 116.596 255.776 116.641C255.452 116.439 255.115 116.259 254.767 116.103C255.274 115.645 255.904 115.344 256.579 115.235C257.068 115.658 257.517 116.126 257.918 116.632C257.543 116.623 257.186 116.614 256.847 116.614V116.596ZM258.548 114.879C257.898 114.908 257.25 114.982 256.61 115.102C256.338 114.861 256.035 114.612 255.695 114.35C256.145 114.111 256.616 113.913 257.101 113.758C257.383 113.989 257.677 114.203 257.994 114.448C258.168 114.603 258.356 114.75 258.548 114.897V114.879ZM258.994 113.229C258.363 113.302 257.74 113.433 257.133 113.62C256.711 113.284 256.334 112.896 256.012 112.463C256.213 112.414 256.749 112.281 257.392 112.103C257.885 112.536 258.42 112.919 258.99 113.246L258.994 113.229ZM259.682 111.244C259.025 111.502 258.164 111.765 257.427 111.97C256.949 111.559 256.54 111.075 256.213 110.537C257.287 111.069 258.479 111.318 259.677 111.262L259.682 111.244Z" fill="#1A1A19"/>
<path d="M258.405 113.055C258.485 113.056 258.563 113.031 258.628 112.984C258.697 112.933 258.754 112.865 258.792 112.788C258.83 112.711 258.848 112.625 258.847 112.539C258.847 112.094 258.449 111.489 257.811 110.977C257.803 110.974 257.795 110.972 257.786 110.972C257.778 110.972 257.77 110.974 257.762 110.977C257.753 110.978 257.744 110.982 257.737 110.987C257.73 110.993 257.725 111 257.722 111.009C257.562 111.317 257.505 111.667 257.559 112.009C257.613 112.352 257.775 112.668 258.021 112.913C258.127 113.005 258.263 113.056 258.405 113.055ZM257.798 111.133C258.364 111.605 258.735 112.165 258.726 112.548C258.727 112.614 258.712 112.679 258.682 112.737C258.653 112.796 258.61 112.847 258.556 112.886C258.391 113.006 258.213 112.886 258.11 112.806C257.895 112.591 257.75 112.316 257.694 112.018C257.639 111.719 257.675 111.411 257.798 111.133Z" fill="#1A1A19"/>
<path d="M256.834 112.77C256.978 112.768 257.118 112.721 257.235 112.637C257.484 112.459 257.674 112.211 257.78 111.925C257.887 111.639 257.905 111.328 257.834 111.031C257.834 111.023 257.832 111.016 257.829 111.009C257.826 111.003 257.822 110.996 257.816 110.991C257.811 110.986 257.804 110.983 257.797 110.98C257.79 110.978 257.783 110.977 257.776 110.977C257.46 110.998 257.158 111.116 256.912 111.313C256.665 111.51 256.485 111.778 256.396 112.081C256.359 112.19 256.357 112.308 256.39 112.419C256.422 112.53 256.489 112.627 256.579 112.699C256.655 112.748 256.744 112.773 256.834 112.77ZM257.726 111.102C257.785 111.369 257.764 111.647 257.664 111.902C257.565 112.157 257.393 112.377 257.168 112.535C257.1 112.598 257.013 112.638 256.92 112.649C256.827 112.66 256.733 112.642 256.651 112.597C256.517 112.512 256.472 112.339 256.521 112.107C256.598 111.84 256.753 111.601 256.967 111.422C257.181 111.243 257.444 111.131 257.722 111.102H257.726Z" fill="#1A1A19"/>
<path d="M266.743 39.1282C271.087 39.4841 272.439 39.6799 273.569 40.712C274.698 41.7441 277.988 49.8322 277.734 55.3933C277.595 58.4185 276.466 60.4828 272.247 60.5984C268.029 60.7141 263.029 59.1125 261.311 58.3028C259.592 57.4931 260.235 40.9522 261.552 39.9068C262.556 39.1282 263.918 38.8969 266.743 39.1282Z" fill="#4D4D4B"/>
<path d="M232.309 45.4368C232.285 45.4018 232.27 45.3617 232.266 45.3199C232.261 45.2781 232.267 45.2358 232.282 45.1965C232.308 45.1567 232.348 45.1269 232.393 45.112C232.502 45.0528 232.624 45.0218 232.748 45.0218C232.872 45.0218 232.994 45.0528 233.103 45.112C233.58 45.4474 234 45.8558 234.349 46.3221C234.691 46.7089 235.068 47.0648 235.473 47.3854C236.203 47.9928 237.036 48.4645 237.933 48.7779C237.808 48.333 237.598 48.0171 237.487 47.59C237.338 47.1944 237.352 46.7561 237.527 46.371C237.63 46.1708 237.893 46.0018 238.067 46.1397C238.103 46.1709 238.135 46.2068 238.161 46.2465C238.592 46.8604 239.028 47.4729 239.469 48.0838C239.881 48.5707 240.265 49.0802 240.62 49.6098C240.786 49.9123 240.946 50.1437 241.928 50.5441C242.674 50.8466 246.187 51.8787 249.071 52.6128C249.071 52.6128 252.343 46.5668 253.896 43.8841C254.375 43.0226 255.009 42.2564 255.767 41.6241C256.552 40.9968 257.396 40.6898 258.891 40.5564C259.757 40.4807 260.726 46.5979 259.842 47.8747C259.293 48.6578 256.075 53.5382 253.249 56.7058C251.762 58.3741 250.986 58.8902 249.539 58.4853C245.004 57.2352 242.111 55.3711 240.817 54.7527C239.933 54.2621 239.008 53.8469 238.054 53.5115C236.933 53.198 235.87 52.71 234.902 52.0656C234.343 51.6509 233.861 51.142 233.478 50.5619C233.274 50.2632 233.112 49.9385 232.996 49.5965C232.96 49.5122 232.948 49.4196 232.963 49.3292C232.977 49.2388 233.016 49.1541 233.076 49.0848C232.892 48.812 232.752 48.5117 232.661 48.1951C232.613 48.0877 232.596 47.9689 232.613 47.8523C232.629 47.7358 232.678 47.6263 232.755 47.5366C232.675 47.3291 232.616 47.1146 232.576 46.896C232.518 46.6202 232.438 46.4511 232.715 46.2287C232.596 45.9564 232.461 45.6919 232.309 45.4368Z" fill="#FFCDC4"/>
<path d="M237.982 49.0938C237.875 50.286 238.817 51.4961 239.625 51.9944C238.161 51.8609 237.487 50.3661 237.982 49.0938Z" fill="#FF7A62"/>
<path d="M261.199 40.3562C261.199 40.3562 267.984 40.5875 269.315 40.8367C269.609 40.8901 270.609 41.0013 270.609 41.0013C271.176 41.7798 271.899 44.3869 271.948 47.2831C271.971 48.6978 271.292 54.4547 270.98 56.2209C271.283 57.1107 273.131 61.7063 273.131 61.7063C269.377 64.9273 256.534 65.1631 254.343 61.1057C254.343 61.1057 255.164 57.7557 255.909 55.2377C255.804 54.0083 255.766 52.7741 255.798 51.5407C255.798 51.5407 254.155 50.5842 253.691 48.0616C253.499 47.0206 253.727 45.5703 255.584 43.4971C257.574 41.2727 258.865 40.5564 258.865 40.5564L261.199 40.3562Z" fill="#E2D05F"/>
<path opacity="0.8" d="M261.199 40.3562C261.199 40.3562 267.984 40.5875 269.315 40.8367C269.609 40.8901 270.609 41.0013 270.609 41.0013C271.176 41.7798 271.899 44.3869 271.948 47.2831C271.971 48.6978 271.292 54.4547 270.98 56.2209C271.283 57.1107 273.131 61.7063 273.131 61.7063C269.377 64.9273 256.534 65.1631 254.343 61.1057C254.343 61.1057 255.164 57.7557 255.909 55.2377C255.804 54.0083 255.766 52.7741 255.798 51.5407C255.798 51.5407 254.155 50.5842 253.691 48.0616C253.499 47.0206 253.727 45.5703 255.584 43.4971C257.574 41.2727 258.865 40.5564 258.865 40.5564L261.199 40.3562Z" fill="#E2D05F"/>
<path d="M255.517 56.4121C255.963 58.8012 261.123 62.6939 266.721 62.774C271.292 62.8407 272.462 60.0068 272.462 60.0068C272.957 60.702 273.281 61.5037 273.408 62.3469C272.515 64.5713 269.489 65.43 266.842 65.3543C263.378 65.252 257.231 63.775 254.789 59.0859C254.807 58.1485 255.057 57.2301 255.517 56.4121Z" fill="#4D4D4B"/>
<path d="M274.319 61.8397C274.234 61.8086 272.98 61.0879 272.841 61.0345C272.591 60.9455 269.141 63.5214 268.824 63.9307C268.61 64.2199 269.306 69.7632 269.462 70.0434C269.52 70.1413 270.882 70.7464 270.94 70.8442C271.096 71.1245 274.739 68.4908 274.957 67.9169C275.176 67.343 274.689 61.9776 274.319 61.8397Z" fill="#E2D05F"/>
<path opacity="0.18" d="M274.319 61.8397C274.234 61.8086 272.98 61.0879 272.841 61.0345C272.591 60.9455 269.141 63.5214 268.824 63.9307C268.61 64.2199 269.306 69.7632 269.462 70.0434C269.52 70.1413 270.882 70.7464 270.94 70.8442C271.096 71.1245 274.739 68.4908 274.957 67.9169C275.176 67.343 274.689 61.9776 274.319 61.8397Z" fill="#1A1A19"/>
<path d="M270.306 64.7359C270.092 65.0206 270.792 70.5683 270.949 70.8442C271.105 71.12 274.747 68.4907 274.966 67.9168C275.185 67.3429 274.703 61.9776 274.332 61.8397C274.064 61.7507 270.618 64.3266 270.306 64.7359Z" fill="#FAEA87"/>
<path opacity="0.4" d="M272.841 61.0388C272.984 61.0878 274.234 61.8085 274.314 61.8396C274.064 61.7507 270.618 64.3266 270.297 64.7359L268.824 63.9306C269.141 63.5302 272.591 60.9454 272.841 61.0388Z" fill="#1A1A19"/>
<path d="M268.833 63.9306C269.087 63.7482 269.904 64.0641 270.261 64.2999C270.618 64.5357 271.064 65.7858 271.962 65.9015C272.859 66.0171 274.046 64.8159 274.27 64.0952C274.493 63.3745 274.716 61.8708 274.27 61.4259C274.045 61.1736 273.741 61.0049 273.408 60.9475C273.074 60.8901 272.731 60.9474 272.435 61.11C271.828 61.4659 268.873 63.2855 268.833 63.9306Z" fill="#FAEA87"/>
<path opacity="0.15" d="M268.833 63.9306C269.087 63.7482 269.904 64.0641 270.261 64.2999C270.618 64.5357 271.064 65.7858 271.962 65.9015C272.859 66.0171 274.046 64.8159 274.27 64.0952C274.493 63.3745 274.716 61.8708 274.27 61.4259C274.045 61.1736 273.741 61.0049 273.408 60.9475C273.074 60.8901 272.731 60.9474 272.435 61.11C271.828 61.4659 268.873 63.2855 268.833 63.9306Z" fill="#1A1A19"/>
<path d="M272.73 64.3223C272.633 64.3864 272.556 64.4761 272.507 64.5814C272.458 64.6866 272.439 64.8033 272.453 64.9184C272.459 64.9641 272.476 65.0076 272.504 65.0444C272.532 65.0811 272.569 65.11 272.611 65.128C272.654 65.1461 272.7 65.1526 272.746 65.1471C272.792 65.1415 272.836 65.124 272.873 65.0964C272.97 65.0322 273.047 64.9425 273.096 64.8373C273.144 64.7321 273.163 64.6154 273.149 64.5002C273.147 64.453 273.131 64.4076 273.104 64.3689C273.076 64.3303 273.039 64.3 272.995 64.2815C272.951 64.263 272.903 64.257 272.857 64.2642C272.81 64.2714 272.766 64.2915 272.73 64.3223Z" fill="#4D4D4B"/>
<path d="M256.173 25.5636C258.49 22.7119 261.592 22.0935 264.489 22.7697C266.203 23.1657 267.989 24.1756 268.507 25.9818C268.807 25.974 269.105 26.0363 269.377 26.1638C269.649 26.2912 269.888 26.4803 270.074 26.7159C270.64 27.4925 270.952 28.4249 270.966 29.3852C270.966 31.8588 270.274 33.3091 268.792 34.9819C268.056 35.8183 267.266 36.7258 266.909 37.7891C266.793 38.1361 266.944 38.3141 266.493 38.3007C266.009 38.1994 265.546 38.0126 265.127 37.7491L263.476 36.9839C262.387 36.5205 261.368 35.9113 260.445 35.1732C260.111 34.946 259.804 34.6818 259.53 34.3857C259.405 34.0502 259.333 33.6976 259.315 33.3402C258.315 32.8954 257.275 32.6952 256.686 31.5607C256.271 30.718 256.175 29.7547 256.414 28.8469C256.195 29.0264 256.019 29.252 255.898 29.5073C255.776 29.7626 255.713 30.0415 255.713 30.3239C255.32 29.571 255.154 28.7207 255.236 27.8759C255.317 27.0311 255.643 26.2279 256.173 25.5636Z" fill="#4D4D4B"/>
<path d="M275.636 25.568C276.292 26.3822 276.564 27.3476 277.359 28.4331C277.67 28.8835 278.09 29.2481 278.58 29.4932C279.07 29.7382 279.614 29.8556 280.162 29.8345C280.74 29.8231 281.306 29.6722 281.812 29.3948C282.318 29.1174 282.749 28.7217 283.068 28.2418C283.108 29.8167 282.372 30.702 281.323 31.1558C282.068 31.1094 282.791 30.8921 283.438 30.5209C284.085 30.1497 284.636 29.6347 285.05 29.0159C285.381 28.5132 285.631 27.9615 285.943 27.441C287.019 25.6081 288.072 25.0698 290.264 25.4746C288.889 25.6303 288.13 26.4356 287.671 27.7391C287.211 29.0426 287.05 30.9334 286.331 32.1301C285.708 33.213 284.738 34.0559 283.577 34.5236C282.313 35.0692 280.927 35.2688 279.56 35.102C280.452 35.7426 281.568 35.7738 282.684 35.7248C281.537 36.8237 278.939 36.9082 277.225 36.2097C275.158 35.3689 274.047 33.1356 273.417 31.0001C273.216 30.1902 272.947 29.3985 272.614 28.6333C272.271 27.8637 271.663 27.2418 270.9 26.8805C269.975 26.5023 269.395 26.8805 268.627 27.2542C268.181 26.7337 267.529 26.0218 267.708 25.4746C267.942 24.9192 268.327 24.4395 268.818 24.0892C269.31 23.7388 269.89 23.5315 270.493 23.4904C271.456 23.3892 272.428 23.5258 273.325 23.8882C274.222 24.2505 275.016 24.8275 275.636 25.568Z" fill="#4D4D4B"/>
<path d="M267.074 39.3419C267.074 38.7457 267.127 35.7828 267.127 35.7828C267.364 36.1031 268.645 36.5391 269.525 35.3067C270.538 33.8875 270.377 32.8732 269.672 32.1925C269.463 32.0029 269.211 31.8667 268.937 31.7957C268.663 31.7247 268.377 31.721 268.101 31.7849C267.826 31.8488 267.57 31.9784 267.356 32.1625C267.142 32.3467 266.976 32.5799 266.873 32.8421C265.931 33.0556 265.511 31.6186 266.244 30.2573C266.194 28.5044 264.391 28.5845 263.507 26.3245C261.235 27.4901 259.141 26.538 257.704 28.2286C257.405 29.0783 257.168 30.4041 257.141 32.7753C257.106 36.6458 257.856 37.5712 258.905 38.0517C259.534 38.3364 260.306 38.4165 261.503 38.3275L261.44 39.3285C261.414 39.8268 261.44 40.0448 260.963 40.2183C260.637 40.3251 259.981 40.463 259.981 40.463C259.981 40.463 258.552 41.7976 261.663 42.2425C266.306 42.901 269.069 40.7522 269.069 40.7522C269.069 40.7522 268.65 40.6988 268.025 40.6053C267.19 40.463 267.074 39.9514 267.074 39.3419Z" fill="#FFCDC4"/>
<path d="M262.703 34.7283L261.021 35.2488C261.05 35.3608 261.102 35.4659 261.172 35.5576C261.243 35.6494 261.332 35.7259 261.433 35.7828C261.534 35.8397 261.646 35.8757 261.762 35.8886C261.877 35.9016 261.994 35.8913 262.105 35.8583C262.332 35.7836 262.521 35.6242 262.633 35.4135C262.745 35.2028 262.77 34.9572 262.703 34.7283Z" fill="#E66D57"/>
<path d="M262.592 35.1153C262.369 35.1075 262.149 35.1773 261.972 35.3129C261.794 35.4484 261.67 35.6412 261.619 35.8583C261.778 35.9052 261.947 35.9052 262.106 35.8583C262.266 35.8058 262.408 35.7103 262.518 35.5824C262.627 35.4545 262.699 35.2991 262.726 35.1331C262.682 35.1228 262.637 35.1169 262.592 35.1153Z" fill="#FF7A62"/>
<path d="M257.842 29.6565L259.182 29.523C259.177 29.4353 259.155 29.3493 259.116 29.2703C259.078 29.1914 259.023 29.1211 258.956 29.0637C258.89 29.0063 258.812 28.963 258.728 28.9364C258.644 28.9098 258.555 28.9005 258.467 28.9091C258.288 28.9324 258.124 29.0223 258.008 29.1608C257.892 29.2994 257.833 29.4764 257.842 29.6565Z" fill="#4D4D4B"/>
<path d="M264.23 29.7945L262.891 29.5186C262.905 29.4307 262.937 29.3464 262.984 29.2709C263.032 29.1955 263.094 29.1304 263.167 29.0797C263.241 29.029 263.324 28.9936 263.411 28.9758C263.499 28.9579 263.589 28.958 263.677 28.9759C263.856 29.0165 264.013 29.1238 264.116 29.2759C264.219 29.428 264.26 29.6134 264.23 29.7945Z" fill="#4D4D4B"/>
<path d="M259.36 31.3605C259.369 31.5096 259.32 31.6564 259.222 31.77C259.125 31.8836 258.987 31.9553 258.838 31.97C258.765 31.9779 258.691 31.9711 258.621 31.9499C258.551 31.9287 258.485 31.8936 258.429 31.8466C258.373 31.7997 258.327 31.7419 258.293 31.6767C258.26 31.6115 258.24 31.5402 258.235 31.4672C258.227 31.3174 258.277 31.17 258.375 31.0563C258.473 30.9425 258.612 30.8713 258.762 30.8577C258.835 30.8504 258.908 30.8577 258.978 30.8792C259.048 30.9007 259.112 30.9359 259.168 30.9828C259.224 31.0297 259.27 31.0873 259.303 31.1522C259.336 31.2171 259.355 31.2879 259.36 31.3605Z" fill="#4D4D4B"/>
<path d="M263.445 31.4983C263.454 31.6456 263.405 31.7906 263.31 31.9033C263.214 32.016 263.079 32.0876 262.931 32.1034C262.859 32.1113 262.785 32.1045 262.715 32.0832C262.645 32.062 262.58 32.0268 262.524 31.9798C262.468 31.9328 262.422 31.8749 262.39 31.8098C262.357 31.7446 262.338 31.6734 262.333 31.6006C262.325 31.452 262.374 31.3057 262.472 31.1928C262.569 31.0799 262.707 31.0092 262.856 30.9956C262.927 30.9895 263 30.9978 263.069 31.0198C263.137 31.0419 263.201 31.0773 263.256 31.1241C263.31 31.1709 263.355 31.228 263.388 31.2923C263.42 31.3565 263.44 31.4266 263.445 31.4983Z" fill="#4D4D4B"/>
<path d="M258.789 33.18L260.655 33.9986L261.182 30.3149L258.789 33.18Z" fill="#FF7A62"/>
<path d="M261.489 38.3319C263.641 38.1362 265.703 37.4422 266.194 36.4812C266.184 36.7948 266.097 37.1012 265.942 37.374C265.786 37.6468 265.567 37.8779 265.302 38.0472C264.074 38.7546 261.427 39.0882 261.427 39.0882L261.489 38.3319Z" fill="#FF7A62"/>
<path d="M268.136 40.583C266.463 42.5064 265.516 44.9515 265.458 47.4966C265.012 58.6588 272.239 58.7789 272.239 58.7789C272.215 58.0341 272.083 57.2967 271.846 56.59C271.846 56.59 267.418 53.6049 267.632 47.9059C267.788 43.8396 269.583 41.3171 270.6 41.0012C269.791 40.8019 268.967 40.6621 268.136 40.583Z" fill="#4D4D4B"/>
<path d="M279.738 61.3681C277.417 61.506 276.778 61.248 275.332 60.5139C274.165 59.915 273.048 59.2263 271.989 58.4541C271.622 58.1916 271.261 57.9202 270.886 57.6711C270.072 57.0889 269.221 56.5613 268.337 56.0918C267.286 55.6598 266.211 55.287 265.118 54.9751C264.498 54.7527 264.226 54.5747 264.034 54.1387C263.895 53.8095 263.538 52.804 263.378 52.2479C263.154 51.4427 263.409 51.1268 263.721 51.0112C263.721 50.4372 263.306 49.4363 264.208 49.196C264.166 48.9367 264.166 48.6723 264.208 48.413C264.252 47.7902 264.61 47.5766 265.48 47.4965V48.6266C265.48 49.4007 267.199 50.4728 267.895 50.4506C267.785 49.9499 267.716 49.441 267.69 48.9291C268.095 49.2178 268.457 49.5623 268.766 49.9523C269.033 50.326 269.507 51.5272 269.917 51.9365C270.328 52.3458 273.466 53.5025 273.466 53.5025C273.466 53.5025 273.046 52.8307 271.855 50.8821C269.542 47.1006 269.176 42.0823 270.64 41.0012C272.792 40.9078 274.805 42.0289 276.595 45.1698C278.51 48.542 280.582 52.0344 281.765 55.7047C283.398 60.861 281.626 61.2569 279.738 61.3681Z" fill="#FFCDC4"/>
<path d="M273.435 53.5026C275.221 54.1566 279.14 54.3923 280.055 55.985C280.055 55.985 279.921 54.508 277.377 53.8451C275.082 53.249 272.913 52.6128 272.913 52.6128L273.435 53.5026Z" fill="#FF7A62"/>
<defs>
<filter id="filter0_d_265_2535" x="0" y="0.982178" width="353" height="252" filterUnits="userSpaceOnUse" color-interpolation-filters="sRGB">
<feFlood flood-opacity="0" result="BackgroundImageFix"/>
<feColorMatrix in="SourceAlpha" type="matrix" values="0 0 0 0 0 0 0 0 0 0 0 0 0 0 0 0 0 0 127 0" result="hardAlpha"/>
<feOffset/>
<feGaussianBlur stdDeviation="4"/>
<feComposite in2="hardAlpha" operator="out"/>
<feColorMatrix type="matrix" values="0 0 0 0 0 0 0 0 0 0 0 0 0 0 0 0 0 0 0.08 0"/>
<feBlend mode="normal" in2="BackgroundImageFix" result="effect1_dropShadow_265_2535"/>
<feBlend mode="normal" in="SourceGraphic" in2="effect1_dropShadow_265_2535" result="shape"/>
</filter>
<filter id="filter1_bii_265_2535" x="-27.4886" y="-26.5064" width="407.977" height="306.977" filterUnits="userSpaceOnUse" color-interpolation-filters="sRGB">
<feFlood flood-opacity="0" result="BackgroundImageFix"/>
<feGaussianBlur in="BackgroundImageFix" stdDeviation="17"/>
<feComposite in2="SourceAlpha" operator="in" result="effect1_backgroundBlur_265_2535"/>
<feBlend mode="normal" in="SourceGraphic" in2="effect1_backgroundBlur_265_2535" result="shape"/>
<feColorMatrix in="SourceAlpha" type="matrix" values="0 0 0 0 0 0 0 0 0 0 0 0 0 0 0 0 0 0 127 0" result="hardAlpha"/>
<feOffset dx="-35.4886" dy="35.4886"/>
<feGaussianBlur stdDeviation="17.7443"/>
<feComposite in2="hardAlpha" operator="arithmetic" k2="-1" k3="1"/>
<feColorMatrix type="matrix" values="0 0 0 0 1 0 0 0 0 1 0 0 0 0 1 0 0 0 0.066 0"/>
<feBlend mode="normal" in2="shape" result="effect2_innerShadow_265_2535"/>
<feColorMatrix in="SourceAlpha" type="matrix" values="0 0 0 0 0 0 0 0 0 0 0 0 0 0 0 0 0 0 127 0" result="hardAlpha"/>
<feOffset dx="35.4886" dy="-35.4886"/>
<feGaussianBlur stdDeviation="17.7443"/>
<feComposite in2="hardAlpha" operator="arithmetic" k2="-1" k3="1"/>
<feColorMatrix type="matrix" values="0 0 0 0 0.76 0 0 0 0 0.76 0 0 0 0 0.76 0 0 0 0.066 0"/>
<feBlend mode="normal" in2="effect2_innerShadow_265_2535" result="effect3_innerShadow_265_2535"/>
</filter>
<linearGradient id="paint0_linear_265_2535" x1="101.682" y1="-31.3166" x2="230.787" y2="280.659" gradientUnits="userSpaceOnUse">
<stop offset="0.333333" stop-color="#FF7A62"/>
<stop offset="0.880208" stop-color="#FCEB7D"/>
</linearGradient>
</defs>
</svg>
