<svg width="16" height="16" viewBox="0 0 16 16" fill="none" xmlns="http://www.w3.org/2000/svg">
<path d="M8 7.26667V13.6667M8 7.26667C8 5.77319 8 5.02646 7.70935 4.45603C7.45369 3.95426 7.04574 3.54631 6.54397 3.29065C5.97354 3 5.22681 3 3.73333 3H3.06667C2.6933 3 2.50661 3 2.36401 3.07266C2.23856 3.13658 2.13658 3.23856 2.07266 3.36401C2 3.50661 2 3.6933 2 4.06667V11.2667C2 11.64 2 11.8267 2.07266 11.9693C2.13658 12.0948 2.23856 12.1968 2.36401 12.2607C2.50661 12.3333 2.6933 12.3333 3.06667 12.3333H5.03112C5.39124 12.3333 5.57131 12.3333 5.74542 12.3644C5.89997 12.3919 6.05073 12.4376 6.1946 12.5004C6.35669 12.5711 6.50651 12.671 6.80616 12.8708L8 13.6667M8 7.26667C8 5.77319 8 5.02646 8.29065 4.45603C8.54631 3.95426 8.95426 3.54631 9.45603 3.29065C10.0265 3 10.7732 3 12.2667 3H12.9333C13.3067 3 13.4934 3 13.636 3.07266C13.7614 3.13658 13.8634 3.23856 13.9273 3.36401C14 3.50661 14 3.6933 14 4.06667V11.2667C14 11.64 14 11.8267 13.9273 11.9693C13.8634 12.0948 13.7614 12.1968 13.636 12.2607C13.4934 12.3333 13.3067 12.3333 12.9333 12.3333H10.9689C10.6088 12.3333 10.4287 12.3333 10.2546 12.3644C10.1 12.3919 9.94927 12.4376 9.8054 12.5004C9.64331 12.5711 9.49349 12.671 9.19384 12.8708L8 13.6667" stroke="#1A1A19" stroke-linecap="round" stroke-linejoin="round"/>
</svg>
