<svg width="315" height="31" viewBox="0 0 315 31" fill="none" xmlns="http://www.w3.org/2000/svg">
<path d="M7.02578 25.7C6.09245 25.7 5.27911 25.56 4.58578 25.28C3.90578 25 3.37245 24.6067 2.98578 24.1C2.61245 23.5933 2.42578 23.0067 2.42578 22.34C2.42578 21.7933 2.51245 21.3267 2.68578 20.94C2.87245 20.54 3.10578 20.1933 3.38578 19.9C3.66578 19.6067 3.95245 19.3333 4.24578 19.08C4.55245 18.8133 4.84578 18.5467 5.12578 18.28C5.41911 18.0133 5.65245 17.7133 5.82578 17.38C5.99911 17.0467 6.08578 16.6533 6.08578 16.2H7.56578C7.56578 16.72 7.47245 17.1733 7.28578 17.56C7.11245 17.9333 6.88578 18.2733 6.60578 18.58C6.33911 18.8733 6.04578 19.1533 5.72578 19.42C5.41911 19.6733 5.12578 19.9333 4.84578 20.2C4.57911 20.4667 4.35245 20.76 4.16578 21.08C3.99245 21.4 3.90578 21.7667 3.90578 22.18C3.90578 22.8067 4.18578 23.34 4.74578 23.78C5.30578 24.22 6.09911 24.44 7.12578 24.44C7.97911 24.44 8.71911 24.3 9.34578 24.02C9.97245 23.7533 10.5058 23.3533 10.9458 22.82L12.0058 23.62C11.4724 24.2733 10.7858 24.78 9.94578 25.14C9.11912 25.5133 8.14578 25.7 7.02578 25.7ZM6.82578 13.96C6.53245 13.96 6.28578 13.86 6.08578 13.66C5.88578 13.46 5.78578 13.22 5.78578 12.94C5.78578 12.6467 5.88578 12.4 6.08578 12.2C6.28578 12 6.53245 11.9 6.82578 11.9C7.11911 11.9 7.36578 12 7.56578 12.2C7.76578 12.4 7.86578 12.6467 7.86578 12.94C7.86578 13.22 7.76578 13.46 7.56578 13.66C7.36578 13.86 7.11911 13.96 6.82578 13.96ZM14.5534 22.5V8.5H15.7734L25.4334 20.66H24.7934V8.5H26.2534V22.5H25.0334L15.3934 10.34H16.0334V22.5H14.5534ZM34.803 22.6C33.7896 22.6 32.8763 22.3733 32.063 21.92C31.263 21.4533 30.6296 20.82 30.163 20.02C29.6963 19.2067 29.463 18.28 29.463 17.24C29.463 16.1867 29.6963 15.26 30.163 14.46C30.6296 13.66 31.263 13.0333 32.063 12.58C32.863 12.1267 33.7763 11.9 34.803 11.9C35.843 11.9 36.763 12.1267 37.563 12.58C38.3763 13.0333 39.0096 13.66 39.463 14.46C39.9296 15.26 40.163 16.1867 40.163 17.24C40.163 18.28 39.9296 19.2067 39.463 20.02C39.0096 20.82 38.3763 21.4533 37.563 21.92C36.7496 22.3733 35.8296 22.6 34.803 22.6ZM34.803 21.34C35.563 21.34 36.2363 21.1733 36.823 20.84C37.4096 20.4933 37.8696 20.0133 38.203 19.4C38.5496 18.7733 38.723 18.0533 38.723 17.24C38.723 16.4133 38.5496 15.6933 38.203 15.08C37.8696 14.4667 37.4096 13.9933 36.823 13.66C36.2363 13.3133 35.5696 13.14 34.823 13.14C34.0763 13.14 33.4096 13.3133 32.823 13.66C32.2363 13.9933 31.7696 14.4667 31.423 15.08C31.0763 15.6933 30.903 16.4133 30.903 17.24C30.903 18.0533 31.0763 18.7733 31.423 19.4C31.7696 20.0133 32.2363 20.4933 32.823 20.84C33.4096 21.1733 34.0696 21.34 34.803 21.34ZM51.6164 22.6C50.6297 22.6 49.8697 22.3333 49.3364 21.8C48.8031 21.2667 48.5364 20.5133 48.5364 19.54V9.68H49.9564V19.46C49.9564 20.0733 50.1097 20.5467 50.4164 20.88C50.7364 21.2133 51.1897 21.38 51.7764 21.38C52.4031 21.38 52.9231 21.2 53.3364 20.84L53.8364 21.86C53.5564 22.1133 53.2164 22.3 52.8164 22.42C52.4297 22.54 52.0297 22.6 51.6164 22.6ZM46.6564 13.18V12H53.1564V13.18H46.6564ZM56.4214 22.5V12H57.8414V22.5H56.4214ZM57.1414 9.68C56.8481 9.68 56.6014 9.58 56.4014 9.38C56.2014 9.18 56.1014 8.94 56.1014 8.66C56.1014 8.38 56.2014 8.14667 56.4014 7.96C56.6014 7.76 56.8481 7.66 57.1414 7.66C57.4347 7.66 57.6814 7.75333 57.8814 7.94C58.0814 8.12667 58.1814 8.36 58.1814 8.64C58.1814 8.93333 58.0814 9.18 57.8814 9.38C57.6947 9.58 57.4481 9.68 57.1414 9.68ZM66.2525 22.6C65.1592 22.6 64.1992 22.3733 63.3725 21.92C62.5458 21.4533 61.8992 20.82 61.4325 20.02C60.9658 19.2067 60.7325 18.28 60.7325 17.24C60.7325 16.2 60.9525 15.28 61.3925 14.48C61.8458 13.68 62.4592 13.0533 63.2325 12.6C64.0192 12.1333 64.8992 11.9 65.8725 11.9C66.8592 11.9 67.7325 12.1267 68.4925 12.58C69.2658 13.02 69.8725 13.6467 70.3125 14.46C70.7525 15.26 70.9725 16.1867 70.9725 17.24C70.9725 17.3067 70.9658 17.38 70.9525 17.46C70.9525 17.5267 70.9525 17.6 70.9525 17.68H61.8125V16.62H70.1925L69.6325 17.04C69.6325 16.28 69.4658 15.6067 69.1325 15.02C68.8125 14.42 68.3725 13.9533 67.8125 13.62C67.2525 13.2867 66.6058 13.12 65.8725 13.12C65.1525 13.12 64.5058 13.2867 63.9325 13.62C63.3592 13.9533 62.9125 14.42 62.5925 15.02C62.2725 15.62 62.1125 16.3067 62.1125 17.08V17.3C62.1125 18.1 62.2858 18.8067 62.6325 19.42C62.9925 20.02 63.4858 20.4933 64.1125 20.84C64.7525 21.1733 65.4792 21.34 66.2925 21.34C66.9325 21.34 67.5258 21.2267 68.0725 21C68.6325 20.7733 69.1125 20.4267 69.5125 19.96L70.3125 20.88C69.8458 21.44 69.2592 21.8667 68.5525 22.16C67.8592 22.4533 67.0925 22.6 66.2525 22.6ZM79.2228 11.9C80.0761 11.9 80.8228 12.0667 81.4628 12.4C82.1161 12.72 82.6228 13.2133 82.9828 13.88C83.3561 14.5467 83.5428 15.3867 83.5428 16.4V22.5H82.1228V16.54C82.1228 15.4333 81.8428 14.6 81.2828 14.04C80.7361 13.4667 79.9628 13.18 78.9628 13.18C78.2161 13.18 77.5628 13.3333 77.0028 13.64C76.4561 13.9333 76.0295 14.3667 75.7228 14.94C75.4295 15.5 75.2828 16.18 75.2828 16.98V22.5H73.8628V12H75.2228V14.88L75.0028 14.34C75.3361 13.58 75.8695 12.9867 76.6028 12.56C77.3361 12.12 78.2095 11.9 79.2228 11.9ZM91.8384 22.6C90.7451 22.6 89.7851 22.3733 88.9584 21.92C88.1318 21.4533 87.4851 20.82 87.0184 20.02C86.5518 19.2067 86.3184 18.28 86.3184 17.24C86.3184 16.2 86.5384 15.28 86.9784 14.48C87.4318 13.68 88.0451 13.0533 88.8184 12.6C89.6051 12.1333 90.4851 11.9 91.4584 11.9C92.4451 11.9 93.3184 12.1267 94.0784 12.58C94.8518 13.02 95.4584 13.6467 95.8984 14.46C96.3384 15.26 96.5584 16.1867 96.5584 17.24C96.5584 17.3067 96.5518 17.38 96.5384 17.46C96.5384 17.5267 96.5384 17.6 96.5384 17.68H87.3984V16.62H95.7784L95.2184 17.04C95.2184 16.28 95.0518 15.6067 94.7184 15.02C94.3984 14.42 93.9584 13.9533 93.3984 13.62C92.8384 13.2867 92.1918 13.12 91.4584 13.12C90.7384 13.12 90.0918 13.2867 89.5184 13.62C88.9451 13.9533 88.4984 14.42 88.1784 15.02C87.8584 15.62 87.6984 16.3067 87.6984 17.08V17.3C87.6984 18.1 87.8718 18.8067 88.2184 19.42C88.5784 20.02 89.0718 20.4933 89.6984 20.84C90.3384 21.1733 91.0651 21.34 91.8784 21.34C92.5184 21.34 93.1118 21.2267 93.6584 21C94.2184 20.7733 94.6984 20.4267 95.0984 19.96L95.8984 20.88C95.4318 21.44 94.8451 21.8667 94.1384 22.16C93.4451 22.4533 92.6784 22.6 91.8384 22.6ZM102.269 22.6C101.402 22.6 100.582 22.48 99.8088 22.24C99.0354 21.9867 98.4288 21.6733 97.9888 21.3L98.6288 20.18C99.0554 20.5 99.6021 20.78 100.269 21.02C100.935 21.2467 101.635 21.36 102.369 21.36C103.369 21.36 104.089 21.2067 104.529 20.9C104.969 20.58 105.189 20.16 105.189 19.64C105.189 19.2533 105.062 18.9533 104.809 18.74C104.569 18.5133 104.249 18.3467 103.849 18.24C103.449 18.12 103.002 18.02 102.509 17.94C102.015 17.86 101.522 17.7667 101.029 17.66C100.549 17.5533 100.109 17.4 99.7088 17.2C99.3088 16.9867 98.9821 16.7 98.7288 16.34C98.4888 15.98 98.3688 15.5 98.3688 14.9C98.3688 14.3267 98.5288 13.8133 98.8488 13.36C99.1688 12.9067 99.6354 12.5533 100.249 12.3C100.875 12.0333 101.635 11.9 102.529 11.9C103.209 11.9 103.889 11.9933 104.569 12.18C105.249 12.3533 105.809 12.5867 106.249 12.88L105.629 14.02C105.162 13.7 104.662 13.4733 104.129 13.34C103.595 13.1933 103.062 13.12 102.529 13.12C101.582 13.12 100.882 13.2867 100.429 13.62C99.9888 13.94 99.7688 14.3533 99.7688 14.86C99.7688 15.26 99.8888 15.5733 100.129 15.8C100.382 16.0267 100.709 16.2067 101.109 16.34C101.522 16.46 101.969 16.56 102.449 16.64C102.942 16.72 103.429 16.82 103.909 16.94C104.402 17.0467 104.849 17.2 105.249 17.4C105.662 17.5867 105.989 17.86 106.229 18.22C106.482 18.5667 106.609 19.0267 106.609 19.6C106.609 20.2133 106.435 20.7467 106.089 21.2C105.755 21.64 105.262 21.9867 104.609 22.24C103.969 22.48 103.189 22.6 102.269 22.6ZM118.809 22.6C117.769 22.6 116.835 22.3733 116.009 21.92C115.195 21.4533 114.555 20.82 114.089 20.02C113.622 19.2067 113.389 18.28 113.389 17.24C113.389 16.1867 113.622 15.26 114.089 14.46C114.555 13.66 115.195 13.0333 116.009 12.58C116.835 12.1267 117.769 11.9 118.809 11.9C119.702 11.9 120.509 12.0733 121.229 12.42C121.949 12.7667 122.515 13.2867 122.929 13.98L121.869 14.7C121.509 14.1667 121.062 13.7733 120.529 13.52C119.995 13.2667 119.415 13.14 118.789 13.14C118.042 13.14 117.369 13.3133 116.769 13.66C116.169 13.9933 115.695 14.4667 115.349 15.08C115.002 15.6933 114.829 16.4133 114.829 17.24C114.829 18.0667 115.002 18.7867 115.349 19.4C115.695 20.0133 116.169 20.4933 116.769 20.84C117.369 21.1733 118.042 21.34 118.789 21.34C119.415 21.34 119.995 21.2133 120.529 20.96C121.062 20.7067 121.509 20.32 121.869 19.8L122.929 20.52C122.515 21.2 121.949 21.72 121.229 22.08C120.509 22.4267 119.702 22.6 118.809 22.6ZM130.058 22.6C129.165 22.6 128.385 22.4333 127.718 22.1C127.052 21.7667 126.532 21.2667 126.158 20.6C125.798 19.9333 125.618 19.1 125.618 18.1V12H127.038V17.94C127.038 19.06 127.312 19.9067 127.858 20.48C128.418 21.04 129.198 21.32 130.198 21.32C130.932 21.32 131.565 21.1733 132.098 20.88C132.645 20.5733 133.058 20.1333 133.338 19.56C133.632 18.9867 133.778 18.3 133.778 17.5V12H135.198V22.5H133.838V19.62L134.058 20.14C133.725 20.9133 133.205 21.52 132.498 21.96C131.805 22.3867 130.992 22.6 130.058 22.6ZM143.616 22.6C142.522 22.6 141.562 22.3733 140.736 21.92C139.909 21.4533 139.262 20.82 138.796 20.02C138.329 19.2067 138.096 18.28 138.096 17.24C138.096 16.2 138.316 15.28 138.756 14.48C139.209 13.68 139.822 13.0533 140.596 12.6C141.382 12.1333 142.262 11.9 143.236 11.9C144.222 11.9 145.096 12.1267 145.856 12.58C146.629 13.02 147.236 13.6467 147.676 14.46C148.116 15.26 148.336 16.1867 148.336 17.24C148.336 17.3067 148.329 17.38 148.316 17.46C148.316 17.5267 148.316 17.6 148.316 17.68H139.176V16.62H147.556L146.996 17.04C146.996 16.28 146.829 15.6067 146.496 15.02C146.176 14.42 145.736 13.9533 145.176 13.62C144.616 13.2867 143.969 13.12 143.236 13.12C142.516 13.12 141.869 13.2867 141.296 13.62C140.722 13.9533 140.276 14.42 139.956 15.02C139.636 15.62 139.476 16.3067 139.476 17.08V17.3C139.476 18.1 139.649 18.8067 139.996 19.42C140.356 20.02 140.849 20.4933 141.476 20.84C142.116 21.1733 142.842 21.34 143.656 21.34C144.296 21.34 144.889 21.2267 145.436 21C145.996 20.7733 146.476 20.4267 146.876 19.96L147.676 20.88C147.209 21.44 146.622 21.8667 145.916 22.16C145.222 22.4533 144.456 22.6 143.616 22.6ZM156.586 11.9C157.439 11.9 158.186 12.0667 158.826 12.4C159.479 12.72 159.986 13.2133 160.346 13.88C160.719 14.5467 160.906 15.3867 160.906 16.4V22.5H159.486V16.54C159.486 15.4333 159.206 14.6 158.646 14.04C158.099 13.4667 157.326 13.18 156.326 13.18C155.579 13.18 154.926 13.3333 154.366 13.64C153.819 13.9333 153.393 14.3667 153.086 14.94C152.793 15.5 152.646 16.18 152.646 16.98V22.5H151.226V12H152.586V14.88L152.366 14.34C152.699 13.58 153.233 12.9867 153.966 12.56C154.699 12.12 155.573 11.9 156.586 11.9ZM168.062 22.6C167.075 22.6 166.315 22.3333 165.782 21.8C165.248 21.2667 164.982 20.5133 164.982 19.54V9.68H166.402V19.46C166.402 20.0733 166.555 20.5467 166.862 20.88C167.182 21.2133 167.635 21.38 168.222 21.38C168.848 21.38 169.368 21.2 169.782 20.84L170.282 21.86C170.002 22.1133 169.662 22.3 169.262 22.42C168.875 22.54 168.475 22.6 168.062 22.6ZM163.102 13.18V12H169.602V13.18H163.102ZM179.447 22.5V20.18L179.387 19.8V15.92C179.387 15.0267 179.133 14.34 178.627 13.86C178.133 13.38 177.393 13.14 176.407 13.14C175.727 13.14 175.08 13.2533 174.467 13.48C173.853 13.7067 173.333 14.0067 172.907 14.38L172.267 13.32C172.8 12.8667 173.44 12.52 174.187 12.28C174.933 12.0267 175.72 11.9 176.547 11.9C177.907 11.9 178.953 12.24 179.687 12.92C180.433 13.5867 180.807 14.6067 180.807 15.98V22.5H179.447ZM175.827 22.6C175.04 22.6 174.353 22.4733 173.767 22.22C173.193 21.9533 172.753 21.5933 172.447 21.14C172.14 20.6733 171.987 20.14 171.987 19.54C171.987 18.9933 172.113 18.5 172.367 18.06C172.633 17.6067 173.06 17.2467 173.647 16.98C174.247 16.7 175.047 16.56 176.047 16.56H179.667V17.62H176.087C175.073 17.62 174.367 17.8 173.967 18.16C173.58 18.52 173.387 18.9667 173.387 19.5C173.387 20.1 173.62 20.58 174.087 20.94C174.553 21.3 175.207 21.48 176.047 21.48C176.847 21.48 177.533 21.3 178.107 20.94C178.693 20.5667 179.12 20.0333 179.387 19.34L179.707 20.32C179.44 21.0133 178.973 21.5667 178.307 21.98C177.653 22.3933 176.827 22.6 175.827 22.6ZM186.427 18.3C186.427 17.74 186.513 17.26 186.687 16.86C186.873 16.46 187.1 16.1067 187.367 15.8C187.647 15.4933 187.94 15.2067 188.247 14.94C188.567 14.6733 188.867 14.4067 189.147 14.14C189.427 13.86 189.653 13.56 189.827 13.24C190 12.9067 190.087 12.52 190.087 12.08C190.087 11.36 189.807 10.7733 189.247 10.32C188.687 9.86667 187.893 9.64 186.867 9.64C186.013 9.64 185.273 9.78 184.647 10.06C184.02 10.3267 183.487 10.7267 183.047 11.26L181.987 10.46C182.52 9.79333 183.207 9.28 184.047 8.92C184.887 8.56 185.86 8.38 186.967 8.38C187.9 8.38 188.707 8.52 189.387 8.8C190.08 9.08 190.613 9.48 190.987 10C191.373 10.52 191.567 11.14 191.567 11.86C191.567 12.4333 191.473 12.9267 191.287 13.34C191.113 13.74 190.887 14.1 190.607 14.42C190.34 14.7267 190.047 15.02 189.727 15.3C189.42 15.5667 189.127 15.84 188.847 16.12C188.567 16.4 188.34 16.7133 188.167 17.06C187.993 17.4067 187.907 17.82 187.907 18.3H186.427ZM187.167 22.6C186.887 22.6 186.64 22.5 186.427 22.3C186.227 22.0867 186.127 21.84 186.127 21.56C186.127 21.2667 186.227 21.0267 186.427 20.84C186.64 20.64 186.887 20.54 187.167 20.54C187.473 20.54 187.727 20.64 187.927 20.84C188.127 21.0267 188.227 21.2667 188.227 21.56C188.227 21.84 188.127 22.0867 187.927 22.3C187.727 22.5 187.473 22.6 187.167 22.6Z" fill="#1A1A19"/>
<path d="M210.499 22.5V8.5H216.259C217.499 8.5 218.559 8.7 219.439 9.1C220.332 9.5 221.019 10.0733 221.499 10.82C221.979 11.5667 222.219 12.4533 222.219 13.48C222.219 14.5067 221.979 15.3933 221.499 16.14C221.019 16.8733 220.332 17.44 219.439 17.84C218.559 18.2267 217.499 18.42 216.259 18.42H211.939L213.099 17.24V22.5H210.499ZM219.659 22.5L216.119 17.42H218.899L222.459 22.5H219.659ZM213.099 17.52L211.939 16.28H216.139C217.286 16.28 218.146 16.0333 218.719 15.54C219.306 15.0467 219.599 14.36 219.599 13.48C219.599 12.5867 219.306 11.9 218.719 11.42C218.146 10.94 217.286 10.7 216.139 10.7H211.939L213.099 9.42V17.52ZM229.908 22.64C228.721 22.64 227.681 22.4067 226.788 21.94C225.908 21.46 225.221 20.8067 224.728 19.98C224.248 19.1533 224.008 18.2133 224.008 17.16C224.008 16.0933 224.241 15.1533 224.708 14.34C225.188 13.5133 225.841 12.8667 226.668 12.4C227.508 11.9333 228.461 11.7 229.528 11.7C230.568 11.7 231.495 11.9267 232.308 12.38C233.121 12.8333 233.761 13.4733 234.228 14.3C234.695 15.1267 234.928 16.1 234.928 17.22C234.928 17.3267 234.921 17.4467 234.908 17.58C234.908 17.7133 234.901 17.84 234.888 17.96H225.988V16.3H233.568L232.588 16.82C232.601 16.2067 232.475 15.6667 232.208 15.2C231.941 14.7333 231.575 14.3667 231.108 14.1C230.655 13.8333 230.128 13.7 229.528 13.7C228.915 13.7 228.375 13.8333 227.908 14.1C227.455 14.3667 227.095 14.74 226.828 15.22C226.575 15.6867 226.448 16.24 226.448 16.88V17.28C226.448 17.92 226.595 18.4867 226.888 18.98C227.181 19.4733 227.595 19.8533 228.128 20.12C228.661 20.3867 229.275 20.52 229.968 20.52C230.568 20.52 231.108 20.4267 231.588 20.24C232.068 20.0533 232.495 19.76 232.868 19.36L234.208 20.9C233.728 21.46 233.121 21.8933 232.388 22.2C231.668 22.4933 230.841 22.64 229.908 22.64ZM242.169 26.52C241.183 26.52 240.216 26.3867 239.269 26.12C238.336 25.8667 237.569 25.4933 236.969 25L238.089 23.12C238.556 23.5067 239.143 23.8133 239.849 24.04C240.569 24.28 241.296 24.4 242.029 24.4C243.203 24.4 244.063 24.1267 244.609 23.58C245.156 23.0467 245.429 22.24 245.429 21.16V19.26L245.629 16.84L245.549 14.42V11.82H247.929V20.88C247.929 22.8133 247.436 24.2333 246.449 25.14C245.463 26.06 244.036 26.52 242.169 26.52ZM241.849 22.02C240.836 22.02 239.916 21.8067 239.089 21.38C238.276 20.94 237.629 20.3333 237.149 19.56C236.683 18.7867 236.449 17.88 236.449 16.84C236.449 15.8133 236.683 14.9133 237.149 14.14C237.629 13.3667 238.276 12.7667 239.089 12.34C239.916 11.9133 240.836 11.7 241.849 11.7C242.756 11.7 243.569 11.88 244.289 12.24C245.009 12.6 245.583 13.16 246.009 13.92C246.449 14.68 246.669 15.6533 246.669 16.84C246.669 18.0267 246.449 19.0067 246.009 19.78C245.583 20.54 245.009 21.1067 244.289 21.48C243.569 21.84 242.756 22.02 241.849 22.02ZM242.229 19.9C242.856 19.9 243.416 19.7733 243.909 19.52C244.403 19.2533 244.783 18.8933 245.049 18.44C245.329 17.9733 245.469 17.44 245.469 16.84C245.469 16.24 245.329 15.7133 245.049 15.26C244.783 14.7933 244.403 14.44 243.909 14.2C243.416 13.9467 242.856 13.82 242.229 13.82C241.603 13.82 241.036 13.9467 240.529 14.2C240.036 14.44 239.649 14.7933 239.369 15.26C239.103 15.7133 238.969 16.24 238.969 16.84C238.969 17.44 239.103 17.9733 239.369 18.44C239.649 18.8933 240.036 19.2533 240.529 19.52C241.036 19.7733 241.603 19.9 242.229 19.9ZM251.216 22.5V11.82H253.716V22.5H251.216ZM250.796 10.36L253.496 7.62H256.436L252.956 10.36H250.796ZM260.297 22.64C259.404 22.64 258.544 22.5267 257.717 22.3C256.904 22.06 256.257 21.7733 255.777 21.44L256.737 19.54C257.217 19.8467 257.791 20.1 258.457 20.3C259.124 20.5 259.791 20.6 260.457 20.6C261.244 20.6 261.811 20.4933 262.157 20.28C262.517 20.0667 262.697 19.78 262.697 19.42C262.697 19.1267 262.577 18.9067 262.337 18.76C262.097 18.6 261.784 18.48 261.397 18.4C261.011 18.32 260.577 18.2467 260.097 18.18C259.631 18.1133 259.157 18.0267 258.677 17.92C258.211 17.8 257.784 17.6333 257.397 17.42C257.011 17.1933 256.697 16.8933 256.457 16.52C256.217 16.1467 256.097 15.6533 256.097 15.04C256.097 14.36 256.291 13.7733 256.677 13.28C257.064 12.7733 257.604 12.3867 258.297 12.12C259.004 11.84 259.837 11.7 260.797 11.7C261.517 11.7 262.244 11.78 262.977 11.94C263.711 12.1 264.317 12.3267 264.797 12.62L263.837 14.52C263.331 14.2133 262.817 14.0067 262.297 13.9C261.791 13.78 261.284 13.72 260.777 13.72C260.017 13.72 259.451 13.8333 259.077 14.06C258.717 14.2867 258.537 14.5733 258.537 14.92C258.537 15.24 258.657 15.48 258.897 15.64C259.137 15.8 259.451 15.9267 259.837 16.02C260.224 16.1133 260.651 16.1933 261.117 16.26C261.597 16.3133 262.071 16.4 262.537 16.52C263.004 16.64 263.431 16.8067 263.817 17.02C264.217 17.22 264.537 17.5067 264.777 17.88C265.017 18.2533 265.137 18.74 265.137 19.34C265.137 20.0067 264.937 20.5867 264.537 21.08C264.151 21.5733 263.597 21.96 262.877 22.24C262.157 22.5067 261.297 22.64 260.297 22.64ZM271.31 22.64C270.137 22.64 269.23 22.34 268.59 21.74C267.95 21.1267 267.63 20.2267 267.63 19.04V9.46H270.13V18.98C270.13 19.4867 270.257 19.88 270.51 20.16C270.777 20.44 271.144 20.58 271.61 20.58C272.17 20.58 272.637 20.4333 273.01 20.14L273.71 21.92C273.417 22.16 273.057 22.34 272.63 22.46C272.204 22.58 271.764 22.64 271.31 22.64ZM265.87 13.9V11.9H272.99V13.9H265.87ZM275.767 22.5V11.82H278.147V14.76L277.867 13.9C278.187 13.18 278.687 12.6333 279.367 12.26C280.06 11.8867 280.92 11.7 281.947 11.7V14.08C281.84 14.0533 281.74 14.04 281.647 14.04C281.554 14.0267 281.46 14.02 281.367 14.02C280.42 14.02 279.667 14.3 279.107 14.86C278.547 15.4067 278.267 16.2267 278.267 17.32V22.5H275.767ZM289.886 22.5V20.34L289.746 19.88V16.1C289.746 15.3667 289.526 14.8 289.086 14.4C288.646 13.9867 287.979 13.78 287.086 13.78C286.486 13.78 285.893 13.8733 285.306 14.06C284.733 14.2467 284.246 14.5067 283.846 14.84L282.866 13.02C283.439 12.58 284.119 12.2533 284.906 12.04C285.706 11.8133 286.533 11.7 287.386 11.7C288.933 11.7 290.126 12.0733 290.966 12.82C291.819 13.5533 292.246 14.6933 292.246 16.24V22.5H289.886ZM286.526 22.64C285.726 22.64 285.026 22.5067 284.426 22.24C283.826 21.96 283.359 21.58 283.026 21.1C282.706 20.6067 282.546 20.0533 282.546 19.44C282.546 18.84 282.686 18.3 282.966 17.82C283.259 17.34 283.733 16.96 284.386 16.68C285.039 16.4 285.906 16.26 286.986 16.26H290.086V17.92H287.166C286.313 17.92 285.739 18.06 285.446 18.34C285.153 18.6067 285.006 18.94 285.006 19.34C285.006 19.7933 285.186 20.1533 285.546 20.42C285.906 20.6867 286.406 20.82 287.046 20.82C287.659 20.82 288.206 20.68 288.686 20.4C289.179 20.12 289.533 19.7067 289.746 19.16L290.166 20.66C289.926 21.2867 289.493 21.7733 288.866 22.12C288.253 22.4667 287.473 22.64 286.526 22.64ZM299.474 22.64C298.301 22.64 297.394 22.34 296.754 21.74C296.114 21.1267 295.794 20.2267 295.794 19.04V9.46H298.294V18.98C298.294 19.4867 298.421 19.88 298.674 20.16C298.941 20.44 299.308 20.58 299.774 20.58C300.334 20.58 300.801 20.4333 301.174 20.14L301.874 21.92C301.581 22.16 301.221 22.34 300.794 22.46C300.368 22.58 299.928 22.64 299.474 22.64ZM294.034 13.9V11.9H301.154V13.9H294.034ZM308.599 22.64C307.413 22.64 306.373 22.4067 305.479 21.94C304.599 21.46 303.913 20.8067 303.419 19.98C302.939 19.1533 302.699 18.2133 302.699 17.16C302.699 16.0933 302.933 15.1533 303.399 14.34C303.879 13.5133 304.533 12.8667 305.359 12.4C306.199 11.9333 307.153 11.7 308.219 11.7C309.259 11.7 310.186 11.9267 310.999 12.38C311.813 12.8333 312.453 13.4733 312.919 14.3C313.386 15.1267 313.619 16.1 313.619 17.22C313.619 17.3267 313.613 17.4467 313.599 17.58C313.599 17.7133 313.593 17.84 313.579 17.96H304.679V16.3H312.259L311.279 16.82C311.293 16.2067 311.166 15.6667 310.899 15.2C310.633 14.7333 310.266 14.3667 309.799 14.1C309.346 13.8333 308.819 13.7 308.219 13.7C307.606 13.7 307.066 13.8333 306.599 14.1C306.146 14.3667 305.786 14.74 305.519 15.22C305.266 15.6867 305.139 16.24 305.139 16.88V17.28C305.139 17.92 305.286 18.4867 305.579 18.98C305.873 19.4733 306.286 19.8533 306.819 20.12C307.353 20.3867 307.966 20.52 308.659 20.52C309.259 20.52 309.799 20.4267 310.279 20.24C310.759 20.0533 311.186 19.76 311.559 19.36L312.899 20.9C312.419 21.46 311.813 21.8933 311.079 22.2C310.359 22.4933 309.533 22.64 308.599 22.64Z" fill="#1A1A19"/>
<path d="M208.619 25H314.379V26H208.619V25Z" fill="#1A1A19"/>
</svg>
