<svg width="345" height="243" viewBox="0 0 345 243" fill="none" xmlns="http://www.w3.org/2000/svg">
<path d="M17.9777 23.808H23.8977V24.816H17.9777V23.808ZM18.1057 28.976H24.8417V30H16.9217V18.8H24.6017V19.824H18.1057V28.976ZM30.6038 30.08C29.8038 30.08 29.0838 29.8987 28.4438 29.536C27.8144 29.1733 27.3184 28.672 26.9558 28.032C26.5931 27.3813 26.4118 26.6347 26.4118 25.792C26.4118 24.9387 26.5931 24.192 26.9558 23.552C27.3184 22.912 27.8144 22.416 28.4438 22.064C29.0838 21.7013 29.8038 21.52 30.6038 21.52C31.3398 21.52 31.9958 21.6853 32.5718 22.016C33.1584 22.3467 33.6224 22.832 33.9638 23.472C34.3158 24.1013 34.4918 24.8747 34.4918 25.792C34.4918 26.6987 34.3211 27.472 33.9798 28.112C33.6384 28.752 33.1744 29.2427 32.5878 29.584C32.0118 29.9147 31.3504 30.08 30.6038 30.08ZM30.6838 29.072C31.2811 29.072 31.8144 28.9387 32.2838 28.672C32.7638 28.3947 33.1371 28.0107 33.4038 27.52C33.6811 27.0187 33.8198 26.4427 33.8198 25.792C33.8198 25.1307 33.6811 24.5547 33.4038 24.064C33.1371 23.5733 32.7638 23.1947 32.2838 22.928C31.8144 22.6507 31.2811 22.512 30.6838 22.512C30.0971 22.512 29.5691 22.6507 29.0998 22.928C28.6304 23.1947 28.2571 23.5733 27.9798 24.064C27.7024 24.5547 27.5638 25.1307 27.5638 25.792C27.5638 26.4427 27.7024 27.0187 27.9798 27.52C28.2571 28.0107 28.6304 28.3947 29.0998 28.672C29.5691 28.9387 30.0971 29.072 30.6838 29.072ZM33.8518 30V27.472L33.9638 25.776L33.8038 24.08V18.128H34.9398V30H33.8518ZM38.1035 30V21.6H39.2395V30H38.1035ZM38.6795 19.744C38.4449 19.744 38.2475 19.664 38.0875 19.504C37.9275 19.344 37.8475 19.152 37.8475 18.928C37.8475 18.704 37.9275 18.5173 38.0875 18.368C38.2475 18.208 38.4449 18.128 38.6795 18.128C38.9142 18.128 39.1115 18.2027 39.2715 18.352C39.4315 18.5013 39.5115 18.688 39.5115 18.912C39.5115 19.1467 39.4315 19.344 39.2715 19.504C39.1222 19.664 38.9249 19.744 38.6795 19.744ZM45.0564 30.08C44.2671 30.08 43.6591 29.8667 43.2324 29.44C42.8057 29.0133 42.5924 28.4107 42.5924 27.632V19.744H43.7284V27.568C43.7284 28.0587 43.8511 28.4373 44.0964 28.704C44.3524 28.9707 44.7151 29.104 45.1844 29.104C45.6857 29.104 46.1017 28.96 46.4324 28.672L46.8324 29.488C46.6084 29.6907 46.3364 29.84 46.0164 29.936C45.7071 30.032 45.3871 30.08 45.0564 30.08ZM41.0884 22.544V21.6H46.2884V22.544H41.0884ZM54.1644 30V28.144L54.1164 27.84V24.736C54.1164 24.0213 53.9137 23.472 53.5084 23.088C53.1137 22.704 52.5217 22.512 51.7324 22.512C51.1884 22.512 50.6711 22.6027 50.1804 22.784C49.6897 22.9653 49.2737 23.2053 48.9324 23.504L48.4204 22.656C48.8471 22.2933 49.3591 22.016 49.9564 21.824C50.5537 21.6213 51.1831 21.52 51.8444 21.52C52.9324 21.52 53.7697 21.792 54.3564 22.336C54.9537 22.8693 55.2524 23.6853 55.2524 24.784V30H54.1644ZM51.2684 30.08C50.6391 30.08 50.0897 29.9787 49.6204 29.776C49.1617 29.5627 48.8097 29.2747 48.5644 28.912C48.3191 28.5387 48.1964 28.112 48.1964 27.632C48.1964 27.1947 48.2977 26.8 48.5004 26.448C48.7137 26.0853 49.0551 25.7973 49.5244 25.584C50.0044 25.36 50.6444 25.248 51.4444 25.248H54.3404V26.096H51.4764C50.6657 26.096 50.1004 26.24 49.7804 26.528C49.4711 26.816 49.3164 27.1733 49.3164 27.6C49.3164 28.08 49.5031 28.464 49.8764 28.752C50.2497 29.04 50.7724 29.184 51.4444 29.184C52.0844 29.184 52.6337 29.04 53.0924 28.752C53.5617 28.4533 53.9031 28.0267 54.1164 27.472L54.3724 28.256C54.1591 28.8107 53.7857 29.2533 53.2524 29.584C52.7297 29.9147 52.0684 30.08 51.2684 30.08ZM58.3379 30V21.6H59.4259V23.888L59.3139 23.488C59.5486 22.848 59.9432 22.3627 60.4979 22.032C61.0526 21.6907 61.7406 21.52 62.5619 21.52V22.624C62.5192 22.624 62.4766 22.624 62.4339 22.624C62.3912 22.6133 62.3486 22.608 62.3059 22.608C61.4206 22.608 60.7272 22.88 60.2259 23.424C59.7246 23.9573 59.4739 24.72 59.4739 25.712V30H58.3379ZM73.2833 30.08C72.5579 30.08 71.9019 29.9147 71.3153 29.584C70.7286 29.2427 70.2593 28.7573 69.9073 28.128C69.5659 27.488 69.3953 26.7093 69.3953 25.792C69.3953 24.8747 69.5659 24.1013 69.9073 23.472C70.2486 22.832 70.7126 22.3467 71.2993 22.016C71.8859 21.6853 72.5473 21.52 73.2833 21.52C74.0833 21.52 74.7979 21.7013 75.4273 22.064C76.0673 22.416 76.5686 22.9173 76.9313 23.568C77.2939 24.208 77.4753 24.9493 77.4753 25.792C77.4753 26.6453 77.2939 27.392 76.9313 28.032C76.5686 28.672 76.0673 29.1733 75.4273 29.536C74.7979 29.8987 74.0833 30.08 73.2833 30.08ZM68.9473 33.104V21.6H70.0353V24.128L69.9233 25.808L70.0833 27.504V33.104H68.9473ZM73.2033 29.072C73.8006 29.072 74.3339 28.9387 74.8033 28.672C75.2726 28.3947 75.6459 28.0107 75.9233 27.52C76.2006 27.0187 76.3393 26.4427 76.3393 25.792C76.3393 25.1413 76.2006 24.5707 75.9233 24.08C75.6459 23.5893 75.2726 23.2053 74.8033 22.928C74.3339 22.6507 73.8006 22.512 73.2033 22.512C72.6059 22.512 72.0673 22.6507 71.5873 22.928C71.1179 23.2053 70.7446 23.5893 70.4673 24.08C70.2006 24.5707 70.0673 25.1413 70.0673 25.792C70.0673 26.4427 70.2006 27.0187 70.4673 27.52C70.7446 28.0107 71.1179 28.3947 71.5873 28.672C72.0673 28.9387 72.6059 29.072 73.2033 29.072ZM83.359 30.08C82.4844 30.08 81.7164 29.8987 81.055 29.536C80.3937 29.1627 79.8764 28.656 79.503 28.016C79.1297 27.3653 78.943 26.624 78.943 25.792C78.943 24.96 79.119 24.224 79.471 23.584C79.8337 22.944 80.3244 22.4427 80.943 22.08C81.5724 21.7067 82.2764 21.52 83.055 21.52C83.8444 21.52 84.543 21.7013 85.151 22.064C85.7697 22.416 86.255 22.9173 86.607 23.568C86.959 24.208 87.135 24.9493 87.135 25.792C87.135 25.8453 87.1297 25.904 87.119 25.968C87.119 26.0213 87.119 26.08 87.119 26.144H79.807V25.296H86.511L86.063 25.632C86.063 25.024 85.9297 24.4853 85.663 24.016C85.407 23.536 85.055 23.1627 84.607 22.896C84.159 22.6293 83.6417 22.496 83.055 22.496C82.479 22.496 81.9617 22.6293 81.503 22.896C81.0444 23.1627 80.687 23.536 80.431 24.016C80.175 24.496 80.047 25.0453 80.047 25.664V25.84C80.047 26.48 80.1857 27.0453 80.463 27.536C80.751 28.016 81.1457 28.3947 81.647 28.672C82.159 28.9387 82.7404 29.072 83.391 29.072C83.903 29.072 84.3777 28.9813 84.815 28.8C85.263 28.6187 85.647 28.3413 85.967 27.968L86.607 28.704C86.2337 29.152 85.7644 29.4933 85.199 29.728C84.6444 29.9627 84.031 30.08 83.359 30.08ZM89.4473 30V21.6H90.5353V23.888L90.4233 23.488C90.6579 22.848 91.0526 22.3627 91.6073 22.032C92.1619 21.6907 92.8499 21.52 93.6713 21.52V22.624C93.6286 22.624 93.5859 22.624 93.5433 22.624C93.5006 22.6133 93.4579 22.608 93.4153 22.608C92.5299 22.608 91.8366 22.88 91.3353 23.424C90.8339 23.9573 90.5833 24.72 90.5833 25.712V30H89.4473ZM96.2955 30V20.544C96.2955 19.7973 96.5142 19.1947 96.9515 18.736C97.3889 18.2773 98.0182 18.048 98.8395 18.048C99.1595 18.048 99.4689 18.0907 99.7675 18.176C100.066 18.2613 100.317 18.3947 100.52 18.576L100.136 19.424C99.9755 19.2853 99.7889 19.184 99.5755 19.12C99.3622 19.0453 99.1329 19.008 98.8875 19.008C98.4075 19.008 98.0395 19.1413 97.7835 19.408C97.5275 19.6747 97.3995 20.0693 97.3995 20.592V21.872L97.4315 22.4V30H96.2955ZM94.7915 22.544V21.6H99.9915V22.544H94.7915ZM101.528 30V21.6H102.664V30H101.528ZM102.104 19.744C101.869 19.744 101.672 19.664 101.512 19.504C101.352 19.344 101.272 19.152 101.272 18.928C101.272 18.704 101.352 18.5173 101.512 18.368C101.672 18.208 101.869 18.128 102.104 18.128C102.338 18.128 102.536 18.2027 102.696 18.352C102.856 18.5013 102.936 18.688 102.936 18.912C102.936 19.1467 102.856 19.344 102.696 19.504C102.546 19.664 102.349 19.744 102.104 19.744ZM105.854 30V18.128H106.99V30H105.854Z" fill="#1A1A19"/>
<path d="M314.098 18L320.098 24L314.098 30" stroke="#1A1A19" stroke-width="1.5" stroke-linecap="round" stroke-linejoin="round"/>
<rect x="0.847656" y="0.75" width="342.5" height="46.5" rx="7.25" stroke="#999996" stroke-width="1.5"/>
<path d="M20.0097 95.096C19.1777 95.096 18.3777 94.9627 17.6097 94.696C16.8523 94.4187 16.2657 94.0667 15.8497 93.64L16.3137 92.728C16.7083 93.112 17.2363 93.4373 17.8977 93.704C18.5697 93.96 19.2737 94.088 20.0097 94.088C20.7137 94.088 21.2843 94.0027 21.7217 93.832C22.1697 93.6507 22.495 93.4107 22.6977 93.112C22.911 92.8133 23.0177 92.4827 23.0177 92.12C23.0177 91.6827 22.8897 91.3307 22.6337 91.064C22.3883 90.7973 22.063 90.5893 21.6577 90.44C21.2523 90.28 20.8043 90.1413 20.3137 90.024C19.823 89.9067 19.3323 89.784 18.8417 89.656C18.351 89.5173 17.8977 89.336 17.4817 89.112C17.0763 88.888 16.7457 88.5947 16.4897 88.232C16.2443 87.8587 16.1217 87.3733 16.1217 86.776C16.1217 86.2213 16.2657 85.7147 16.5537 85.256C16.8523 84.7867 17.3057 84.4133 17.9137 84.136C18.5217 83.848 19.3003 83.704 20.2497 83.704C20.879 83.704 21.503 83.7947 22.1217 83.976C22.7403 84.1467 23.2737 84.3867 23.7217 84.696L23.3217 85.64C22.8417 85.32 22.3297 85.0853 21.7857 84.936C21.2523 84.7867 20.735 84.712 20.2337 84.712C19.5617 84.712 19.007 84.8027 18.5697 84.984C18.1323 85.1653 17.807 85.4107 17.5937 85.72C17.391 86.0187 17.2897 86.36 17.2897 86.744C17.2897 87.1813 17.4123 87.5333 17.6577 87.8C17.9137 88.0667 18.2443 88.2747 18.6497 88.424C19.0657 88.5733 19.519 88.7067 20.0097 88.824C20.5003 88.9413 20.9857 89.0693 21.4657 89.208C21.9563 89.3467 22.4043 89.528 22.8097 89.752C23.2257 89.9653 23.5563 90.2533 23.8017 90.616C24.0577 90.9787 24.1857 91.4533 24.1857 92.04C24.1857 92.584 24.0363 93.0907 23.7377 93.56C23.439 94.0187 22.9803 94.392 22.3617 94.68C21.7537 94.9573 20.9697 95.096 20.0097 95.096ZM30.0934 95.08C29.2187 95.08 28.4507 94.8987 27.7894 94.536C27.1281 94.1627 26.6107 93.656 26.2374 93.016C25.8641 92.3653 25.6774 91.624 25.6774 90.792C25.6774 89.96 25.8534 89.224 26.2054 88.584C26.5681 87.944 27.0587 87.4427 27.6774 87.08C28.3067 86.7067 29.0107 86.52 29.7894 86.52C30.5787 86.52 31.2774 86.7013 31.8854 87.064C32.5041 87.416 32.9894 87.9173 33.3414 88.568C33.6934 89.208 33.8694 89.9493 33.8694 90.792C33.8694 90.8453 33.8641 90.904 33.8534 90.968C33.8534 91.0213 33.8534 91.08 33.8534 91.144H26.5414V90.296H33.2454L32.7974 90.632C32.7974 90.024 32.6641 89.4853 32.3974 89.016C32.1414 88.536 31.7894 88.1627 31.3414 87.896C30.8934 87.6293 30.3761 87.496 29.7894 87.496C29.2134 87.496 28.6961 87.6293 28.2374 87.896C27.7787 88.1627 27.4214 88.536 27.1654 89.016C26.9094 89.496 26.7814 90.0453 26.7814 90.664V90.84C26.7814 91.48 26.9201 92.0453 27.1974 92.536C27.4854 93.016 27.8801 93.3947 28.3814 93.672C28.8934 93.9387 29.4747 94.072 30.1254 94.072C30.6374 94.072 31.1121 93.9813 31.5494 93.8C31.9974 93.6187 32.3814 93.3413 32.7014 92.968L33.3414 93.704C32.9681 94.152 32.4987 94.4933 31.9334 94.728C31.3787 94.9627 30.7654 95.08 30.0934 95.08ZM39.7657 98.184C38.9977 98.184 38.2617 98.072 37.5577 97.848C36.8537 97.624 36.283 97.304 35.8457 96.888L36.4217 96.024C36.8163 96.376 37.3017 96.6533 37.8777 96.856C38.4643 97.0693 39.083 97.176 39.7337 97.176C40.8003 97.176 41.5843 96.9253 42.0857 96.424C42.587 95.9333 42.8377 95.1653 42.8377 94.12V92.024L42.9977 90.584L42.8857 89.144V86.6H43.9737V93.976C43.9737 95.4267 43.6163 96.488 42.9017 97.16C42.1977 97.8427 41.1523 98.184 39.7657 98.184ZM39.5577 94.68C38.7577 94.68 38.0377 94.5093 37.3977 94.168C36.7577 93.816 36.251 93.3307 35.8777 92.712C35.515 92.0933 35.3337 91.384 35.3337 90.584C35.3337 89.784 35.515 89.08 35.8777 88.472C36.251 87.8533 36.7577 87.3733 37.3977 87.032C38.0377 86.6907 38.7577 86.52 39.5577 86.52C40.3043 86.52 40.9763 86.6747 41.5737 86.984C42.171 87.2933 42.6457 87.752 42.9977 88.36C43.3497 88.968 43.5257 89.7093 43.5257 90.584C43.5257 91.4587 43.3497 92.2 42.9977 92.808C42.6457 93.416 42.171 93.88 41.5737 94.2C40.9763 94.52 40.3043 94.68 39.5577 94.68ZM39.6697 93.672C40.2883 93.672 40.8377 93.544 41.3177 93.288C41.7977 93.0213 42.1763 92.6587 42.4537 92.2C42.731 91.7307 42.8697 91.192 42.8697 90.584C42.8697 89.976 42.731 89.4427 42.4537 88.984C42.1763 88.5253 41.7977 88.168 41.3177 87.912C40.8377 87.6453 40.2883 87.512 39.6697 87.512C39.0617 87.512 38.5123 87.6453 38.0217 87.912C37.5417 88.168 37.163 88.5253 36.8857 88.984C36.619 89.4427 36.4857 89.976 36.4857 90.584C36.4857 91.192 36.619 91.7307 36.8857 92.2C37.163 92.6587 37.5417 93.0213 38.0217 93.288C38.5123 93.544 39.0617 93.672 39.6697 93.672ZM50.6068 95.08C49.8921 95.08 49.2681 94.9467 48.7348 94.68C48.2014 94.4133 47.7854 94.0133 47.4868 93.48C47.1988 92.9467 47.0548 92.28 47.0548 91.48V86.6H48.1908V91.352C48.1908 92.248 48.4094 92.9253 48.8468 93.384C49.2948 93.832 49.9188 94.056 50.7188 94.056C51.3054 94.056 51.8121 93.9387 52.2388 93.704C52.6761 93.4587 53.0068 93.1067 53.2308 92.648C53.4654 92.1893 53.5828 91.64 53.5828 91V86.6H54.7188V95H53.6308V92.696L53.8068 93.112C53.5401 93.7307 53.1241 94.216 52.5588 94.568C52.0041 94.9093 51.3534 95.08 50.6068 95.08ZM57.8848 95V86.6H58.9728V88.888L58.8608 88.488C59.0954 87.848 59.4901 87.3627 60.0448 87.032C60.5994 86.6907 61.2874 86.52 62.1088 86.52V87.624C62.0661 87.624 62.0234 87.624 61.9808 87.624C61.9381 87.6133 61.8954 87.608 61.8528 87.608C60.9674 87.608 60.2741 87.88 59.7728 88.424C59.2714 88.9573 59.0208 89.72 59.0208 90.712V95H57.8848ZM64.1817 95V86.6H65.3177V95H64.1817ZM64.7577 84.744C64.523 84.744 64.3257 84.664 64.1657 84.504C64.0057 84.344 63.9257 84.152 63.9257 83.928C63.9257 83.704 64.0057 83.5173 64.1657 83.368C64.3257 83.208 64.523 83.128 64.7577 83.128C64.9923 83.128 65.1897 83.2027 65.3497 83.352C65.5097 83.5013 65.5897 83.688 65.5897 83.912C65.5897 84.1467 65.5097 84.344 65.3497 84.504C65.2003 84.664 65.003 84.744 64.7577 84.744ZM71.8225 95.08C71.0225 95.08 70.3025 94.8987 69.6625 94.536C69.0332 94.1733 68.5372 93.672 68.1745 93.032C67.8119 92.3813 67.6305 91.6347 67.6305 90.792C67.6305 89.9387 67.8119 89.192 68.1745 88.552C68.5372 87.912 69.0332 87.416 69.6625 87.064C70.3025 86.7013 71.0225 86.52 71.8225 86.52C72.5585 86.52 73.2145 86.6853 73.7905 87.016C74.3772 87.3467 74.8412 87.832 75.1825 88.472C75.5345 89.1013 75.7105 89.8747 75.7105 90.792C75.7105 91.6987 75.5399 92.472 75.1985 93.112C74.8572 93.752 74.3932 94.2427 73.8065 94.584C73.2305 94.9147 72.5692 95.08 71.8225 95.08ZM71.9025 94.072C72.4999 94.072 73.0332 93.9387 73.5025 93.672C73.9825 93.3947 74.3559 93.0107 74.6225 92.52C74.8999 92.0187 75.0385 91.4427 75.0385 90.792C75.0385 90.1307 74.8999 89.5547 74.6225 89.064C74.3559 88.5733 73.9825 88.1947 73.5025 87.928C73.0332 87.6507 72.4999 87.512 71.9025 87.512C71.3159 87.512 70.7879 87.6507 70.3185 87.928C69.8492 88.1947 69.4759 88.5733 69.1985 89.064C68.9212 89.5547 68.7825 90.1307 68.7825 90.792C68.7825 91.4427 68.9212 92.0187 69.1985 92.52C69.4759 93.0107 69.8492 93.3947 70.3185 93.672C70.7879 93.9387 71.3159 94.072 71.9025 94.072ZM75.0705 95V92.472L75.1825 90.776L75.0225 89.08V83.128H76.1585V95H75.0705ZM84.5863 95V93.144L84.5383 92.84V89.736C84.5383 89.0213 84.3356 88.472 83.9303 88.088C83.5356 87.704 82.9436 87.512 82.1543 87.512C81.6103 87.512 81.0929 87.6027 80.6023 87.784C80.1116 87.9653 79.6956 88.2053 79.3543 88.504L78.8423 87.656C79.2689 87.2933 79.7809 87.016 80.3783 86.824C80.9756 86.6213 81.6049 86.52 82.2663 86.52C83.3543 86.52 84.1916 86.792 84.7783 87.336C85.3756 87.8693 85.6743 88.6853 85.6743 89.784V95H84.5863ZM81.6903 95.08C81.0609 95.08 80.5116 94.9787 80.0423 94.776C79.5836 94.5627 79.2316 94.2747 78.9863 93.912C78.7409 93.5387 78.6183 93.112 78.6183 92.632C78.6183 92.1947 78.7196 91.8 78.9223 91.448C79.1356 91.0853 79.4769 90.7973 79.9463 90.584C80.4263 90.36 81.0663 90.248 81.8663 90.248H84.7623V91.096H81.8983C81.0876 91.096 80.5223 91.24 80.2023 91.528C79.8929 91.816 79.7383 92.1733 79.7383 92.6C79.7383 93.08 79.9249 93.464 80.2983 93.752C80.6716 94.04 81.1943 94.184 81.8663 94.184C82.5063 94.184 83.0556 94.04 83.5143 93.752C83.9836 93.4533 84.3249 93.0267 84.5383 92.472L84.7943 93.256C84.5809 93.8107 84.2076 94.2533 83.6743 94.584C83.1516 94.9147 82.4903 95.08 81.6903 95.08ZM92.1038 95.08C91.3038 95.08 90.5838 94.8987 89.9438 94.536C89.3144 94.1733 88.8184 93.672 88.4558 93.032C88.0931 92.3813 87.9118 91.6347 87.9118 90.792C87.9118 89.9387 88.0931 89.192 88.4558 88.552C88.8184 87.912 89.3144 87.416 89.9438 87.064C90.5838 86.7013 91.3038 86.52 92.1038 86.52C92.8398 86.52 93.4958 86.6853 94.0718 87.016C94.6584 87.3467 95.1224 87.832 95.4638 88.472C95.8158 89.1013 95.9918 89.8747 95.9918 90.792C95.9918 91.6987 95.8211 92.472 95.4798 93.112C95.1384 93.752 94.6744 94.2427 94.0878 94.584C93.5118 94.9147 92.8504 95.08 92.1038 95.08ZM92.1838 94.072C92.7811 94.072 93.3144 93.9387 93.7838 93.672C94.2638 93.3947 94.6371 93.0107 94.9038 92.52C95.1811 92.0187 95.3198 91.4427 95.3198 90.792C95.3198 90.1307 95.1811 89.5547 94.9038 89.064C94.6371 88.5733 94.2638 88.1947 93.7838 87.928C93.3144 87.6507 92.7811 87.512 92.1838 87.512C91.5971 87.512 91.0691 87.6507 90.5998 87.928C90.1304 88.1947 89.7571 88.5733 89.4798 89.064C89.2024 89.5547 89.0638 90.1307 89.0638 90.792C89.0638 91.4427 89.2024 92.0187 89.4798 92.52C89.7571 93.0107 90.1304 93.3947 90.5998 93.672C91.0691 93.9387 91.5971 94.072 92.1838 94.072ZM95.3518 95V92.472L95.4638 90.776L95.3038 89.08V83.128H96.4398V95H95.3518ZM103.855 98.184C103.46 98.184 103.082 98.12 102.719 97.992C102.367 97.864 102.063 97.672 101.807 97.416L102.335 96.568C102.548 96.7707 102.778 96.9253 103.023 97.032C103.279 97.1493 103.562 97.208 103.871 97.208C104.244 97.208 104.564 97.1013 104.831 96.888C105.108 96.6853 105.37 96.3227 105.615 95.8L106.159 94.568L106.287 94.392L109.743 86.6H110.863L106.655 96.008C106.42 96.552 106.159 96.984 105.871 97.304C105.594 97.624 105.29 97.848 104.959 97.976C104.628 98.1147 104.26 98.184 103.855 98.184ZM106.095 95.24L102.223 86.6H103.407L106.831 94.312L106.095 95.24ZM116.89 95V83.8H121.082C122.032 83.8 122.848 83.9547 123.53 84.264C124.213 84.5627 124.736 85 125.098 85.576C125.472 86.1413 125.658 86.8293 125.658 87.64C125.658 88.4293 125.472 89.112 125.098 89.688C124.736 90.2533 124.213 90.6907 123.53 91C122.848 91.3093 122.032 91.464 121.082 91.464H117.546L118.074 90.904V95H116.89ZM118.074 91L117.546 90.424H121.05C122.17 90.424 123.018 90.184 123.594 89.704C124.181 89.2133 124.474 88.5253 124.474 87.64C124.474 86.744 124.181 86.0507 123.594 85.56C123.018 85.0693 122.17 84.824 121.05 84.824H117.546L118.074 84.264V91ZM127.76 95V86.6H128.848V88.888L128.736 88.488C128.97 87.848 129.365 87.3627 129.92 87.032C130.474 86.6907 131.162 86.52 131.984 86.52V87.624C131.941 87.624 131.898 87.624 131.856 87.624C131.813 87.6133 131.77 87.608 131.728 87.608C130.842 87.608 130.149 87.88 129.648 88.424C129.146 88.9573 128.896 89.72 128.896 90.712V95H127.76ZM134.057 95V86.6H135.193V95H134.057ZM134.633 84.744C134.398 84.744 134.201 84.664 134.041 84.504C133.881 84.344 133.801 84.152 133.801 83.928C133.801 83.704 133.881 83.5173 134.041 83.368C134.201 83.208 134.398 83.128 134.633 83.128C134.867 83.128 135.065 83.2027 135.225 83.352C135.385 83.5013 135.465 83.688 135.465 83.912C135.465 84.1467 135.385 84.344 135.225 84.504C135.075 84.664 134.878 84.744 134.633 84.744ZM140.514 95L136.786 86.6H137.97L141.394 94.392H140.834L144.306 86.6H145.426L141.682 95H140.514ZM152.039 95V93.144L151.991 92.84V89.736C151.991 89.0213 151.789 88.472 151.383 88.088C150.989 87.704 150.397 87.512 149.607 87.512C149.063 87.512 148.546 87.6027 148.055 87.784C147.565 87.9653 147.149 88.2053 146.807 88.504L146.295 87.656C146.722 87.2933 147.234 87.016 147.831 86.824C148.429 86.6213 149.058 86.52 149.719 86.52C150.807 86.52 151.645 86.792 152.231 87.336C152.829 87.8693 153.127 88.6853 153.127 89.784V95H152.039ZM149.143 95.08C148.514 95.08 147.965 94.9787 147.495 94.776C147.037 94.5627 146.685 94.2747 146.439 93.912C146.194 93.5387 146.071 93.112 146.071 92.632C146.071 92.1947 146.173 91.8 146.375 91.448C146.589 91.0853 146.93 90.7973 147.399 90.584C147.879 90.36 148.519 90.248 149.319 90.248H152.215V91.096H149.351C148.541 91.096 147.975 91.24 147.655 91.528C147.346 91.816 147.191 92.1733 147.191 92.6C147.191 93.08 147.378 93.464 147.751 93.752C148.125 94.04 148.647 94.184 149.319 94.184C149.959 94.184 150.509 94.04 150.967 93.752C151.437 93.4533 151.778 93.0267 151.991 92.472L152.247 93.256C152.034 93.8107 151.661 94.2533 151.127 94.584C150.605 94.9147 149.943 95.08 149.143 95.08ZM159.701 95.08C158.869 95.08 158.122 94.8987 157.461 94.536C156.81 94.1627 156.298 93.656 155.925 93.016C155.552 92.3653 155.365 91.624 155.365 90.792C155.365 89.9493 155.552 89.208 155.925 88.568C156.298 87.928 156.81 87.4267 157.461 87.064C158.122 86.7013 158.869 86.52 159.701 86.52C160.416 86.52 161.061 86.6587 161.637 86.936C162.213 87.2133 162.666 87.6293 162.997 88.184L162.149 88.76C161.861 88.3333 161.504 88.0187 161.077 87.816C160.65 87.6133 160.186 87.512 159.685 87.512C159.088 87.512 158.549 87.6507 158.069 87.928C157.589 88.1947 157.21 88.5733 156.933 89.064C156.656 89.5547 156.517 90.1307 156.517 90.792C156.517 91.4533 156.656 92.0293 156.933 92.52C157.21 93.0107 157.589 93.3947 158.069 93.672C158.549 93.9387 159.088 94.072 159.685 94.072C160.186 94.072 160.65 93.9707 161.077 93.768C161.504 93.5653 161.861 93.256 162.149 92.84L162.997 93.416C162.666 93.96 162.213 94.376 161.637 94.664C161.061 94.9413 160.416 95.08 159.701 95.08ZM165.104 95V86.6H166.24V95H165.104ZM165.68 84.744C165.445 84.744 165.248 84.664 165.088 84.504C164.928 84.344 164.848 84.152 164.848 83.928C164.848 83.704 164.928 83.5173 165.088 83.368C165.248 83.208 165.445 83.128 165.68 83.128C165.914 83.128 166.112 83.2027 166.272 83.352C166.432 83.5013 166.512 83.688 166.512 83.912C166.512 84.1467 166.432 84.344 166.272 84.504C166.122 84.664 165.925 84.744 165.68 84.744ZM172.744 95.08C171.944 95.08 171.224 94.8987 170.584 94.536C169.955 94.1733 169.459 93.672 169.096 93.032C168.734 92.3813 168.552 91.6347 168.552 90.792C168.552 89.9387 168.734 89.192 169.096 88.552C169.459 87.912 169.955 87.416 170.584 87.064C171.224 86.7013 171.944 86.52 172.744 86.52C173.48 86.52 174.136 86.6853 174.712 87.016C175.299 87.3467 175.763 87.832 176.104 88.472C176.456 89.1013 176.632 89.8747 176.632 90.792C176.632 91.6987 176.462 92.472 176.12 93.112C175.779 93.752 175.315 94.2427 174.728 94.584C174.152 94.9147 173.491 95.08 172.744 95.08ZM172.824 94.072C173.422 94.072 173.955 93.9387 174.424 93.672C174.904 93.3947 175.278 93.0107 175.544 92.52C175.822 92.0187 175.96 91.4427 175.96 90.792C175.96 90.1307 175.822 89.5547 175.544 89.064C175.278 88.5733 174.904 88.1947 174.424 87.928C173.955 87.6507 173.422 87.512 172.824 87.512C172.238 87.512 171.71 87.6507 171.24 87.928C170.771 88.1947 170.398 88.5733 170.12 89.064C169.843 89.5547 169.704 90.1307 169.704 90.792C169.704 91.4427 169.843 92.0187 170.12 92.52C170.398 93.0107 170.771 93.3947 171.24 93.672C171.71 93.9387 172.238 94.072 172.824 94.072ZM175.992 95V92.472L176.104 90.776L175.944 89.08V83.128H177.08V95H175.992ZM185.508 95V93.144L185.46 92.84V89.736C185.46 89.0213 185.257 88.472 184.852 88.088C184.457 87.704 183.865 87.512 183.076 87.512C182.532 87.512 182.015 87.6027 181.524 87.784C181.033 87.9653 180.617 88.2053 180.276 88.504L179.764 87.656C180.191 87.2933 180.703 87.016 181.3 86.824C181.897 86.6213 182.527 86.52 183.188 86.52C184.276 86.52 185.113 86.792 185.7 87.336C186.297 87.8693 186.596 88.6853 186.596 89.784V95H185.508ZM182.612 95.08C181.983 95.08 181.433 94.9787 180.964 94.776C180.505 94.5627 180.153 94.2747 179.908 93.912C179.663 93.5387 179.54 93.112 179.54 92.632C179.54 92.1947 179.641 91.8 179.844 91.448C180.057 91.0853 180.399 90.7973 180.868 90.584C181.348 90.36 181.988 90.248 182.788 90.248H185.684V91.096H182.82C182.009 91.096 181.444 91.24 181.124 91.528C180.815 91.816 180.66 92.1733 180.66 92.6C180.66 93.08 180.847 93.464 181.22 93.752C181.593 94.04 182.116 94.184 182.788 94.184C183.428 94.184 183.977 94.04 184.436 93.752C184.905 93.4533 185.247 93.0267 185.46 92.472L185.716 93.256C185.503 93.8107 185.129 94.2533 184.596 94.584C184.073 94.9147 183.412 95.08 182.612 95.08ZM193.026 95.08C192.226 95.08 191.506 94.8987 190.866 94.536C190.236 94.1733 189.74 93.672 189.378 93.032C189.015 92.3813 188.834 91.6347 188.834 90.792C188.834 89.9387 189.015 89.192 189.378 88.552C189.74 87.912 190.236 87.416 190.866 87.064C191.506 86.7013 192.226 86.52 193.026 86.52C193.762 86.52 194.418 86.6853 194.994 87.016C195.58 87.3467 196.044 87.832 196.386 88.472C196.738 89.1013 196.914 89.8747 196.914 90.792C196.914 91.6987 196.743 92.472 196.402 93.112C196.06 93.752 195.596 94.2427 195.01 94.584C194.434 94.9147 193.772 95.08 193.026 95.08ZM193.106 94.072C193.703 94.072 194.236 93.9387 194.706 93.672C195.186 93.3947 195.559 93.0107 195.826 92.52C196.103 92.0187 196.242 91.4427 196.242 90.792C196.242 90.1307 196.103 89.5547 195.826 89.064C195.559 88.5733 195.186 88.1947 194.706 87.928C194.236 87.6507 193.703 87.512 193.106 87.512C192.519 87.512 191.991 87.6507 191.522 87.928C191.052 88.1947 190.679 88.5733 190.402 89.064C190.124 89.5547 189.986 90.1307 189.986 90.792C189.986 91.4427 190.124 92.0187 190.402 92.52C190.679 93.0107 191.052 93.3947 191.522 93.672C191.991 93.9387 192.519 94.072 193.106 94.072ZM196.274 95V92.472L196.386 90.776L196.226 89.08V83.128H197.362V95H196.274Z" fill="#1A1A19"/>
<path d="M314.098 83L320.098 89L314.098 95" stroke="#1A1A19" stroke-width="1.5" stroke-linecap="round" stroke-linejoin="round"/>
<rect x="0.847656" y="65.75" width="342.5" height="46.5" rx="7.25" stroke="#999996" stroke-width="1.5"/>
<path d="M16.9217 160V148.8H17.8977L25.6257 158.528H25.1137V148.8H26.2817V160H25.3057L17.5937 150.272H18.1057V160H16.9217ZM33.1213 160.08C32.3106 160.08 31.5799 159.899 30.9293 159.536C30.2893 159.163 29.7826 158.656 29.4093 158.016C29.0359 157.365 28.8493 156.624 28.8493 155.792C28.8493 154.949 29.0359 154.208 29.4093 153.568C29.7826 152.928 30.2893 152.427 30.9293 152.064C31.5693 151.701 32.2999 151.52 33.1213 151.52C33.9533 151.52 34.6893 151.701 35.3293 152.064C35.9799 152.427 36.4866 152.928 36.8493 153.568C37.2226 154.208 37.4093 154.949 37.4093 155.792C37.4093 156.624 37.2226 157.365 36.8493 158.016C36.4866 158.656 35.9799 159.163 35.3293 159.536C34.6786 159.899 33.9426 160.08 33.1213 160.08ZM33.1213 159.072C33.7293 159.072 34.2679 158.939 34.7373 158.672C35.2066 158.395 35.5746 158.011 35.8413 157.52C36.1186 157.019 36.2573 156.443 36.2573 155.792C36.2573 155.131 36.1186 154.555 35.8413 154.064C35.5746 153.573 35.2066 153.195 34.7373 152.928C34.2679 152.651 33.7346 152.512 33.1373 152.512C32.5399 152.512 32.0066 152.651 31.5373 152.928C31.0679 153.195 30.6946 153.573 30.4173 154.064C30.1399 154.555 30.0013 155.131 30.0013 155.792C30.0013 156.443 30.1399 157.019 30.4173 157.52C30.6946 158.011 31.0679 158.395 31.5373 158.672C32.0066 158.939 32.5346 159.072 33.1213 159.072ZM42.3845 160.08C41.5952 160.08 40.9872 159.867 40.5605 159.44C40.1339 159.013 39.9205 158.411 39.9205 157.632V149.744H41.0565V157.568C41.0565 158.059 41.1792 158.437 41.4245 158.704C41.6805 158.971 42.0432 159.104 42.5125 159.104C43.0139 159.104 43.4299 158.96 43.7605 158.672L44.1605 159.488C43.9365 159.691 43.6645 159.84 43.3445 159.936C43.0352 160.032 42.7152 160.08 42.3845 160.08ZM38.4165 152.544V151.6H43.6165V152.544H38.4165ZM46.2285 160V151.6H47.3645V160H46.2285ZM46.8045 149.744C46.5699 149.744 46.3725 149.664 46.2125 149.504C46.0525 149.344 45.9725 149.152 45.9725 148.928C45.9725 148.704 46.0525 148.517 46.2125 148.368C46.3725 148.208 46.5699 148.128 46.8045 148.128C47.0392 148.128 47.2365 148.203 47.3965 148.352C47.5565 148.501 47.6365 148.688 47.6365 148.912C47.6365 149.147 47.5565 149.344 47.3965 149.504C47.2472 149.664 47.0499 149.744 46.8045 149.744ZM50.7174 160V150.544C50.7174 149.797 50.9361 149.195 51.3734 148.736C51.8107 148.277 52.4401 148.048 53.2614 148.048C53.5814 148.048 53.8907 148.091 54.1894 148.176C54.4881 148.261 54.7387 148.395 54.9414 148.576L54.5574 149.424C54.3974 149.285 54.2107 149.184 53.9974 149.12C53.7841 149.045 53.5547 149.008 53.3094 149.008C52.8294 149.008 52.4614 149.141 52.2054 149.408C51.9494 149.675 51.8214 150.069 51.8214 150.592V151.872L51.8534 152.4V160H50.7174ZM49.2134 152.544V151.6H54.4134V152.544H49.2134ZM55.9494 160V151.6H57.0854V160H55.9494ZM56.5254 149.744C56.2907 149.744 56.0934 149.664 55.9334 149.504C55.7734 149.344 55.6934 149.152 55.6934 148.928C55.6934 148.704 55.7734 148.517 55.9334 148.368C56.0934 148.208 56.2907 148.128 56.5254 148.128C56.7601 148.128 56.9574 148.203 57.1174 148.352C57.2774 148.501 57.3574 148.688 57.3574 148.912C57.3574 149.147 57.2774 149.344 57.1174 149.504C56.9681 149.664 56.7707 149.744 56.5254 149.744ZM63.7634 160.08C62.9314 160.08 62.1847 159.899 61.5234 159.536C60.8727 159.163 60.3607 158.656 59.9874 158.016C59.6141 157.365 59.4274 156.624 59.4274 155.792C59.4274 154.949 59.6141 154.208 59.9874 153.568C60.3607 152.928 60.8727 152.427 61.5234 152.064C62.1847 151.701 62.9314 151.52 63.7634 151.52C64.4781 151.52 65.1234 151.659 65.6994 151.936C66.2754 152.213 66.7287 152.629 67.0594 153.184L66.2114 153.76C65.9234 153.333 65.5661 153.019 65.1394 152.816C64.7127 152.613 64.2487 152.512 63.7474 152.512C63.1501 152.512 62.6114 152.651 62.1314 152.928C61.6514 153.195 61.2727 153.573 60.9954 154.064C60.7181 154.555 60.5794 155.131 60.5794 155.792C60.5794 156.453 60.7181 157.029 60.9954 157.52C61.2727 158.011 61.6514 158.395 62.1314 158.672C62.6114 158.939 63.1501 159.072 63.7474 159.072C64.2487 159.072 64.7127 158.971 65.1394 158.768C65.5661 158.565 65.9234 158.256 66.2114 157.84L67.0594 158.416C66.7287 158.96 66.2754 159.376 65.6994 159.664C65.1234 159.941 64.4781 160.08 63.7634 160.08ZM74.555 160V158.144L74.507 157.84V154.736C74.507 154.021 74.3044 153.472 73.899 153.088C73.5044 152.704 72.9124 152.512 72.123 152.512C71.579 152.512 71.0617 152.603 70.571 152.784C70.0804 152.965 69.6644 153.205 69.323 153.504L68.811 152.656C69.2377 152.293 69.7497 152.016 70.347 151.824C70.9444 151.621 71.5737 151.52 72.235 151.52C73.323 151.52 74.1604 151.792 74.747 152.336C75.3444 152.869 75.643 153.685 75.643 154.784V160H74.555ZM71.659 160.08C71.0297 160.08 70.4804 159.979 70.011 159.776C69.5524 159.563 69.2004 159.275 68.955 158.912C68.7097 158.539 68.587 158.112 68.587 157.632C68.587 157.195 68.6884 156.8 68.891 156.448C69.1044 156.085 69.4457 155.797 69.915 155.584C70.395 155.36 71.035 155.248 71.835 155.248H74.731V156.096H71.867C71.0564 156.096 70.491 156.24 70.171 156.528C69.8617 156.816 69.707 157.173 69.707 157.6C69.707 158.08 69.8937 158.464 70.267 158.752C70.6404 159.04 71.163 159.184 71.835 159.184C72.475 159.184 73.0244 159.04 73.483 158.752C73.9524 158.453 74.2937 158.027 74.507 157.472L74.763 158.256C74.5497 158.811 74.1764 159.253 73.643 159.584C73.1204 159.915 72.459 160.08 71.659 160.08ZM82.2165 160.08C81.3845 160.08 80.6379 159.899 79.9765 159.536C79.3259 159.163 78.8139 158.656 78.4405 158.016C78.0672 157.365 77.8805 156.624 77.8805 155.792C77.8805 154.949 78.0672 154.208 78.4405 153.568C78.8139 152.928 79.3259 152.427 79.9765 152.064C80.6379 151.701 81.3845 151.52 82.2165 151.52C82.9312 151.52 83.5765 151.659 84.1525 151.936C84.7285 152.213 85.1819 152.629 85.5125 153.184L84.6645 153.76C84.3765 153.333 84.0192 153.019 83.5925 152.816C83.1659 152.613 82.7019 152.512 82.2005 152.512C81.6032 152.512 81.0645 152.651 80.5845 152.928C80.1045 153.195 79.7259 153.573 79.4485 154.064C79.1712 154.555 79.0325 155.131 79.0325 155.792C79.0325 156.453 79.1712 157.029 79.4485 157.52C79.7259 158.011 80.1045 158.395 80.5845 158.672C81.0645 158.939 81.6032 159.072 82.2005 159.072C82.7019 159.072 83.1659 158.971 83.5925 158.768C84.0192 158.565 84.3765 158.256 84.6645 157.84L85.5125 158.416C85.1819 158.96 84.7285 159.376 84.1525 159.664C83.5765 159.941 82.9312 160.08 82.2165 160.08ZM87.6192 160V151.6H88.7552V160H87.6192ZM88.1952 149.744C87.9605 149.744 87.7632 149.664 87.6032 149.504C87.4432 149.344 87.3632 149.152 87.3632 148.928C87.3632 148.704 87.4432 148.517 87.6032 148.368C87.7632 148.208 87.9605 148.128 88.1952 148.128C88.4298 148.128 88.6272 148.203 88.7872 148.352C88.9472 148.501 89.0272 148.688 89.0272 148.912C89.0272 149.147 88.9472 149.344 88.7872 149.504C88.6378 149.664 88.4405 149.744 88.1952 149.744ZM95.34 160.08C94.5294 160.08 93.7987 159.899 93.148 159.536C92.508 159.163 92.0014 158.656 91.628 158.016C91.2547 157.365 91.068 156.624 91.068 155.792C91.068 154.949 91.2547 154.208 91.628 153.568C92.0014 152.928 92.508 152.427 93.148 152.064C93.788 151.701 94.5187 151.52 95.34 151.52C96.172 151.52 96.908 151.701 97.548 152.064C98.1987 152.427 98.7054 152.928 99.068 153.568C99.4414 154.208 99.628 154.949 99.628 155.792C99.628 156.624 99.4414 157.365 99.068 158.016C98.7054 158.656 98.1987 159.163 97.548 159.536C96.8974 159.899 96.1614 160.08 95.34 160.08ZM95.34 159.072C95.948 159.072 96.4867 158.939 96.956 158.672C97.4254 158.395 97.7934 158.011 98.06 157.52C98.3374 157.019 98.476 156.443 98.476 155.792C98.476 155.131 98.3374 154.555 98.06 154.064C97.7934 153.573 97.4254 153.195 96.956 152.928C96.4867 152.651 95.9534 152.512 95.356 152.512C94.7587 152.512 94.2254 152.651 93.756 152.928C93.2867 153.195 92.9134 153.573 92.636 154.064C92.3587 154.555 92.22 155.131 92.22 155.792C92.22 156.443 92.3587 157.019 92.636 157.52C92.9134 158.011 93.2867 158.395 93.756 158.672C94.2254 158.939 94.7534 159.072 95.34 159.072ZM106.235 151.52C106.918 151.52 107.515 151.653 108.027 151.92C108.55 152.176 108.955 152.571 109.243 153.104C109.542 153.637 109.691 154.309 109.691 155.12V160H108.555V155.232C108.555 154.347 108.331 153.68 107.883 153.232C107.446 152.773 106.827 152.544 106.027 152.544C105.43 152.544 104.907 152.667 104.459 152.912C104.022 153.147 103.681 153.493 103.435 153.952C103.201 154.4 103.083 154.944 103.083 155.584V160H101.947V151.6H103.035V153.904L102.859 153.472C103.126 152.864 103.553 152.389 104.139 152.048C104.726 151.696 105.425 151.52 106.235 151.52ZM116.328 160.08C115.453 160.08 114.685 159.899 114.024 159.536C113.362 159.163 112.845 158.656 112.472 158.016C112.098 157.365 111.912 156.624 111.912 155.792C111.912 154.96 112.088 154.224 112.44 153.584C112.802 152.944 113.293 152.443 113.912 152.08C114.541 151.707 115.245 151.52 116.024 151.52C116.813 151.52 117.512 151.701 118.12 152.064C118.738 152.416 119.224 152.917 119.576 153.568C119.928 154.208 120.104 154.949 120.104 155.792C120.104 155.845 120.098 155.904 120.088 155.968C120.088 156.021 120.088 156.08 120.088 156.144H112.776V155.296H119.48L119.032 155.632C119.032 155.024 118.898 154.485 118.632 154.016C118.376 153.536 118.024 153.163 117.576 152.896C117.128 152.629 116.61 152.496 116.024 152.496C115.448 152.496 114.93 152.629 114.472 152.896C114.013 153.163 113.656 153.536 113.4 154.016C113.144 154.496 113.016 155.045 113.016 155.664V155.84C113.016 156.48 113.154 157.045 113.432 157.536C113.72 158.016 114.114 158.395 114.616 158.672C115.128 158.939 115.709 159.072 116.36 159.072C116.872 159.072 117.346 158.981 117.784 158.8C118.232 158.619 118.616 158.341 118.936 157.968L119.576 158.704C119.202 159.152 118.733 159.493 118.168 159.728C117.613 159.963 117 160.08 116.328 160.08ZM124.672 160.08C123.979 160.08 123.323 159.984 122.704 159.792C122.085 159.589 121.6 159.339 121.248 159.04L121.76 158.144C122.101 158.4 122.539 158.624 123.072 158.816C123.605 158.997 124.165 159.088 124.752 159.088C125.552 159.088 126.128 158.965 126.48 158.72C126.832 158.464 127.008 158.128 127.008 157.712C127.008 157.403 126.907 157.163 126.704 156.992C126.512 156.811 126.256 156.677 125.936 156.592C125.616 156.496 125.259 156.416 124.864 156.352C124.469 156.288 124.075 156.213 123.68 156.128C123.296 156.043 122.944 155.92 122.624 155.76C122.304 155.589 122.043 155.36 121.84 155.072C121.648 154.784 121.552 154.4 121.552 153.92C121.552 153.461 121.68 153.051 121.936 152.688C122.192 152.325 122.565 152.043 123.056 151.84C123.557 151.627 124.165 151.52 124.88 151.52C125.424 151.52 125.968 151.595 126.512 151.744C127.056 151.883 127.504 152.069 127.856 152.304L127.36 153.216C126.987 152.96 126.587 152.779 126.16 152.672C125.733 152.555 125.307 152.496 124.88 152.496C124.123 152.496 123.563 152.629 123.2 152.896C122.848 153.152 122.672 153.483 122.672 153.888C122.672 154.208 122.768 154.459 122.96 154.64C123.163 154.821 123.424 154.965 123.744 155.072C124.075 155.168 124.432 155.248 124.816 155.312C125.211 155.376 125.6 155.456 125.984 155.552C126.379 155.637 126.736 155.76 127.056 155.92C127.387 156.069 127.648 156.288 127.84 156.576C128.043 156.853 128.144 157.221 128.144 157.68C128.144 158.171 128.005 158.597 127.728 158.96C127.461 159.312 127.067 159.589 126.544 159.792C126.032 159.984 125.408 160.08 124.672 160.08Z" fill="#1A1A19"/>
<path d="M314.098 148L320.098 154L314.098 160" stroke="#1A1A19" stroke-width="1.5" stroke-linecap="round" stroke-linejoin="round"/>
<rect x="0.847656" y="130.75" width="342.5" height="46.5" rx="7.25" stroke="#999996" stroke-width="1.5"/>
<path d="M15.1297 225L20.2497 213.8H21.4177L26.5377 225H25.2897L20.5857 214.488H21.0657L16.3617 225H15.1297ZM17.1457 222.008L17.4977 221.048H24.0097L24.3617 222.008H17.1457ZM27.7925 228.184C27.3979 228.184 27.0192 228.12 26.6565 227.992C26.3045 227.864 26.0005 227.672 25.7445 227.416L26.2725 226.568C26.4859 226.771 26.7152 226.925 26.9605 227.032C27.2165 227.149 27.4992 227.208 27.8085 227.208C28.1819 227.208 28.5019 227.101 28.7685 226.888C29.0459 226.685 29.3072 226.323 29.5525 225.8L30.0965 224.568L30.2245 224.392L33.6805 216.6H34.8005L30.5925 226.008C30.3579 226.552 30.0965 226.984 29.8085 227.304C29.5312 227.624 29.2272 227.848 28.8965 227.976C28.5659 228.115 28.1979 228.184 27.7925 228.184ZM30.0325 225.24L26.1605 216.6H27.3445L30.7685 224.312L30.0325 225.24ZM39.8724 225.08C39.1577 225.08 38.5337 224.947 38.0004 224.68C37.4671 224.413 37.0511 224.013 36.7524 223.48C36.4644 222.947 36.3204 222.28 36.3204 221.48V216.6H37.4564V221.352C37.4564 222.248 37.6751 222.925 38.1124 223.384C38.5604 223.832 39.1844 224.056 39.9844 224.056C40.5711 224.056 41.0777 223.939 41.5044 223.704C41.9417 223.459 42.2724 223.107 42.4964 222.648C42.7311 222.189 42.8484 221.64 42.8484 221V216.6H43.9844V225H42.8964V222.696L43.0724 223.112C42.8057 223.731 42.3897 224.216 41.8244 224.568C41.2697 224.909 40.6191 225.08 39.8724 225.08ZM50.4944 225.08C49.6944 225.08 48.9744 224.899 48.3344 224.536C47.7051 224.173 47.2091 223.672 46.8464 223.032C46.4837 222.381 46.3024 221.635 46.3024 220.792C46.3024 219.939 46.4837 219.192 46.8464 218.552C47.2091 217.912 47.7051 217.416 48.3344 217.064C48.9744 216.701 49.6944 216.52 50.4944 216.52C51.2304 216.52 51.8864 216.685 52.4624 217.016C53.0491 217.347 53.5131 217.832 53.8544 218.472C54.2064 219.101 54.3824 219.875 54.3824 220.792C54.3824 221.699 54.2117 222.472 53.8704 223.112C53.5291 223.752 53.0651 224.243 52.4784 224.584C51.9024 224.915 51.2411 225.08 50.4944 225.08ZM50.5744 224.072C51.1717 224.072 51.7051 223.939 52.1744 223.672C52.6544 223.395 53.0277 223.011 53.2944 222.52C53.5717 222.019 53.7104 221.443 53.7104 220.792C53.7104 220.131 53.5717 219.555 53.2944 219.064C53.0277 218.573 52.6544 218.195 52.1744 217.928C51.7051 217.651 51.1717 217.512 50.5744 217.512C49.9877 217.512 49.4597 217.651 48.9904 217.928C48.5211 218.195 48.1477 218.573 47.8704 219.064C47.5931 219.555 47.4544 220.131 47.4544 220.792C47.4544 221.443 47.5931 222.019 47.8704 222.52C48.1477 223.011 48.5211 223.395 48.9904 223.672C49.4597 223.939 49.9877 224.072 50.5744 224.072ZM53.7424 225V222.472L53.8544 220.776L53.6944 219.08V213.128H54.8304V225H53.7424ZM63.2582 225V223.144L63.2102 222.84V219.736C63.2102 219.021 63.0075 218.472 62.6022 218.088C62.2075 217.704 61.6155 217.512 60.8262 217.512C60.2822 217.512 59.7648 217.603 59.2742 217.784C58.7835 217.965 58.3675 218.205 58.0262 218.504L57.5142 217.656C57.9408 217.293 58.4528 217.016 59.0502 216.824C59.6475 216.621 60.2768 216.52 60.9382 216.52C62.0262 216.52 62.8635 216.792 63.4502 217.336C64.0475 217.869 64.3462 218.685 64.3462 219.784V225H63.2582ZM60.3622 225.08C59.7328 225.08 59.1835 224.979 58.7142 224.776C58.2555 224.563 57.9035 224.275 57.6582 223.912C57.4128 223.539 57.2902 223.112 57.2902 222.632C57.2902 222.195 57.3915 221.8 57.5942 221.448C57.8075 221.085 58.1488 220.797 58.6182 220.584C59.0982 220.36 59.7382 220.248 60.5382 220.248H63.4342V221.096H60.5702C59.7595 221.096 59.1942 221.24 58.8742 221.528C58.5648 221.816 58.4102 222.173 58.4102 222.6C58.4102 223.08 58.5968 223.464 58.9702 223.752C59.3435 224.04 59.8662 224.184 60.5382 224.184C61.1782 224.184 61.7275 224.04 62.1862 223.752C62.6555 223.453 62.9968 223.027 63.2102 222.472L63.4662 223.256C63.2528 223.811 62.8795 224.253 62.3462 224.584C61.8235 224.915 61.1622 225.08 60.3622 225.08ZM71.6832 228.184C71.2885 228.184 70.9098 228.12 70.5472 227.992C70.1952 227.864 69.8912 227.672 69.6352 227.416L70.1632 226.568C70.3765 226.771 70.6058 226.925 70.8512 227.032C71.1072 227.149 71.3898 227.208 71.6992 227.208C72.0725 227.208 72.3925 227.101 72.6592 226.888C72.9365 226.685 73.1978 226.323 73.4432 225.8L73.9872 224.568L74.1152 224.392L77.5712 216.6H78.6912L74.4832 226.008C74.2485 226.552 73.9872 226.984 73.6992 227.304C73.4218 227.624 73.1178 227.848 72.7872 227.976C72.4565 228.115 72.0885 228.184 71.6832 228.184ZM73.9232 225.24L70.0512 216.6H71.2352L74.6592 224.312L73.9232 225.24ZM85.7745 219.224H91.6945V220.248H85.7745V219.224ZM85.9025 225H84.7185V213.8H92.3985V214.824H85.9025V225ZM92.5203 225L97.6403 213.8H98.8083L103.928 225H102.68L97.9763 214.488H98.4563L93.7523 225H92.5203ZM94.5363 222.008L94.8883 221.048H101.4L101.752 222.008H94.5363ZM110.521 225.096C109.678 225.096 108.894 224.957 108.169 224.68C107.454 224.392 106.83 223.992 106.297 223.48C105.774 222.957 105.363 222.355 105.065 221.672C104.777 220.979 104.633 220.221 104.633 219.4C104.633 218.579 104.777 217.827 105.065 217.144C105.363 216.451 105.774 215.848 106.297 215.336C106.83 214.813 107.454 214.413 108.169 214.136C108.883 213.848 109.667 213.704 110.521 213.704C111.363 213.704 112.142 213.848 112.857 214.136C113.571 214.413 114.19 214.808 114.713 215.32C115.246 215.832 115.657 216.435 115.945 217.128C116.243 217.821 116.393 218.579 116.393 219.4C116.393 220.221 116.243 220.979 115.945 221.672C115.657 222.365 115.246 222.968 114.713 223.48C114.19 223.992 113.571 224.392 112.857 224.68C112.142 224.957 111.363 225.096 110.521 225.096ZM114.185 227.224C113.843 227.224 113.513 227.181 113.193 227.096C112.873 227.011 112.547 226.872 112.217 226.68C111.897 226.499 111.566 226.259 111.225 225.96C110.883 225.661 110.51 225.299 110.105 224.872L111.401 224.552C111.731 224.947 112.051 225.272 112.361 225.528C112.681 225.784 112.99 225.971 113.289 226.088C113.598 226.216 113.902 226.28 114.201 226.28C115.033 226.28 115.742 225.939 116.329 225.256L116.905 225.944C116.201 226.797 115.294 227.224 114.185 227.224ZM110.521 224.04C111.193 224.04 111.811 223.928 112.377 223.704C112.953 223.469 113.449 223.139 113.865 222.712C114.291 222.285 114.622 221.795 114.857 221.24C115.091 220.675 115.209 220.061 115.209 219.4C115.209 218.728 115.091 218.115 114.857 217.56C114.622 216.995 114.291 216.504 113.865 216.088C113.449 215.661 112.953 215.336 112.377 215.112C111.811 214.877 111.193 214.76 110.521 214.76C109.849 214.76 109.225 214.877 108.649 215.112C108.073 215.336 107.571 215.661 107.145 216.088C106.729 216.504 106.398 216.995 106.153 217.56C105.918 218.115 105.801 218.728 105.801 219.4C105.801 220.061 105.918 220.675 106.153 221.24C106.398 221.795 106.729 222.285 107.145 222.712C107.571 223.139 108.073 223.469 108.649 223.704C109.225 223.928 109.849 224.04 110.521 224.04ZM121.063 225.08C120.369 225.08 119.713 224.984 119.095 224.792C118.476 224.589 117.991 224.339 117.639 224.04L118.151 223.144C118.492 223.4 118.929 223.624 119.463 223.816C119.996 223.997 120.556 224.088 121.143 224.088C121.943 224.088 122.519 223.965 122.871 223.72C123.223 223.464 123.399 223.128 123.399 222.712C123.399 222.403 123.297 222.163 123.095 221.992C122.903 221.811 122.647 221.677 122.327 221.592C122.007 221.496 121.649 221.416 121.255 221.352C120.86 221.288 120.465 221.213 120.071 221.128C119.687 221.043 119.335 220.92 119.015 220.76C118.695 220.589 118.433 220.36 118.231 220.072C118.039 219.784 117.943 219.4 117.943 218.92C117.943 218.461 118.071 218.051 118.327 217.688C118.583 217.325 118.956 217.043 119.447 216.84C119.948 216.627 120.556 216.52 121.271 216.52C121.815 216.52 122.359 216.595 122.903 216.744C123.447 216.883 123.895 217.069 124.247 217.304L123.751 218.216C123.377 217.96 122.977 217.779 122.551 217.672C122.124 217.555 121.697 217.496 121.271 217.496C120.513 217.496 119.953 217.629 119.591 217.896C119.239 218.152 119.063 218.483 119.063 218.888C119.063 219.208 119.159 219.459 119.351 219.64C119.553 219.821 119.815 219.965 120.135 220.072C120.465 220.168 120.823 220.248 121.207 220.312C121.601 220.376 121.991 220.456 122.375 220.552C122.769 220.637 123.127 220.76 123.447 220.92C123.777 221.069 124.039 221.288 124.231 221.576C124.433 221.853 124.535 222.221 124.535 222.68C124.535 223.171 124.396 223.597 124.119 223.96C123.852 224.312 123.457 224.589 122.935 224.792C122.423 224.984 121.799 225.08 121.063 225.08Z" fill="#1A1A19"/>
<path d="M314.098 213L320.098 219L314.098 225" stroke="#1A1A19" stroke-width="1.5" stroke-linecap="round" stroke-linejoin="round"/>
<rect x="0.847656" y="195.75" width="342.5" height="46.5" rx="7.25" stroke="#999996" stroke-width="1.5"/>
</svg>
