<svg width="174" height="12" viewBox="0 0 174 12" fill="none" xmlns="http://www.w3.org/2000/svg">
<path d="M0.368 9.5V1.1H1.256V9.5H0.368ZM7.02509 3.14C7.53709 3.14 7.98509 3.24 8.36909 3.44C8.76109 3.632 9.06509 3.928 9.28109 4.328C9.50509 4.728 9.61709 5.232 9.61709 5.84V9.5H8.76509V5.924C8.76509 5.26 8.59709 4.76 8.26109 4.424C7.93309 4.08 7.46909 3.908 6.86909 3.908C6.42109 3.908 6.02909 4 5.69309 4.184C5.36509 4.36 5.10909 4.62 4.92509 4.964C4.74909 5.3 4.66109 5.708 4.66109 6.188V9.5H3.80909V3.2H4.62509V4.928L4.49309 4.604C4.69309 4.148 5.01309 3.792 5.45309 3.536C5.89309 3.272 6.41709 3.14 7.02509 3.14ZM14.6065 11.888C14.0305 11.888 13.4785 11.804 12.9505 11.636C12.4225 11.468 11.9945 11.228 11.6665 10.916L12.0985 10.268C12.3945 10.532 12.7585 10.74 13.1905 10.892C13.6305 11.052 14.0945 11.132 14.5825 11.132C15.3825 11.132 15.9705 10.944 16.3465 10.568C16.7225 10.2 16.9105 9.624 16.9105 8.84V7.268L17.0305 6.188L16.9465 5.108V3.2H17.7625V8.732C17.7625 9.82 17.4945 10.616 16.9585 11.12C16.4305 11.632 15.6465 11.888 14.6065 11.888ZM14.4505 9.26C13.8505 9.26 13.3105 9.132 12.8305 8.876C12.3505 8.612 11.9705 8.248 11.6905 7.784C11.4185 7.32 11.2825 6.788 11.2825 6.188C11.2825 5.588 11.4185 5.06 11.6905 4.604C11.9705 4.14 12.3505 3.78 12.8305 3.524C13.3105 3.268 13.8505 3.14 14.4505 3.14C15.0105 3.14 15.5145 3.256 15.9625 3.488C16.4105 3.72 16.7665 4.064 17.0305 4.52C17.2945 4.976 17.4265 5.532 17.4265 6.188C17.4265 6.844 17.2945 7.4 17.0305 7.856C16.7665 8.312 16.4105 8.66 15.9625 8.9C15.5145 9.14 15.0105 9.26 14.4505 9.26ZM14.5345 8.504C14.9985 8.504 15.4105 8.408 15.7705 8.216C16.1305 8.016 16.4145 7.744 16.6225 7.4C16.8305 7.048 16.9345 6.644 16.9345 6.188C16.9345 5.732 16.8305 5.332 16.6225 4.988C16.4145 4.644 16.1305 4.376 15.7705 4.184C15.4105 3.984 14.9985 3.884 14.5345 3.884C14.0785 3.884 13.6665 3.984 13.2985 4.184C12.9385 4.376 12.6545 4.644 12.4465 4.988C12.2465 5.332 12.1465 5.732 12.1465 6.188C12.1465 6.644 12.2465 7.048 12.4465 7.4C12.6545 7.744 12.9385 8.016 13.2985 8.216C13.6665 8.408 14.0785 8.504 14.5345 8.504ZM20.1333 9.5V3.2H20.9493V4.916L20.8653 4.616C21.0413 4.136 21.3373 3.772 21.7533 3.524C22.1693 3.268 22.6853 3.14 23.3013 3.14V3.968C23.2693 3.968 23.2373 3.968 23.2053 3.968C23.1733 3.96 23.1413 3.956 23.1093 3.956C22.4453 3.956 21.9253 4.16 21.5493 4.568C21.1733 4.968 20.9853 5.54 20.9853 6.284V9.5H20.1333ZM27.4734 9.56C26.8174 9.56 26.2414 9.424 25.7454 9.152C25.2494 8.872 24.8614 8.492 24.5814 8.012C24.3014 7.524 24.1614 6.968 24.1614 6.344C24.1614 5.72 24.2934 5.168 24.5574 4.688C24.8294 4.208 25.1974 3.832 25.6614 3.56C26.1334 3.28 26.6614 3.14 27.2454 3.14C27.8374 3.14 28.3614 3.276 28.8174 3.548C29.2814 3.812 29.6454 4.188 29.9094 4.676C30.1734 5.156 30.3054 5.712 30.3054 6.344C30.3054 6.384 30.3014 6.428 30.2934 6.476C30.2934 6.516 30.2934 6.56 30.2934 6.608H24.8094V5.972H29.8374L29.5014 6.224C29.5014 5.768 29.4014 5.364 29.2014 5.012C29.0094 4.652 28.7454 4.372 28.4094 4.172C28.0734 3.972 27.6854 3.872 27.2454 3.872C26.8134 3.872 26.4254 3.972 26.0814 4.172C25.7374 4.372 25.4694 4.652 25.2774 5.012C25.0854 5.372 24.9894 5.784 24.9894 6.248V6.38C24.9894 6.86 25.0934 7.284 25.3014 7.652C25.5174 8.012 25.8134 8.296 26.1894 8.504C26.5734 8.704 27.0094 8.804 27.4974 8.804C27.8814 8.804 28.2374 8.736 28.5654 8.6C28.9014 8.464 29.1894 8.256 29.4294 7.976L29.9094 8.528C29.6294 8.864 29.2774 9.12 28.8534 9.296C28.4374 9.472 27.9774 9.56 27.4734 9.56ZM33.7316 9.56C33.2116 9.56 32.7196 9.488 32.2556 9.344C31.7916 9.192 31.4276 9.004 31.1636 8.78L31.5476 8.108C31.8036 8.3 32.1316 8.468 32.5316 8.612C32.9316 8.748 33.3516 8.816 33.7916 8.816C34.3916 8.816 34.8236 8.724 35.0876 8.54C35.3516 8.348 35.4836 8.096 35.4836 7.784C35.4836 7.552 35.4076 7.372 35.2556 7.244C35.1116 7.108 34.9196 7.008 34.6796 6.944C34.4396 6.872 34.1716 6.812 33.8756 6.764C33.5796 6.716 33.2836 6.66 32.9876 6.596C32.6996 6.532 32.4356 6.44 32.1956 6.32C31.9556 6.192 31.7596 6.02 31.6076 5.804C31.4636 5.588 31.3916 5.3 31.3916 4.94C31.3916 4.596 31.4876 4.288 31.6796 4.016C31.8716 3.744 32.1516 3.532 32.5196 3.38C32.8956 3.22 33.3516 3.14 33.8876 3.14C34.2956 3.14 34.7036 3.196 35.1116 3.308C35.5196 3.412 35.8556 3.552 36.1196 3.728L35.7476 4.412C35.4676 4.22 35.1676 4.084 34.8476 4.004C34.5276 3.916 34.2076 3.872 33.8876 3.872C33.3196 3.872 32.8996 3.972 32.6276 4.172C32.3636 4.364 32.2316 4.612 32.2316 4.916C32.2316 5.156 32.3036 5.344 32.4476 5.48C32.5996 5.616 32.7956 5.724 33.0356 5.804C33.2836 5.876 33.5516 5.936 33.8396 5.984C34.1356 6.032 34.4276 6.092 34.7156 6.164C35.0116 6.228 35.2796 6.32 35.5196 6.44C35.7676 6.552 35.9636 6.716 36.1076 6.932C36.2596 7.14 36.3356 7.416 36.3356 7.76C36.3356 8.128 36.2316 8.448 36.0236 8.72C35.8236 8.984 35.5276 9.192 35.1356 9.344C34.7516 9.488 34.2836 9.56 33.7316 9.56ZM41.8469 9.5V8.108L41.8109 7.88V5.552C41.8109 5.016 41.6589 4.604 41.3549 4.316C41.0589 4.028 40.6149 3.884 40.0229 3.884C39.6149 3.884 39.2269 3.952 38.8589 4.088C38.4909 4.224 38.1789 4.404 37.9229 4.628L37.5389 3.992C37.8589 3.72 38.2429 3.512 38.6909 3.368C39.1389 3.216 39.6109 3.14 40.1069 3.14C40.9229 3.14 41.5509 3.344 41.9909 3.752C42.4389 4.152 42.6629 4.764 42.6629 5.588V9.5H41.8469ZM39.6749 9.56C39.2029 9.56 38.7909 9.484 38.4389 9.332C38.0949 9.172 37.8309 8.956 37.6469 8.684C37.4629 8.404 37.3709 8.084 37.3709 7.724C37.3709 7.396 37.4469 7.1 37.5989 6.836C37.7589 6.564 38.0149 6.348 38.3669 6.188C38.7269 6.02 39.2069 5.936 39.8069 5.936H41.9789V6.572H39.8309C39.2229 6.572 38.7989 6.68 38.5589 6.896C38.3269 7.112 38.2109 7.38 38.2109 7.7C38.2109 8.06 38.3509 8.348 38.6309 8.564C38.9109 8.78 39.3029 8.888 39.8069 8.888C40.2869 8.888 40.6989 8.78 41.0429 8.564C41.3949 8.34 41.6509 8.02 41.8109 7.604L42.0029 8.192C41.8429 8.608 41.5629 8.94 41.1629 9.188C40.7709 9.436 40.2749 9.56 39.6749 9.56ZM44.9771 9.5V3.2H45.7931V4.916L45.7091 4.616C45.8851 4.136 46.1811 3.772 46.5971 3.524C47.0131 3.268 47.5291 3.14 48.1451 3.14V3.968C48.1131 3.968 48.0811 3.968 48.0491 3.968C48.0171 3.96 47.9851 3.956 47.9531 3.956C47.2891 3.956 46.7691 4.16 46.3931 4.568C46.0171 4.968 45.8291 5.54 45.8291 6.284V9.5H44.9771ZM55.5501 9.56C54.9261 9.56 54.3661 9.424 53.8701 9.152C53.3821 8.872 52.9981 8.492 52.7181 8.012C52.4381 7.524 52.2981 6.968 52.2981 6.344C52.2981 5.712 52.4381 5.156 52.7181 4.676C52.9981 4.196 53.3821 3.82 53.8701 3.548C54.3661 3.276 54.9261 3.14 55.5501 3.14C56.0861 3.14 56.5701 3.244 57.0021 3.452C57.4341 3.66 57.7741 3.972 58.0221 4.388L57.3861 4.82C57.1701 4.5 56.9021 4.264 56.5821 4.112C56.2621 3.96 55.9141 3.884 55.5381 3.884C55.0901 3.884 54.6861 3.988 54.3261 4.196C53.9661 4.396 53.6821 4.68 53.4741 5.048C53.2661 5.416 53.1621 5.848 53.1621 6.344C53.1621 6.84 53.2661 7.272 53.4741 7.64C53.6821 8.008 53.9661 8.296 54.3261 8.504C54.6861 8.704 55.0901 8.804 55.5381 8.804C55.9141 8.804 56.2621 8.728 56.5821 8.576C56.9021 8.424 57.1701 8.192 57.3861 7.88L58.0221 8.312C57.7741 8.72 57.4341 9.032 57.0021 9.248C56.5701 9.456 56.0861 9.56 55.5501 9.56ZM62.1583 9.56C61.5503 9.56 61.0023 9.424 60.5143 9.152C60.0343 8.872 59.6543 8.492 59.3743 8.012C59.0943 7.524 58.9543 6.968 58.9543 6.344C58.9543 5.712 59.0943 5.156 59.3743 4.676C59.6543 4.196 60.0343 3.82 60.5143 3.548C60.9943 3.276 61.5423 3.14 62.1583 3.14C62.7823 3.14 63.3343 3.276 63.8143 3.548C64.3023 3.82 64.6823 4.196 64.9543 4.676C65.2343 5.156 65.3743 5.712 65.3743 6.344C65.3743 6.968 65.2343 7.524 64.9543 8.012C64.6823 8.492 64.3023 8.872 63.8143 9.152C63.3263 9.424 62.7743 9.56 62.1583 9.56ZM62.1583 8.804C62.6143 8.804 63.0183 8.704 63.3703 8.504C63.7223 8.296 63.9983 8.008 64.1983 7.64C64.4063 7.264 64.5103 6.832 64.5103 6.344C64.5103 5.848 64.4063 5.416 64.1983 5.048C63.9983 4.68 63.7223 4.396 63.3703 4.196C63.0183 3.988 62.6183 3.884 62.1703 3.884C61.7223 3.884 61.3223 3.988 60.9703 4.196C60.6183 4.396 60.3383 4.68 60.1303 5.048C59.9223 5.416 59.8183 5.848 59.8183 6.344C59.8183 6.832 59.9223 7.264 60.1303 7.64C60.3383 8.008 60.6183 8.296 60.9703 8.504C61.3223 8.704 61.7183 8.804 62.1583 8.804ZM74.9858 3.14C75.4978 3.14 75.9418 3.24 76.3178 3.44C76.7018 3.632 76.9978 3.928 77.2058 4.328C77.4218 4.728 77.5298 5.232 77.5298 5.84V9.5H76.6778V5.924C76.6778 5.26 76.5178 4.76 76.1978 4.424C75.8858 4.08 75.4418 3.908 74.8658 3.908C74.4338 3.908 74.0578 4 73.7378 4.184C73.4258 4.36 73.1818 4.62 73.0058 4.964C72.8378 5.3 72.7538 5.708 72.7538 6.188V9.5H71.9018V5.924C71.9018 5.26 71.7418 4.76 71.4218 4.424C71.1018 4.08 70.6538 3.908 70.0778 3.908C69.6538 3.908 69.2818 4 68.9618 4.184C68.6418 4.36 68.3938 4.62 68.2178 4.964C68.0498 5.3 67.9658 5.708 67.9658 6.188V9.5H67.1138V3.2H67.9298V4.904L67.7978 4.604C67.9898 4.148 68.2978 3.792 68.7218 3.536C69.1538 3.272 69.6618 3.14 70.2458 3.14C70.8618 3.14 71.3858 3.296 71.8178 3.608C72.2498 3.912 72.5298 4.372 72.6578 4.988L72.3218 4.856C72.5058 4.344 72.8298 3.932 73.2938 3.62C73.7658 3.3 74.3298 3.14 74.9858 3.14ZM82.4083 9.56C81.8003 9.56 81.2523 9.424 80.7643 9.152C80.2843 8.872 79.9043 8.492 79.6243 8.012C79.3443 7.524 79.2043 6.968 79.2043 6.344C79.2043 5.712 79.3443 5.156 79.6243 4.676C79.9043 4.196 80.2843 3.82 80.7643 3.548C81.2443 3.276 81.7923 3.14 82.4083 3.14C83.0323 3.14 83.5843 3.276 84.0643 3.548C84.5523 3.82 84.9323 4.196 85.2043 4.676C85.4843 5.156 85.6243 5.712 85.6243 6.344C85.6243 6.968 85.4843 7.524 85.2043 8.012C84.9323 8.492 84.5523 8.872 84.0643 9.152C83.5763 9.424 83.0243 9.56 82.4083 9.56ZM82.4083 8.804C82.8643 8.804 83.2683 8.704 83.6203 8.504C83.9723 8.296 84.2483 8.008 84.4483 7.64C84.6563 7.264 84.7603 6.832 84.7603 6.344C84.7603 5.848 84.6563 5.416 84.4483 5.048C84.2483 4.68 83.9723 4.396 83.6203 4.196C83.2683 3.988 82.8683 3.884 82.4203 3.884C81.9723 3.884 81.5723 3.988 81.2203 4.196C80.8683 4.396 80.5883 4.68 80.3803 5.048C80.1723 5.416 80.0683 5.848 80.0683 6.344C80.0683 6.832 80.1723 7.264 80.3803 7.64C80.5883 8.008 80.8683 8.296 81.2203 8.504C81.5723 8.704 81.9683 8.804 82.4083 8.804ZM94.4524 9.5V8.108L94.4164 7.88V5.552C94.4164 5.016 94.2644 4.604 93.9604 4.316C93.6644 4.028 93.2204 3.884 92.6284 3.884C92.2204 3.884 91.8324 3.952 91.4644 4.088C91.0964 4.224 90.7844 4.404 90.5284 4.628L90.1444 3.992C90.4644 3.72 90.8484 3.512 91.2964 3.368C91.7444 3.216 92.2164 3.14 92.7124 3.14C93.5284 3.14 94.1564 3.344 94.5964 3.752C95.0444 4.152 95.2684 4.764 95.2684 5.588V9.5H94.4524ZM92.2804 9.56C91.8084 9.56 91.3964 9.484 91.0444 9.332C90.7004 9.172 90.4364 8.956 90.2524 8.684C90.0684 8.404 89.9764 8.084 89.9764 7.724C89.9764 7.396 90.0524 7.1 90.2044 6.836C90.3644 6.564 90.6204 6.348 90.9724 6.188C91.3324 6.02 91.8124 5.936 92.4124 5.936H94.5844V6.572H92.4364C91.8284 6.572 91.4044 6.68 91.1644 6.896C90.9324 7.112 90.8164 7.38 90.8164 7.7C90.8164 8.06 90.9564 8.348 91.2364 8.564C91.5164 8.78 91.9084 8.888 92.4124 8.888C92.8924 8.888 93.3044 8.78 93.6484 8.564C94.0004 8.34 94.2564 8.02 94.4164 7.604L94.6084 8.192C94.4484 8.608 94.1684 8.94 93.7684 9.188C93.3764 9.436 92.8804 9.56 92.2804 9.56ZM100.091 9.56C99.4905 9.56 98.9505 9.424 98.4705 9.152C97.9985 8.88 97.6265 8.504 97.3545 8.024C97.0825 7.536 96.9465 6.976 96.9465 6.344C96.9465 5.704 97.0825 5.144 97.3545 4.664C97.6265 4.184 97.9985 3.812 98.4705 3.548C98.9505 3.276 99.4905 3.14 100.091 3.14C100.643 3.14 101.135 3.264 101.567 3.512C102.007 3.76 102.355 4.124 102.611 4.604C102.875 5.076 103.007 5.656 103.007 6.344C103.007 7.024 102.879 7.604 102.623 8.084C102.367 8.564 102.019 8.932 101.579 9.188C101.147 9.436 100.651 9.56 100.091 9.56ZM100.151 8.804C100.599 8.804 100.999 8.704 101.351 8.504C101.711 8.296 101.991 8.008 102.191 7.64C102.399 7.264 102.503 6.832 102.503 6.344C102.503 5.848 102.399 5.416 102.191 5.048C101.991 4.68 101.711 4.396 101.351 4.196C100.999 3.988 100.599 3.884 100.151 3.884C99.7105 3.884 99.3145 3.988 98.9625 4.196C98.6105 4.396 98.3305 4.68 98.1225 5.048C97.9145 5.416 97.8105 5.848 97.8105 6.344C97.8105 6.832 97.9145 7.264 98.1225 7.64C98.3305 8.008 98.6105 8.296 98.9625 8.504C99.3145 8.704 99.7105 8.804 100.151 8.804ZM102.527 9.5V7.604L102.611 6.332L102.491 5.06V0.595999H103.343V9.5H102.527ZM113.587 3.14C114.099 3.14 114.543 3.24 114.919 3.44C115.303 3.632 115.599 3.928 115.807 4.328C116.023 4.728 116.131 5.232 116.131 5.84V9.5H115.279V5.924C115.279 5.26 115.119 4.76 114.799 4.424C114.487 4.08 114.043 3.908 113.467 3.908C113.035 3.908 112.659 4 112.339 4.184C112.027 4.36 111.783 4.62 111.607 4.964C111.439 5.3 111.355 5.708 111.355 6.188V9.5H110.503V5.924C110.503 5.26 110.343 4.76 110.023 4.424C109.703 4.08 109.255 3.908 108.679 3.908C108.255 3.908 107.883 4 107.563 4.184C107.243 4.36 106.995 4.62 106.819 4.964C106.651 5.3 106.567 5.708 106.567 6.188V9.5H105.715V3.2H106.531V4.904L106.399 4.604C106.591 4.148 106.899 3.792 107.323 3.536C107.755 3.272 108.263 3.14 108.847 3.14C109.463 3.14 109.987 3.296 110.419 3.608C110.851 3.912 111.131 4.372 111.259 4.988L110.923 4.856C111.107 4.344 111.431 3.932 111.895 3.62C112.367 3.3 112.931 3.14 113.587 3.14ZM118.442 9.5V3.2H119.294V9.5H118.442ZM118.874 1.808C118.698 1.808 118.55 1.748 118.43 1.628C118.31 1.508 118.25 1.364 118.25 1.196C118.25 1.028 118.31 0.887999 118.43 0.775999C118.55 0.655999 118.698 0.595999 118.874 0.595999C119.05 0.595999 119.198 0.651999 119.318 0.763999C119.438 0.875999 119.498 1.016 119.498 1.184C119.498 1.36 119.438 1.508 119.318 1.628C119.206 1.748 119.058 1.808 118.874 1.808ZM124.881 3.14C125.393 3.14 125.841 3.24 126.225 3.44C126.617 3.632 126.921 3.928 127.137 4.328C127.361 4.728 127.473 5.232 127.473 5.84V9.5H126.621V5.924C126.621 5.26 126.453 4.76 126.117 4.424C125.789 4.08 125.325 3.908 124.725 3.908C124.277 3.908 123.885 4 123.549 4.184C123.221 4.36 122.965 4.62 122.781 4.964C122.605 5.3 122.517 5.708 122.517 6.188V9.5H121.665V3.2H122.481V4.928L122.349 4.604C122.549 4.148 122.869 3.792 123.309 3.536C123.749 3.272 124.273 3.14 124.881 3.14ZM129.774 9.5V3.2H130.626V9.5H129.774ZM130.206 1.808C130.03 1.808 129.882 1.748 129.762 1.628C129.642 1.508 129.582 1.364 129.582 1.196C129.582 1.028 129.642 0.887999 129.762 0.775999C129.882 0.655999 130.03 0.595999 130.206 0.595999C130.382 0.595999 130.53 0.651999 130.65 0.763999C130.77 0.875999 130.83 1.016 130.83 1.184C130.83 1.36 130.77 1.508 130.65 1.628C130.538 1.748 130.39 1.808 130.206 1.808ZM134.689 9.56C134.169 9.56 133.677 9.488 133.213 9.344C132.749 9.192 132.385 9.004 132.121 8.78L132.505 8.108C132.761 8.3 133.089 8.468 133.489 8.612C133.889 8.748 134.309 8.816 134.749 8.816C135.349 8.816 135.781 8.724 136.045 8.54C136.309 8.348 136.441 8.096 136.441 7.784C136.441 7.552 136.365 7.372 136.213 7.244C136.069 7.108 135.877 7.008 135.637 6.944C135.397 6.872 135.129 6.812 134.833 6.764C134.537 6.716 134.241 6.66 133.945 6.596C133.657 6.532 133.393 6.44 133.153 6.32C132.913 6.192 132.717 6.02 132.565 5.804C132.421 5.588 132.349 5.3 132.349 4.94C132.349 4.596 132.445 4.288 132.637 4.016C132.829 3.744 133.109 3.532 133.477 3.38C133.853 3.22 134.309 3.14 134.845 3.14C135.253 3.14 135.661 3.196 136.069 3.308C136.477 3.412 136.813 3.552 137.077 3.728L136.705 4.412C136.425 4.22 136.125 4.084 135.805 4.004C135.485 3.916 135.165 3.872 134.845 3.872C134.277 3.872 133.857 3.972 133.585 4.172C133.321 4.364 133.189 4.612 133.189 4.916C133.189 5.156 133.261 5.344 133.405 5.48C133.557 5.616 133.753 5.724 133.993 5.804C134.241 5.876 134.509 5.936 134.797 5.984C135.093 6.032 135.385 6.092 135.673 6.164C135.969 6.228 136.237 6.32 136.477 6.44C136.725 6.552 136.921 6.716 137.065 6.932C137.217 7.14 137.293 7.416 137.293 7.76C137.293 8.128 137.189 8.448 136.981 8.72C136.781 8.984 136.485 9.192 136.093 9.344C135.709 9.488 135.241 9.56 134.689 9.56ZM140.848 9.56C140.256 9.56 139.8 9.4 139.48 9.08C139.16 8.76 139 8.308 139 7.724V1.808H139.852V7.676C139.852 8.044 139.944 8.328 140.128 8.528C140.32 8.728 140.592 8.828 140.944 8.828C141.32 8.828 141.632 8.72 141.88 8.504L142.18 9.116C142.012 9.268 141.808 9.38 141.568 9.452C141.336 9.524 141.096 9.56 140.848 9.56ZM137.872 3.908V3.2H141.772V3.908H137.872ZM143.731 9.5V3.2H144.547V4.916L144.463 4.616C144.639 4.136 144.935 3.772 145.351 3.524C145.767 3.268 146.283 3.14 146.899 3.14V3.968C146.867 3.968 146.835 3.968 146.803 3.968C146.771 3.96 146.739 3.956 146.707 3.956C146.043 3.956 145.523 4.16 145.147 4.568C144.771 4.968 144.583 5.54 144.583 6.284V9.5H143.731ZM151.933 9.5V8.108L151.897 7.88V5.552C151.897 5.016 151.745 4.604 151.441 4.316C151.145 4.028 150.701 3.884 150.109 3.884C149.701 3.884 149.313 3.952 148.945 4.088C148.577 4.224 148.265 4.404 148.009 4.628L147.625 3.992C147.945 3.72 148.329 3.512 148.777 3.368C149.225 3.216 149.697 3.14 150.193 3.14C151.009 3.14 151.637 3.344 152.077 3.752C152.525 4.152 152.749 4.764 152.749 5.588V9.5H151.933ZM149.761 9.56C149.289 9.56 148.877 9.484 148.525 9.332C148.181 9.172 147.917 8.956 147.733 8.684C147.549 8.404 147.457 8.084 147.457 7.724C147.457 7.396 147.533 7.1 147.685 6.836C147.845 6.564 148.101 6.348 148.453 6.188C148.813 6.02 149.293 5.936 149.893 5.936H152.065V6.572H149.917C149.309 6.572 148.885 6.68 148.645 6.896C148.413 7.112 148.297 7.38 148.297 7.7C148.297 8.06 148.437 8.348 148.717 8.564C148.997 8.78 149.389 8.888 149.893 8.888C150.373 8.888 150.785 8.78 151.129 8.564C151.481 8.34 151.737 8.02 151.897 7.604L152.089 8.192C151.929 8.608 151.649 8.94 151.249 9.188C150.857 9.436 150.361 9.56 149.761 9.56ZM157.571 9.56C156.971 9.56 156.431 9.424 155.951 9.152C155.479 8.88 155.107 8.504 154.835 8.024C154.563 7.536 154.427 6.976 154.427 6.344C154.427 5.704 154.563 5.144 154.835 4.664C155.107 4.184 155.479 3.812 155.951 3.548C156.431 3.276 156.971 3.14 157.571 3.14C158.123 3.14 158.615 3.264 159.047 3.512C159.487 3.76 159.835 4.124 160.091 4.604C160.355 5.076 160.487 5.656 160.487 6.344C160.487 7.024 160.359 7.604 160.103 8.084C159.847 8.564 159.499 8.932 159.059 9.188C158.627 9.436 158.131 9.56 157.571 9.56ZM157.631 8.804C158.079 8.804 158.479 8.704 158.831 8.504C159.191 8.296 159.471 8.008 159.671 7.64C159.879 7.264 159.983 6.832 159.983 6.344C159.983 5.848 159.879 5.416 159.671 5.048C159.471 4.68 159.191 4.396 158.831 4.196C158.479 3.988 158.079 3.884 157.631 3.884C157.191 3.884 156.795 3.988 156.443 4.196C156.091 4.396 155.811 4.68 155.603 5.048C155.395 5.416 155.291 5.848 155.291 6.344C155.291 6.832 155.395 7.264 155.603 7.64C155.811 8.008 156.091 8.296 156.443 8.504C156.795 8.704 157.191 8.804 157.631 8.804ZM160.007 9.5V7.604L160.091 6.332L159.971 5.06V0.595999H160.823V9.5H160.007ZM165.764 9.56C165.156 9.56 164.608 9.424 164.12 9.152C163.64 8.872 163.26 8.492 162.98 8.012C162.7 7.524 162.56 6.968 162.56 6.344C162.56 5.712 162.7 5.156 162.98 4.676C163.26 4.196 163.64 3.82 164.12 3.548C164.6 3.276 165.148 3.14 165.764 3.14C166.388 3.14 166.94 3.276 167.42 3.548C167.908 3.82 168.288 4.196 168.56 4.676C168.84 5.156 168.98 5.712 168.98 6.344C168.98 6.968 168.84 7.524 168.56 8.012C168.288 8.492 167.908 8.872 167.42 9.152C166.932 9.424 166.38 9.56 165.764 9.56ZM165.764 8.804C166.22 8.804 166.624 8.704 166.976 8.504C167.328 8.296 167.604 8.008 167.804 7.64C168.012 7.264 168.116 6.832 168.116 6.344C168.116 5.848 168.012 5.416 167.804 5.048C167.604 4.68 167.328 4.396 166.976 4.196C166.624 3.988 166.224 3.884 165.776 3.884C165.328 3.884 164.928 3.988 164.576 4.196C164.224 4.396 163.944 4.68 163.736 5.048C163.528 5.416 163.424 5.848 163.424 6.344C163.424 6.832 163.528 7.264 163.736 7.64C163.944 8.008 164.224 8.296 164.576 8.504C164.928 8.704 165.324 8.804 165.764 8.804ZM170.719 9.5V3.2H171.535V4.916L171.451 4.616C171.627 4.136 171.923 3.772 172.339 3.524C172.755 3.268 173.271 3.14 173.887 3.14V3.968C173.855 3.968 173.823 3.968 173.791 3.968C173.759 3.96 173.727 3.956 173.695 3.956C173.031 3.956 172.511 4.16 172.135 4.568C171.759 4.968 171.571 5.54 171.571 6.284V9.5H170.719Z" fill="black"/>
<path d="M-1 11H174.343V11.6H-1V11Z" fill="black"/>
</svg>
