<svg width="24" height="25" viewBox="0 0 24 25" fill="none" xmlns="http://www.w3.org/2000/svg">
<path d="M12 15V17M7 10.5288C7.47142 10.5 8.05259 10.5 8.8 10.5H15.2C15.9474 10.5 16.5286 10.5 17 10.5288M7 10.5288C6.41168 10.5647 5.99429 10.6455 5.63803 10.827C5.07354 11.1146 4.6146 11.5735 4.32698 12.138C4 12.7798 4 13.6198 4 15.3V16.7C4 18.3802 4 19.2202 4.32698 19.862C4.6146 20.4265 5.07354 20.8854 5.63803 21.173C6.27976 21.5 7.11984 21.5 8.8 21.5H15.2C16.8802 21.5 17.7202 21.5 18.362 21.173C18.9265 20.8854 19.3854 20.4265 19.673 19.862C20 19.2202 20 18.3802 20 16.7V15.3C20 13.6198 20 12.7798 19.673 12.138C19.3854 11.5735 18.9265 11.1146 18.362 10.827C18.0057 10.6455 17.5883 10.5647 17 10.5288M7 10.5288V8.5C7 5.73858 9.23858 3.5 12 3.5C14.7614 3.5 17 5.73858 17 8.5V10.5288" stroke="#1A1A19" stroke-width="1.5" stroke-linecap="round" stroke-linejoin="round"/>
</svg>
