<svg width="204" height="56" viewBox="0 0 204 56" fill="none" xmlns="http://www.w3.org/2000/svg">
<rect x="0.597656" width="203" height="56" rx="8" fill="#FCF2B7"/>
<path d="M30.0984 37.288C28.8024 37.288 27.5944 37.08 26.4744 36.664C25.3704 36.232 24.4104 35.624 23.5944 34.84C22.7784 34.056 22.1384 33.136 21.6744 32.08C21.2264 31.024 21.0024 29.864 21.0024 28.6C21.0024 27.336 21.2264 26.176 21.6744 25.12C22.1384 24.064 22.7784 23.144 23.5944 22.36C24.4264 21.576 25.3944 20.976 26.4984 20.56C27.6024 20.128 28.8104 19.912 30.1224 19.912C31.5784 19.912 32.8904 20.168 34.0584 20.68C35.2424 21.176 36.2344 21.912 37.0344 22.888L34.5384 25.192C33.9624 24.536 33.3224 24.048 32.6184 23.728C31.9144 23.392 31.1464 23.224 30.3144 23.224C29.5304 23.224 28.8104 23.352 28.1544 23.608C27.4984 23.864 26.9304 24.232 26.4504 24.712C25.9704 25.192 25.5944 25.76 25.3224 26.416C25.0664 27.072 24.9384 27.8 24.9384 28.6C24.9384 29.4 25.0664 30.128 25.3224 30.784C25.5944 31.44 25.9704 32.008 26.4504 32.488C26.9304 32.968 27.4984 33.336 28.1544 33.592C28.8104 33.848 29.5304 33.976 30.3144 33.976C31.1464 33.976 31.9144 33.816 32.6184 33.496C33.3224 33.16 33.9624 32.656 34.5384 31.984L37.0344 34.288C36.2344 35.264 35.2424 36.008 34.0584 36.52C32.8904 37.032 31.5704 37.288 30.0984 37.288ZM45.3587 37.192C43.8867 37.192 42.5907 36.904 41.4707 36.328C40.3667 35.752 39.5107 34.968 38.9027 33.976C38.2947 32.968 37.9907 31.824 37.9907 30.544C37.9907 29.248 38.2867 28.104 38.8787 27.112C39.4867 26.104 40.3107 25.32 41.3507 24.76C42.3907 24.184 43.5667 23.896 44.8787 23.896C46.1427 23.896 47.2787 24.168 48.2867 24.712C49.3107 25.24 50.1187 26.008 50.7107 27.016C51.3027 28.008 51.5987 29.2 51.5987 30.592C51.5987 30.736 51.5907 30.904 51.5747 31.096C51.5587 31.272 51.5427 31.44 51.5267 31.6H41.0387V29.416H49.5587L48.1187 30.064C48.1187 29.392 47.9827 28.808 47.7107 28.312C47.4387 27.816 47.0627 27.432 46.5827 27.16C46.1027 26.872 45.5427 26.728 44.9027 26.728C44.2627 26.728 43.6947 26.872 43.1987 27.16C42.7187 27.432 42.3427 27.824 42.0707 28.336C41.7987 28.832 41.6627 29.424 41.6627 30.112V30.688C41.6627 31.392 41.8147 32.016 42.1187 32.56C42.4387 33.088 42.8787 33.496 43.4387 33.784C44.0147 34.056 44.6867 34.192 45.4547 34.192C46.1427 34.192 46.7427 34.088 47.2547 33.88C47.7827 33.672 48.2627 33.36 48.6947 32.944L50.6867 35.104C50.0947 35.776 49.3507 36.296 48.4547 36.664C47.5587 37.016 46.5267 37.192 45.3587 37.192ZM54.0913 37V24.088H57.6673V27.736L57.1633 26.68C57.5473 25.768 58.1633 25.08 59.0113 24.616C59.8593 24.136 60.8913 23.896 62.1073 23.896V27.352C61.9473 27.336 61.8033 27.328 61.6753 27.328C61.5473 27.312 61.4113 27.304 61.2673 27.304C60.2433 27.304 59.4113 27.6 58.7713 28.192C58.1473 28.768 57.8353 29.672 57.8353 30.904V37H54.0913ZM64.3335 37V24.088H67.9095V27.736L67.4055 26.68C67.7895 25.768 68.4055 25.08 69.2535 24.616C70.1015 24.136 71.1335 23.896 72.3495 23.896V27.352C72.1895 27.336 72.0455 27.328 71.9175 27.328C71.7895 27.312 71.6535 27.304 71.5095 27.304C70.4855 27.304 69.6535 27.6 69.0135 28.192C68.3895 28.768 68.0775 29.672 68.0775 30.904V37H64.3335ZM81.6519 37V34.48L81.4119 33.928V29.416C81.4119 28.616 81.1639 27.992 80.6679 27.544C80.1879 27.096 79.4439 26.872 78.4359 26.872C77.7479 26.872 77.0679 26.984 76.3959 27.208C75.7399 27.416 75.1799 27.704 74.7159 28.072L73.3719 25.456C74.0759 24.96 74.9239 24.576 75.9159 24.304C76.9079 24.032 77.9159 23.896 78.9399 23.896C80.9079 23.896 82.4359 24.36 83.5239 25.288C84.6119 26.216 85.1559 27.664 85.1559 29.632V37H81.6519ZM77.7159 37.192C76.7079 37.192 75.8439 37.024 75.1239 36.688C74.4039 36.336 73.8519 35.864 73.4679 35.272C73.0839 34.68 72.8919 34.016 72.8919 33.28C72.8919 32.512 73.0759 31.84 73.4439 31.264C73.8279 30.688 74.4279 30.24 75.2439 29.92C76.0599 29.584 77.1239 29.416 78.4359 29.416H81.8679V31.6H78.8439C77.9639 31.6 77.3559 31.744 77.0199 32.032C76.6999 32.32 76.5399 32.68 76.5399 33.112C76.5399 33.592 76.7239 33.976 77.0919 34.264C77.4759 34.536 77.9959 34.672 78.6519 34.672C79.2759 34.672 79.8359 34.528 80.3319 34.24C80.8279 33.936 81.1879 33.496 81.4119 32.92L81.9879 34.648C81.7159 35.48 81.2199 36.112 80.4999 36.544C79.7799 36.976 78.8519 37.192 77.7159 37.192ZM88.5444 37V24.088H92.1204V27.736L91.6164 26.68C92.0004 25.768 92.6164 25.08 93.4644 24.616C94.3124 24.136 95.3444 23.896 96.5604 23.896V27.352C96.4004 27.336 96.2564 27.328 96.1284 27.328C96.0004 27.312 95.8644 27.304 95.7204 27.304C94.6964 27.304 93.8644 27.6 93.2244 28.192C92.6004 28.768 92.2884 29.672 92.2884 30.904V37H88.5444ZM110.021 37.192C108.917 37.192 107.853 37.064 106.829 36.808C105.821 36.536 105.021 36.2 104.429 35.8L105.677 33.112C106.269 33.48 106.965 33.784 107.765 34.024C108.581 34.248 109.381 34.36 110.165 34.36C111.029 34.36 111.637 34.256 111.989 34.048C112.357 33.84 112.541 33.552 112.541 33.184C112.541 32.88 112.397 32.656 112.109 32.512C111.837 32.352 111.469 32.232 111.005 32.152C110.541 32.072 110.029 31.992 109.469 31.912C108.925 31.832 108.373 31.728 107.813 31.6C107.253 31.456 106.741 31.248 106.277 30.976C105.813 30.704 105.437 30.336 105.149 29.872C104.877 29.408 104.741 28.808 104.741 28.072C104.741 27.256 104.973 26.536 105.437 25.912C105.917 25.288 106.605 24.8 107.501 24.448C108.397 24.08 109.469 23.896 110.717 23.896C111.597 23.896 112.493 23.992 113.405 24.184C114.317 24.376 115.077 24.656 115.685 25.024L114.437 27.688C113.813 27.32 113.181 27.072 112.541 26.944C111.917 26.8 111.309 26.728 110.717 26.728C109.885 26.728 109.277 26.84 108.893 27.064C108.509 27.288 108.317 27.576 108.317 27.928C108.317 28.248 108.453 28.488 108.725 28.648C109.013 28.808 109.389 28.936 109.853 29.032C110.317 29.128 110.821 29.216 111.365 29.296C111.925 29.36 112.485 29.464 113.045 29.608C113.605 29.752 114.109 29.96 114.557 30.232C115.021 30.488 115.397 30.848 115.685 31.312C115.973 31.76 116.117 32.352 116.117 33.088C116.117 33.888 115.877 34.6 115.397 35.224C114.917 35.832 114.221 36.312 113.309 36.664C112.413 37.016 111.317 37.192 110.021 37.192ZM124.835 37.192C123.363 37.192 122.067 36.904 120.947 36.328C119.843 35.752 118.987 34.968 118.379 33.976C117.771 32.968 117.467 31.824 117.467 30.544C117.467 29.248 117.763 28.104 118.355 27.112C118.963 26.104 119.787 25.32 120.827 24.76C121.867 24.184 123.043 23.896 124.355 23.896C125.619 23.896 126.755 24.168 127.763 24.712C128.787 25.24 129.595 26.008 130.187 27.016C130.779 28.008 131.075 29.2 131.075 30.592C131.075 30.736 131.067 30.904 131.051 31.096C131.035 31.272 131.019 31.44 131.003 31.6H120.515V29.416H129.035L127.595 30.064C127.595 29.392 127.459 28.808 127.187 28.312C126.915 27.816 126.539 27.432 126.059 27.16C125.579 26.872 125.019 26.728 124.379 26.728C123.739 26.728 123.171 26.872 122.675 27.16C122.195 27.432 121.819 27.824 121.547 28.336C121.275 28.832 121.139 29.424 121.139 30.112V30.688C121.139 31.392 121.291 32.016 121.595 32.56C121.915 33.088 122.355 33.496 122.915 33.784C123.491 34.056 124.163 34.192 124.931 34.192C125.619 34.192 126.219 34.088 126.731 33.88C127.259 33.672 127.739 33.36 128.171 32.944L130.163 35.104C129.571 35.776 128.827 36.296 127.931 36.664C127.035 37.016 126.003 37.192 124.835 37.192ZM137.912 37.192C136.808 37.192 135.744 37.064 134.72 36.808C133.712 36.536 132.912 36.2 132.32 35.8L133.568 33.112C134.16 33.48 134.856 33.784 135.656 34.024C136.472 34.248 137.272 34.36 138.056 34.36C138.92 34.36 139.528 34.256 139.88 34.048C140.248 33.84 140.432 33.552 140.432 33.184C140.432 32.88 140.288 32.656 140 32.512C139.728 32.352 139.36 32.232 138.896 32.152C138.432 32.072 137.92 31.992 137.36 31.912C136.816 31.832 136.264 31.728 135.704 31.6C135.144 31.456 134.632 31.248 134.168 30.976C133.704 30.704 133.328 30.336 133.04 29.872C132.768 29.408 132.632 28.808 132.632 28.072C132.632 27.256 132.864 26.536 133.328 25.912C133.808 25.288 134.496 24.8 135.392 24.448C136.288 24.08 137.36 23.896 138.608 23.896C139.488 23.896 140.384 23.992 141.296 24.184C142.208 24.376 142.968 24.656 143.576 25.024L142.328 27.688C141.704 27.32 141.072 27.072 140.432 26.944C139.808 26.8 139.2 26.728 138.608 26.728C137.776 26.728 137.168 26.84 136.784 27.064C136.4 27.288 136.208 27.576 136.208 27.928C136.208 28.248 136.344 28.488 136.616 28.648C136.904 28.808 137.28 28.936 137.744 29.032C138.208 29.128 138.712 29.216 139.256 29.296C139.816 29.36 140.376 29.464 140.936 29.608C141.496 29.752 142 29.96 142.448 30.232C142.912 30.488 143.288 30.848 143.576 31.312C143.864 31.76 144.008 32.352 144.008 33.088C144.008 33.888 143.768 34.6 143.288 35.224C142.808 35.832 142.112 36.312 141.2 36.664C140.304 37.016 139.208 37.192 137.912 37.192ZM146.318 37V24.088H150.062V37H146.318ZM148.19 22.288C147.502 22.288 146.942 22.088 146.51 21.688C146.078 21.288 145.862 20.792 145.862 20.2C145.862 19.608 146.078 19.112 146.51 18.712C146.942 18.312 147.502 18.112 148.19 18.112C148.878 18.112 149.438 18.304 149.87 18.688C150.302 19.056 150.518 19.536 150.518 20.128C150.518 20.752 150.302 21.272 149.87 21.688C149.454 22.088 148.894 22.288 148.19 22.288ZM159.681 37.192C158.305 37.192 157.081 36.904 156.009 36.328C154.953 35.752 154.113 34.968 153.489 33.976C152.881 32.968 152.577 31.824 152.577 30.544C152.577 29.248 152.881 28.104 153.489 27.112C154.113 26.104 154.953 25.32 156.009 24.76C157.081 24.184 158.305 23.896 159.681 23.896C161.041 23.896 162.257 24.184 163.329 24.76C164.401 25.32 165.241 26.096 165.849 27.088C166.457 28.08 166.761 29.232 166.761 30.544C166.761 31.824 166.457 32.968 165.849 33.976C165.241 34.968 164.401 35.752 163.329 36.328C162.257 36.904 161.041 37.192 159.681 37.192ZM159.681 34.12C160.305 34.12 160.865 33.976 161.361 33.688C161.857 33.4 162.249 32.992 162.537 32.464C162.825 31.92 162.969 31.28 162.969 30.544C162.969 29.792 162.825 29.152 162.537 28.624C162.249 28.096 161.857 27.688 161.361 27.4C160.865 27.112 160.305 26.968 159.681 26.968C159.057 26.968 158.497 27.112 158.001 27.4C157.505 27.688 157.105 28.096 156.801 28.624C156.513 29.152 156.369 29.792 156.369 30.544C156.369 31.28 156.513 31.92 156.801 32.464C157.105 32.992 157.505 33.4 158.001 33.688C158.497 33.976 159.057 34.12 159.681 34.12ZM157.449 22.432L160.689 18.976H164.721L160.377 22.432H157.449ZM177.111 23.896C178.135 23.896 179.047 24.104 179.847 24.52C180.663 24.92 181.303 25.544 181.767 26.392C182.231 27.224 182.463 28.296 182.463 29.608V37H178.719V30.184C178.719 29.144 178.487 28.376 178.023 27.88C177.575 27.384 176.935 27.136 176.103 27.136C175.511 27.136 174.975 27.264 174.495 27.52C174.031 27.76 173.663 28.136 173.391 28.648C173.135 29.16 173.007 29.816 173.007 30.616V37H169.263V24.088H172.839V27.664L172.167 26.584C172.631 25.72 173.295 25.056 174.159 24.592C175.023 24.128 176.007 23.896 177.111 23.896Z" fill="#1A1A19"/>
</svg>
