<svg width="26" height="25" viewBox="0 0 26 25" fill="none" xmlns="http://www.w3.org/2000/svg">
<path d="M3.71875 8.5L9.33898 12.1333C10.6621 12.9886 11.3237 13.4163 12.0387 13.5825C12.6706 13.7293 13.3294 13.7293 13.9613 13.5825C14.6763 13.4163 15.3379 12.9886 16.661 12.1333L22.2812 8.5M7.01875 19.5H18.9813C20.1364 19.5 20.7139 19.5 21.1551 19.282C21.5432 19.0903 21.8587 18.7843 22.0565 18.408C22.2812 17.9802 22.2812 17.4201 22.2812 16.3V8.7C22.2812 7.5799 22.2812 7.01984 22.0565 6.59202C21.8587 6.21569 21.5432 5.90973 21.1551 5.71799C20.7139 5.5 20.1364 5.5 18.9813 5.5H7.01875C5.86364 5.5 5.28609 5.5 4.84489 5.71799C4.45681 5.90973 4.14129 6.21569 3.94355 6.59202C3.71875 7.01984 3.71875 7.57989 3.71875 8.7V16.3C3.71875 17.4201 3.71875 17.9802 3.94355 18.408C4.14129 18.7843 4.45681 19.0903 4.84489 19.282C5.28609 19.5 5.86364 19.5 7.01875 19.5Z" stroke="#1A1A19" stroke-width="1.5" stroke-linecap="round" stroke-linejoin="round"/>
</svg>
