<svg width="127" height="10" viewBox="0 0 127 10" fill="none" xmlns="http://www.w3.org/2000/svg">
<path d="M5.04 9.572C4.408 9.572 3.82 9.468 3.276 9.26C2.74 9.044 2.272 8.744 1.872 8.36C1.48 7.968 1.172 7.516 0.948 7.004C0.732 6.484 0.624 5.916 0.624 5.3C0.624 4.684 0.732 4.12 0.948 3.608C1.172 3.088 1.48 2.636 1.872 2.252C2.272 1.86 2.74 1.56 3.276 1.352C3.812 1.136 4.4 1.028 5.04 1.028C5.672 1.028 6.256 1.136 6.792 1.352C7.328 1.56 7.792 1.856 8.184 2.24C8.584 2.624 8.892 3.076 9.108 3.596C9.332 4.116 9.444 4.684 9.444 5.3C9.444 5.916 9.332 6.484 9.108 7.004C8.892 7.524 8.584 7.976 8.184 8.36C7.792 8.744 7.328 9.044 6.792 9.26C6.256 9.468 5.672 9.572 5.04 9.572ZM5.04 8.78C5.544 8.78 6.008 8.696 6.432 8.528C6.864 8.352 7.236 8.108 7.548 7.796C7.868 7.476 8.116 7.108 8.292 6.692C8.468 6.268 8.556 5.804 8.556 5.3C8.556 4.796 8.468 4.336 8.292 3.92C8.116 3.496 7.868 3.128 7.548 2.816C7.236 2.496 6.864 2.252 6.432 2.084C6.008 1.908 5.544 1.82 5.04 1.82C4.536 1.82 4.068 1.908 3.636 2.084C3.204 2.252 2.828 2.496 2.508 2.816C2.196 3.128 1.948 3.496 1.764 3.92C1.588 4.336 1.5 4.796 1.5 5.3C1.5 5.796 1.588 6.256 1.764 6.68C1.948 7.104 2.196 7.476 2.508 7.796C2.828 8.108 3.204 8.352 3.636 8.528C4.068 8.696 4.536 8.78 5.04 8.78ZM11.2544 9.5V0.595999H12.1064V9.5H11.2544ZM16.0971 9.5L13.3011 3.2H14.1891L16.7571 9.044H16.3371L18.9411 3.2H19.7811L16.9731 9.5H16.0971ZM20.981 9.5V3.2H21.833V9.5H20.981ZM21.413 1.808C21.237 1.808 21.089 1.748 20.969 1.628C20.849 1.508 20.789 1.364 20.789 1.196C20.789 1.028 20.849 0.887999 20.969 0.775999C21.089 0.655999 21.237 0.595999 21.413 0.595999C21.589 0.595999 21.737 0.651999 21.857 0.763999C21.977 0.875999 22.037 1.016 22.037 1.184C22.037 1.36 21.977 1.508 21.857 1.628C21.745 1.748 21.597 1.808 21.413 1.808ZM26.7116 9.56C26.1116 9.56 25.5716 9.424 25.0916 9.152C24.6196 8.88 24.2476 8.504 23.9756 8.024C23.7036 7.536 23.5676 6.976 23.5676 6.344C23.5676 5.704 23.7036 5.144 23.9756 4.664C24.2476 4.184 24.6196 3.812 25.0916 3.548C25.5716 3.276 26.1116 3.14 26.7116 3.14C27.2636 3.14 27.7556 3.264 28.1876 3.512C28.6276 3.76 28.9756 4.124 29.2316 4.604C29.4956 5.076 29.6276 5.656 29.6276 6.344C29.6276 7.024 29.4996 7.604 29.2436 8.084C28.9876 8.564 28.6396 8.932 28.1996 9.188C27.7676 9.436 27.2716 9.56 26.7116 9.56ZM26.7716 8.804C27.2196 8.804 27.6196 8.704 27.9716 8.504C28.3316 8.296 28.6116 8.008 28.8116 7.64C29.0196 7.264 29.1236 6.832 29.1236 6.344C29.1236 5.848 29.0196 5.416 28.8116 5.048C28.6116 4.68 28.3316 4.396 27.9716 4.196C27.6196 3.988 27.2196 3.884 26.7716 3.884C26.3316 3.884 25.9356 3.988 25.5836 4.196C25.2316 4.396 24.9516 4.68 24.7436 5.048C24.5356 5.416 24.4316 5.848 24.4316 6.344C24.4316 6.832 24.5356 7.264 24.7436 7.64C24.9516 8.008 25.2316 8.296 25.5836 8.504C25.9356 8.704 26.3316 8.804 26.7716 8.804ZM29.1476 9.5V7.604L29.2316 6.332L29.1116 5.06V0.595999H29.9636V9.5H29.1476ZM35.0124 9.56C34.3564 9.56 33.7804 9.424 33.2844 9.152C32.7884 8.872 32.4004 8.492 32.1204 8.012C31.8404 7.524 31.7004 6.968 31.7004 6.344C31.7004 5.72 31.8324 5.168 32.0964 4.688C32.3684 4.208 32.7364 3.832 33.2004 3.56C33.6724 3.28 34.2004 3.14 34.7844 3.14C35.3764 3.14 35.9004 3.276 36.3564 3.548C36.8204 3.812 37.1844 4.188 37.4484 4.676C37.7124 5.156 37.8444 5.712 37.8444 6.344C37.8444 6.384 37.8404 6.428 37.8324 6.476C37.8324 6.516 37.8324 6.56 37.8324 6.608H32.3484V5.972H37.3764L37.0404 6.224C37.0404 5.768 36.9404 5.364 36.7404 5.012C36.5484 4.652 36.2844 4.372 35.9484 4.172C35.6124 3.972 35.2244 3.872 34.7844 3.872C34.3524 3.872 33.9644 3.972 33.6204 4.172C33.2764 4.372 33.0084 4.652 32.8164 5.012C32.6244 5.372 32.5284 5.784 32.5284 6.248V6.38C32.5284 6.86 32.6324 7.284 32.8404 7.652C33.0564 8.012 33.3524 8.296 33.7284 8.504C34.1124 8.704 34.5484 8.804 35.0364 8.804C35.4204 8.804 35.7764 8.736 36.1044 8.6C36.4404 8.464 36.7284 8.256 36.9684 7.976L37.4484 8.528C37.1684 8.864 36.8164 9.12 36.3924 9.296C35.9764 9.472 35.5164 9.56 35.0124 9.56ZM33.9924 2.216L35.6364 0.728H36.7764L34.8324 2.216H33.9924ZM50.5913 3.14C51.1033 3.14 51.5473 3.24 51.9233 3.44C52.3073 3.632 52.6033 3.928 52.8113 4.328C53.0273 4.728 53.1353 5.232 53.1353 5.84V9.5H52.2833V5.924C52.2833 5.26 52.1233 4.76 51.8033 4.424C51.4913 4.08 51.0473 3.908 50.4713 3.908C50.0393 3.908 49.6633 4 49.3433 4.184C49.0313 4.36 48.7873 4.62 48.6113 4.964C48.4433 5.3 48.3593 5.708 48.3593 6.188V9.5H47.5073V5.924C47.5073 5.26 47.3473 4.76 47.0273 4.424C46.7073 4.08 46.2593 3.908 45.6833 3.908C45.2593 3.908 44.8873 4 44.5673 4.184C44.2473 4.36 43.9993 4.62 43.8233 4.964C43.6553 5.3 43.5713 5.708 43.5713 6.188V9.5H42.7193V3.2H43.5353V4.904L43.4033 4.604C43.5953 4.148 43.9033 3.792 44.3273 3.536C44.7593 3.272 45.2673 3.14 45.8513 3.14C46.4673 3.14 46.9913 3.296 47.4233 3.608C47.8553 3.912 48.1353 4.372 48.2633 4.988L47.9273 4.856C48.1113 4.344 48.4353 3.932 48.8993 3.62C49.3713 3.3 49.9353 3.14 50.5913 3.14ZM55.4458 9.5V3.2H56.2978V9.5H55.4458ZM55.8778 1.808C55.7018 1.808 55.5538 1.748 55.4338 1.628C55.3138 1.508 55.2538 1.364 55.2538 1.196C55.2538 1.028 55.3138 0.887999 55.4338 0.775999C55.5538 0.655999 55.7018 0.595999 55.8778 0.595999C56.0538 0.595999 56.2018 0.651999 56.3218 0.763999C56.4418 0.875999 56.5018 1.016 56.5018 1.184C56.5018 1.36 56.4418 1.508 56.3218 1.628C56.2098 1.748 56.0618 1.808 55.8778 1.808ZM64.4251 9.56C63.8011 9.56 63.2411 9.424 62.7451 9.152C62.2571 8.872 61.8731 8.492 61.5931 8.012C61.3131 7.524 61.1731 6.968 61.1731 6.344C61.1731 5.712 61.3131 5.156 61.5931 4.676C61.8731 4.196 62.2571 3.82 62.7451 3.548C63.2411 3.276 63.8011 3.14 64.4251 3.14C64.9611 3.14 65.4451 3.244 65.8771 3.452C66.3091 3.66 66.6491 3.972 66.8971 4.388L66.2611 4.82C66.0451 4.5 65.7771 4.264 65.4571 4.112C65.1371 3.96 64.7891 3.884 64.4131 3.884C63.9651 3.884 63.5611 3.988 63.2011 4.196C62.8411 4.396 62.5571 4.68 62.3491 5.048C62.1411 5.416 62.0371 5.848 62.0371 6.344C62.0371 6.84 62.1411 7.272 62.3491 7.64C62.5571 8.008 62.8411 8.296 63.2011 8.504C63.5611 8.704 63.9651 8.804 64.4131 8.804C64.7891 8.804 65.1371 8.728 65.4571 8.576C65.7771 8.424 66.0451 8.192 66.2611 7.88L66.8971 8.312C66.6491 8.72 66.3091 9.032 65.8771 9.248C65.4451 9.456 64.9611 9.56 64.4251 9.56ZM71.0333 9.56C70.4253 9.56 69.8773 9.424 69.3893 9.152C68.9093 8.872 68.5293 8.492 68.2493 8.012C67.9693 7.524 67.8293 6.968 67.8293 6.344C67.8293 5.712 67.9693 5.156 68.2493 4.676C68.5293 4.196 68.9093 3.82 69.3893 3.548C69.8693 3.276 70.4173 3.14 71.0333 3.14C71.6573 3.14 72.2093 3.276 72.6893 3.548C73.1773 3.82 73.5573 4.196 73.8293 4.676C74.1093 5.156 74.2493 5.712 74.2493 6.344C74.2493 6.968 74.1093 7.524 73.8293 8.012C73.5573 8.492 73.1773 8.872 72.6893 9.152C72.2013 9.424 71.6493 9.56 71.0333 9.56ZM71.0333 8.804C71.4893 8.804 71.8933 8.704 72.2453 8.504C72.5973 8.296 72.8733 8.008 73.0733 7.64C73.2813 7.264 73.3853 6.832 73.3853 6.344C73.3853 5.848 73.2813 5.416 73.0733 5.048C72.8733 4.68 72.5973 4.396 72.2453 4.196C71.8933 3.988 71.4933 3.884 71.0453 3.884C70.5973 3.884 70.1973 3.988 69.8453 4.196C69.4933 4.396 69.2133 4.68 69.0053 5.048C68.7973 5.416 68.6933 5.848 68.6933 6.344C68.6933 6.832 68.7973 7.264 69.0053 7.64C69.2133 8.008 69.4933 8.296 69.8453 8.504C70.1973 8.704 70.5933 8.804 71.0333 8.804ZM79.2048 3.14C79.7168 3.14 80.1648 3.24 80.5488 3.44C80.9408 3.632 81.2448 3.928 81.4608 4.328C81.6848 4.728 81.7968 5.232 81.7968 5.84V9.5H80.9448V5.924C80.9448 5.26 80.7768 4.76 80.4408 4.424C80.1128 4.08 79.6488 3.908 79.0488 3.908C78.6008 3.908 78.2088 4 77.8728 4.184C77.5448 4.36 77.2888 4.62 77.1048 4.964C76.9288 5.3 76.8408 5.708 76.8408 6.188V9.5H75.9888V3.2H76.8048V4.928L76.6728 4.604C76.8728 4.148 77.1928 3.792 77.6328 3.536C78.0728 3.272 78.5968 3.14 79.2048 3.14ZM86.0902 9.56C85.4982 9.56 85.0422 9.4 84.7222 9.08C84.4022 8.76 84.2422 8.308 84.2422 7.724V1.808H85.0942V7.676C85.0942 8.044 85.1862 8.328 85.3702 8.528C85.5622 8.728 85.8342 8.828 86.1862 8.828C86.5622 8.828 86.8742 8.72 87.1222 8.504L87.4222 9.116C87.2542 9.268 87.0502 9.38 86.8102 9.452C86.5782 9.524 86.3382 9.56 86.0902 9.56ZM83.1142 3.908V3.2H87.0142V3.908H83.1142ZM88.9732 9.5V3.2H89.7892V4.916L89.7052 4.616C89.8812 4.136 90.1772 3.772 90.5932 3.524C91.0092 3.268 91.5252 3.14 92.1412 3.14V3.968C92.1092 3.968 92.0772 3.968 92.0452 3.968C92.0132 3.96 91.9812 3.956 91.9492 3.956C91.2852 3.956 90.7652 4.16 90.3892 4.568C90.0132 4.968 89.8252 5.54 89.8252 6.284V9.5H88.9732ZM97.1751 9.5V8.108L97.1391 7.88V5.552C97.1391 5.016 96.9871 4.604 96.6831 4.316C96.3871 4.028 95.9431 3.884 95.3511 3.884C94.9431 3.884 94.5551 3.952 94.1871 4.088C93.8191 4.224 93.5071 4.404 93.2511 4.628L92.8671 3.992C93.1871 3.72 93.5711 3.512 94.0191 3.368C94.4671 3.216 94.9391 3.14 95.4351 3.14C96.2511 3.14 96.8791 3.344 97.3191 3.752C97.7671 4.152 97.9911 4.764 97.9911 5.588V9.5H97.1751ZM95.0031 9.56C94.5311 9.56 94.1191 9.484 93.7671 9.332C93.4231 9.172 93.1591 8.956 92.9751 8.684C92.7911 8.404 92.6991 8.084 92.6991 7.724C92.6991 7.396 92.7751 7.1 92.9271 6.836C93.0871 6.564 93.3431 6.348 93.6951 6.188C94.0551 6.02 94.5351 5.936 95.1351 5.936H97.3071V6.572H95.1591C94.5511 6.572 94.1271 6.68 93.8871 6.896C93.6551 7.112 93.5391 7.38 93.5391 7.7C93.5391 8.06 93.6791 8.348 93.9591 8.564C94.2391 8.78 94.6311 8.888 95.1351 8.888C95.6151 8.888 96.0271 8.78 96.3711 8.564C96.7231 8.34 96.9791 8.02 97.1391 7.604L97.3311 8.192C97.1711 8.608 96.8911 8.94 96.4911 9.188C96.0991 9.436 95.6031 9.56 95.0031 9.56ZM101.997 9.56C101.477 9.56 100.985 9.488 100.521 9.344C100.057 9.192 99.6932 9.004 99.4292 8.78L99.8132 8.108C100.069 8.3 100.397 8.468 100.797 8.612C101.197 8.748 101.617 8.816 102.057 8.816C102.657 8.816 103.089 8.724 103.353 8.54C103.617 8.348 103.749 8.096 103.749 7.784C103.749 7.552 103.673 7.372 103.521 7.244C103.377 7.108 103.185 7.008 102.945 6.944C102.705 6.872 102.437 6.812 102.141 6.764C101.845 6.716 101.549 6.66 101.253 6.596C100.965 6.532 100.701 6.44 100.461 6.32C100.221 6.192 100.025 6.02 99.8732 5.804C99.7292 5.588 99.6572 5.3 99.6572 4.94C99.6572 4.596 99.7532 4.288 99.9452 4.016C100.137 3.744 100.417 3.532 100.785 3.38C101.161 3.22 101.617 3.14 102.153 3.14C102.561 3.14 102.969 3.196 103.377 3.308C103.785 3.412 104.121 3.552 104.385 3.728L104.013 4.412C103.733 4.22 103.433 4.084 103.113 4.004C102.793 3.916 102.473 3.872 102.153 3.872C101.585 3.872 101.165 3.972 100.893 4.172C100.629 4.364 100.497 4.612 100.497 4.916C100.497 5.156 100.569 5.344 100.713 5.48C100.865 5.616 101.061 5.724 101.301 5.804C101.549 5.876 101.817 5.936 102.105 5.984C102.401 6.032 102.693 6.092 102.981 6.164C103.277 6.228 103.545 6.32 103.785 6.44C104.033 6.552 104.229 6.716 104.373 6.932C104.525 7.14 104.601 7.416 104.601 7.76C104.601 8.128 104.497 8.448 104.289 8.72C104.089 8.984 103.793 9.192 103.401 9.344C103.017 9.488 102.549 9.56 101.997 9.56ZM108.841 9.56C108.185 9.56 107.609 9.424 107.113 9.152C106.617 8.872 106.229 8.492 105.949 8.012C105.669 7.524 105.529 6.968 105.529 6.344C105.529 5.72 105.661 5.168 105.925 4.688C106.197 4.208 106.565 3.832 107.029 3.56C107.501 3.28 108.029 3.14 108.613 3.14C109.205 3.14 109.729 3.276 110.185 3.548C110.649 3.812 111.013 4.188 111.277 4.676C111.541 5.156 111.673 5.712 111.673 6.344C111.673 6.384 111.669 6.428 111.661 6.476C111.661 6.516 111.661 6.56 111.661 6.608H106.177V5.972H111.205L110.869 6.224C110.869 5.768 110.769 5.364 110.569 5.012C110.377 4.652 110.113 4.372 109.777 4.172C109.441 3.972 109.053 3.872 108.613 3.872C108.181 3.872 107.793 3.972 107.449 4.172C107.105 4.372 106.837 4.652 106.645 5.012C106.453 5.372 106.357 5.784 106.357 6.248V6.38C106.357 6.86 106.461 7.284 106.669 7.652C106.885 8.012 107.181 8.296 107.557 8.504C107.941 8.704 108.377 8.804 108.865 8.804C109.249 8.804 109.605 8.736 109.933 8.6C110.269 8.464 110.557 8.256 110.797 7.976L111.277 8.528C110.997 8.864 110.645 9.12 110.221 9.296C109.805 9.472 109.345 9.56 108.841 9.56ZM116.623 3.14C117.135 3.14 117.583 3.24 117.967 3.44C118.359 3.632 118.663 3.928 118.879 4.328C119.103 4.728 119.215 5.232 119.215 5.84V9.5H118.363V5.924C118.363 5.26 118.195 4.76 117.859 4.424C117.531 4.08 117.067 3.908 116.467 3.908C116.019 3.908 115.627 4 115.291 4.184C114.963 4.36 114.707 4.62 114.523 4.964C114.347 5.3 114.259 5.708 114.259 6.188V9.5H113.407V3.2H114.223V4.928L114.091 4.604C114.291 4.148 114.611 3.792 115.051 3.536C115.491 3.272 116.015 3.14 116.623 3.14ZM117.115 2.144C116.931 2.144 116.767 2.104 116.623 2.024C116.479 1.944 116.347 1.852 116.227 1.748C116.115 1.636 116.003 1.54 115.891 1.46C115.779 1.372 115.663 1.328 115.543 1.328C115.359 1.328 115.211 1.396 115.099 1.532C114.995 1.668 114.935 1.856 114.919 2.096H114.403C114.419 1.696 114.523 1.376 114.715 1.136C114.915 0.895999 115.171 0.775999 115.483 0.775999C115.667 0.775999 115.831 0.819999 115.975 0.908C116.127 0.988 116.259 1.084 116.371 1.196C116.491 1.3 116.603 1.392 116.707 1.472C116.819 1.552 116.935 1.592 117.055 1.592C117.239 1.592 117.387 1.528 117.499 1.4C117.611 1.264 117.671 1.08 117.679 0.848H118.195C118.187 1.232 118.083 1.544 117.883 1.784C117.683 2.024 117.427 2.144 117.115 2.144ZM125.464 9.5V8.108L125.428 7.88V5.552C125.428 5.016 125.276 4.604 124.972 4.316C124.676 4.028 124.232 3.884 123.64 3.884C123.232 3.884 122.844 3.952 122.476 4.088C122.108 4.224 121.796 4.404 121.54 4.628L121.156 3.992C121.476 3.72 121.86 3.512 122.308 3.368C122.756 3.216 123.228 3.14 123.724 3.14C124.54 3.14 125.168 3.344 125.608 3.752C126.056 4.152 126.28 4.764 126.28 5.588V9.5H125.464ZM123.292 9.56C122.82 9.56 122.408 9.484 122.056 9.332C121.712 9.172 121.448 8.956 121.264 8.684C121.08 8.404 120.988 8.084 120.988 7.724C120.988 7.396 121.064 7.1 121.216 6.836C121.376 6.564 121.632 6.348 121.984 6.188C122.344 6.02 122.824 5.936 123.424 5.936H125.596V6.572H123.448C122.84 6.572 122.416 6.68 122.176 6.896C121.944 7.112 121.828 7.38 121.828 7.7C121.828 8.06 121.968 8.348 122.248 8.564C122.528 8.78 122.92 8.888 123.424 8.888C123.904 8.888 124.316 8.78 124.66 8.564C125.012 8.34 125.268 8.02 125.428 7.604L125.62 8.192C125.46 8.608 125.18 8.94 124.78 9.188C124.388 9.436 123.892 9.56 123.292 9.56Z" fill="#1A1A19"/>
<path d="M0 11H127.408V11.6H0V11Z" fill="#1A1A19"/>
</svg>
