<svg width="135" height="32" viewBox="0 0 135 32" fill="none" xmlns="http://www.w3.org/2000/svg">
<g clip-path="url(#clip0_376_5159)">
<rect x="84" y="0.5" width="51" height="31" rx="15.5" fill="#E6E6E1"/>
<g filter="url(#filter0_ddd_376_5159)">
<rect x="86" y="2.5" width="27" height="27" rx="13.5" fill="#FFFFFE"/>
</g>
</g>
<path d="M1.368 18.5V10.1H4.512C5.224 10.1 5.836 10.216 6.348 10.448C6.86 10.672 7.252 11 7.524 11.432C7.804 11.856 7.944 12.372 7.944 12.98C7.944 13.572 7.804 14.084 7.524 14.516C7.252 14.94 6.86 15.268 6.348 15.5C5.836 15.724 5.224 15.836 4.512 15.836H1.86L2.256 15.428V18.5H1.368ZM7.104 18.5L4.944 15.452H5.904L8.076 18.5H7.104ZM2.256 15.5L1.86 15.08H4.488C5.328 15.08 5.964 14.896 6.396 14.528C6.836 14.16 7.056 13.644 7.056 12.98C7.056 12.308 6.836 11.788 6.396 11.42C5.964 11.052 5.328 10.868 4.488 10.868H1.86L2.256 10.448V15.5ZM12.5359 18.56C11.8799 18.56 11.3039 18.424 10.8079 18.152C10.3119 17.872 9.92388 17.492 9.64388 17.012C9.36388 16.524 9.22388 15.968 9.22388 15.344C9.22388 14.72 9.35588 14.168 9.61988 13.688C9.89188 13.208 10.2599 12.832 10.7239 12.56C11.1959 12.28 11.7239 12.14 12.3079 12.14C12.8999 12.14 13.4239 12.276 13.8799 12.548C14.3439 12.812 14.7079 13.188 14.9719 13.676C15.2359 14.156 15.3679 14.712 15.3679 15.344C15.3679 15.384 15.3639 15.428 15.3559 15.476C15.3559 15.516 15.3559 15.56 15.3559 15.608H9.87188V14.972H14.8999L14.5639 15.224C14.5639 14.768 14.4639 14.364 14.2639 14.012C14.0719 13.652 13.8079 13.372 13.4719 13.172C13.1359 12.972 12.7479 12.872 12.3079 12.872C11.8759 12.872 11.4879 12.972 11.1439 13.172C10.7999 13.372 10.5319 13.652 10.3399 14.012C10.1479 14.372 10.0519 14.784 10.0519 15.248V15.38C10.0519 15.86 10.1559 16.284 10.3639 16.652C10.5799 17.012 10.8759 17.296 11.2519 17.504C11.6359 17.704 12.0719 17.804 12.5599 17.804C12.9439 17.804 13.2999 17.736 13.6279 17.6C13.9639 17.464 14.2519 17.256 14.4919 16.976L14.9719 17.528C14.6919 17.864 14.3399 18.12 13.9159 18.296C13.4999 18.472 13.0399 18.56 12.5359 18.56ZM19.7181 18.56C19.0941 18.56 18.5341 18.424 18.0381 18.152C17.5501 17.872 17.1661 17.492 16.8861 17.012C16.6061 16.524 16.4661 15.968 16.4661 15.344C16.4661 14.712 16.6061 14.156 16.8861 13.676C17.1661 13.196 17.5501 12.82 18.0381 12.548C18.5341 12.276 19.0941 12.14 19.7181 12.14C20.2541 12.14 20.7381 12.244 21.1701 12.452C21.6021 12.66 21.9421 12.972 22.1901 13.388L21.5541 13.82C21.3381 13.5 21.0701 13.264 20.7501 13.112C20.4301 12.96 20.0821 12.884 19.7061 12.884C19.2581 12.884 18.8541 12.988 18.4941 13.196C18.1341 13.396 17.8501 13.68 17.6421 14.048C17.4341 14.416 17.3301 14.848 17.3301 15.344C17.3301 15.84 17.4341 16.272 17.6421 16.64C17.8501 17.008 18.1341 17.296 18.4941 17.504C18.8541 17.704 19.2581 17.804 19.7061 17.804C20.0821 17.804 20.4301 17.728 20.7501 17.576C21.0701 17.424 21.3381 17.192 21.5541 16.88L22.1901 17.312C21.9421 17.72 21.6021 18.032 21.1701 18.248C20.7381 18.456 20.2541 18.56 19.7181 18.56ZM26.4678 18.56C25.9318 18.56 25.4638 18.46 25.0638 18.26C24.6638 18.06 24.3518 17.76 24.1278 17.36C23.9118 16.96 23.8038 16.46 23.8038 15.86V12.2H24.6558V15.764C24.6558 16.436 24.8198 16.944 25.1478 17.288C25.4838 17.624 25.9518 17.792 26.5518 17.792C26.9918 17.792 27.3718 17.704 27.6918 17.528C28.0198 17.344 28.2678 17.08 28.4358 16.736C28.6118 16.392 28.6998 15.98 28.6998 15.5V12.2H29.5518V18.5H28.7358V16.772L28.8678 17.084C28.6678 17.548 28.3558 17.912 27.9318 18.176C27.5158 18.432 27.0278 18.56 26.4678 18.56ZM34.6023 18.56C33.9463 18.56 33.3703 18.424 32.8743 18.152C32.3783 17.872 31.9903 17.492 31.7103 17.012C31.4303 16.524 31.2903 15.968 31.2903 15.344C31.2903 14.72 31.4223 14.168 31.6863 13.688C31.9583 13.208 32.3263 12.832 32.7903 12.56C33.2623 12.28 33.7903 12.14 34.3743 12.14C34.9663 12.14 35.4903 12.276 35.9463 12.548C36.4103 12.812 36.7743 13.188 37.0383 13.676C37.3023 14.156 37.4343 14.712 37.4343 15.344C37.4343 15.384 37.4303 15.428 37.4223 15.476C37.4223 15.516 37.4223 15.56 37.4223 15.608H31.9383V14.972H36.9663L36.6303 15.224C36.6303 14.768 36.5303 14.364 36.3303 14.012C36.1383 13.652 35.8743 13.372 35.5383 13.172C35.2023 12.972 34.8143 12.872 34.3743 12.872C33.9423 12.872 33.5543 12.972 33.2103 13.172C32.8663 13.372 32.5983 13.652 32.4063 14.012C32.2143 14.372 32.1183 14.784 32.1183 15.248V15.38C32.1183 15.86 32.2223 16.284 32.4303 16.652C32.6463 17.012 32.9423 17.296 33.3183 17.504C33.7023 17.704 34.1383 17.804 34.6263 17.804C35.0103 17.804 35.3663 17.736 35.6943 17.6C36.0303 17.464 36.3183 17.256 36.5583 16.976L37.0383 17.528C36.7583 17.864 36.4063 18.12 35.9823 18.296C35.5663 18.472 35.1063 18.56 34.6023 18.56ZM33.5823 11.216L35.2263 9.728H36.3663L34.4223 11.216H33.5823ZM39.1685 18.5V12.2H39.9845V13.916L39.9005 13.616C40.0765 13.136 40.3725 12.772 40.7885 12.524C41.2045 12.268 41.7205 12.14 42.3365 12.14V12.968C42.3045 12.968 42.2725 12.968 42.2405 12.968C42.2085 12.96 42.1765 12.956 42.1445 12.956C41.4805 12.956 40.9605 13.16 40.5845 13.568C40.2085 13.968 40.0205 14.54 40.0205 15.284V18.5H39.1685ZM46.3405 18.56C45.7405 18.56 45.2005 18.424 44.7205 18.152C44.2485 17.88 43.8765 17.504 43.6045 17.024C43.3325 16.536 43.1965 15.976 43.1965 15.344C43.1965 14.704 43.3325 14.144 43.6045 13.664C43.8765 13.184 44.2485 12.812 44.7205 12.548C45.2005 12.276 45.7405 12.14 46.3405 12.14C46.8925 12.14 47.3845 12.264 47.8165 12.512C48.2565 12.76 48.6045 13.124 48.8605 13.604C49.1245 14.076 49.2565 14.656 49.2565 15.344C49.2565 16.024 49.1285 16.604 48.8725 17.084C48.6165 17.564 48.2685 17.932 47.8285 18.188C47.3965 18.436 46.9005 18.56 46.3405 18.56ZM46.4005 17.804C46.8485 17.804 47.2485 17.704 47.6005 17.504C47.9605 17.296 48.2405 17.008 48.4405 16.64C48.6485 16.264 48.7525 15.832 48.7525 15.344C48.7525 14.848 48.6485 14.416 48.4405 14.048C48.2405 13.68 47.9605 13.396 47.6005 13.196C47.2485 12.988 46.8485 12.884 46.4005 12.884C45.9605 12.884 45.5645 12.988 45.2125 13.196C44.8605 13.396 44.5805 13.68 44.3725 14.048C44.1645 14.416 44.0605 14.848 44.0605 15.344C44.0605 15.832 44.1645 16.264 44.3725 16.64C44.5805 17.008 44.8605 17.296 45.2125 17.504C45.5645 17.704 45.9605 17.804 46.4005 17.804ZM48.7765 18.5V16.604L48.8605 15.332L48.7405 14.06V9.596H49.5925V18.5H48.7765ZM55.9133 18.5V17.108L55.8773 16.88V14.552C55.8773 14.016 55.7253 13.604 55.4213 13.316C55.1253 13.028 54.6813 12.884 54.0893 12.884C53.6813 12.884 53.2933 12.952 52.9253 13.088C52.5573 13.224 52.2453 13.404 51.9893 13.628L51.6053 12.992C51.9253 12.72 52.3093 12.512 52.7573 12.368C53.2053 12.216 53.6773 12.14 54.1733 12.14C54.9893 12.14 55.6173 12.344 56.0573 12.752C56.5053 13.152 56.7293 13.764 56.7293 14.588V18.5H55.9133ZM53.7413 18.56C53.2693 18.56 52.8573 18.484 52.5053 18.332C52.1613 18.172 51.8973 17.956 51.7133 17.684C51.5293 17.404 51.4373 17.084 51.4373 16.724C51.4373 16.396 51.5133 16.1 51.6653 15.836C51.8253 15.564 52.0813 15.348 52.4333 15.188C52.7933 15.02 53.2733 14.936 53.8733 14.936H56.0453V15.572H53.8973C53.2893 15.572 52.8653 15.68 52.6253 15.896C52.3933 16.112 52.2773 16.38 52.2773 16.7C52.2773 17.06 52.4173 17.348 52.6973 17.564C52.9773 17.78 53.3693 17.888 53.8733 17.888C54.3533 17.888 54.7653 17.78 55.1093 17.564C55.4613 17.34 55.7173 17.02 55.8773 16.604L56.0693 17.192C55.9093 17.608 55.6293 17.94 55.2293 18.188C54.8373 18.436 54.3413 18.56 53.7413 18.56ZM66.9155 12.14C67.4275 12.14 67.8715 12.24 68.2475 12.44C68.6315 12.632 68.9275 12.928 69.1355 13.328C69.3515 13.728 69.4595 14.232 69.4595 14.84V18.5H68.6075V14.924C68.6075 14.26 68.4475 13.76 68.1275 13.424C67.8155 13.08 67.3715 12.908 66.7955 12.908C66.3635 12.908 65.9875 13 65.6675 13.184C65.3555 13.36 65.1115 13.62 64.9355 13.964C64.7675 14.3 64.6835 14.708 64.6835 15.188V18.5H63.8315V14.924C63.8315 14.26 63.6715 13.76 63.3515 13.424C63.0315 13.08 62.5835 12.908 62.0075 12.908C61.5835 12.908 61.2115 13 60.8915 13.184C60.5715 13.36 60.3235 13.62 60.1475 13.964C59.9795 14.3 59.8955 14.708 59.8955 15.188V18.5H59.0435V12.2H59.8595V13.904L59.7275 13.604C59.9195 13.148 60.2275 12.792 60.6515 12.536C61.0835 12.272 61.5915 12.14 62.1755 12.14C62.7915 12.14 63.3155 12.296 63.7475 12.608C64.1795 12.912 64.4595 13.372 64.5875 13.988L64.2515 13.856C64.4355 13.344 64.7595 12.932 65.2235 12.62C65.6955 12.3 66.2595 12.14 66.9155 12.14ZM74.446 18.56C73.79 18.56 73.214 18.424 72.718 18.152C72.222 17.872 71.834 17.492 71.554 17.012C71.274 16.524 71.134 15.968 71.134 15.344C71.134 14.72 71.266 14.168 71.53 13.688C71.802 13.208 72.17 12.832 72.634 12.56C73.106 12.28 73.634 12.14 74.218 12.14C74.81 12.14 75.334 12.276 75.79 12.548C76.254 12.812 76.618 13.188 76.882 13.676C77.146 14.156 77.278 14.712 77.278 15.344C77.278 15.384 77.274 15.428 77.266 15.476C77.266 15.516 77.266 15.56 77.266 15.608H71.782V14.972H76.81L76.474 15.224C76.474 14.768 76.374 14.364 76.174 14.012C75.982 13.652 75.718 13.372 75.382 13.172C75.046 12.972 74.658 12.872 74.218 12.872C73.786 12.872 73.398 12.972 73.054 13.172C72.71 13.372 72.442 13.652 72.25 14.012C72.058 14.372 71.962 14.784 71.962 15.248V15.38C71.962 15.86 72.066 16.284 72.274 16.652C72.49 17.012 72.786 17.296 73.162 17.504C73.546 17.704 73.982 17.804 74.47 17.804C74.854 17.804 75.21 17.736 75.538 17.6C75.874 17.464 76.162 17.256 76.402 16.976L76.882 17.528C76.602 17.864 76.25 18.12 75.826 18.296C75.41 18.472 74.95 18.56 74.446 18.56Z" fill="#1A1A19"/>
<defs>
<filter id="filter0_ddd_376_5159" x="78" y="-2.5" width="43" height="43" filterUnits="userSpaceOnUse" color-interpolation-filters="sRGB">
<feFlood flood-opacity="0" result="BackgroundImageFix"/>
<feColorMatrix in="SourceAlpha" type="matrix" values="0 0 0 0 0 0 0 0 0 0 0 0 0 0 0 0 0 0 127 0" result="hardAlpha"/>
<feOffset dy="3"/>
<feGaussianBlur stdDeviation="0.5"/>
<feComposite in2="hardAlpha" operator="out"/>
<feColorMatrix type="matrix" values="0 0 0 0 0 0 0 0 0 0 0 0 0 0 0 0 0 0 0.06 0"/>
<feBlend mode="normal" in2="BackgroundImageFix" result="effect1_dropShadow_376_5159"/>
<feColorMatrix in="SourceAlpha" type="matrix" values="0 0 0 0 0 0 0 0 0 0 0 0 0 0 0 0 0 0 127 0" result="hardAlpha"/>
<feOffset dy="3"/>
<feGaussianBlur stdDeviation="4"/>
<feComposite in2="hardAlpha" operator="out"/>
<feColorMatrix type="matrix" values="0 0 0 0 0 0 0 0 0 0 0 0 0 0 0 0 0 0 0.15 0"/>
<feBlend mode="normal" in2="effect1_dropShadow_376_5159" result="effect2_dropShadow_376_5159"/>
<feColorMatrix in="SourceAlpha" type="matrix" values="0 0 0 0 0 0 0 0 0 0 0 0 0 0 0 0 0 0 127 0" result="hardAlpha"/>
<feMorphology radius="1" operator="dilate" in="SourceAlpha" result="effect3_dropShadow_376_5159"/>
<feOffset/>
<feComposite in2="hardAlpha" operator="out"/>
<feColorMatrix type="matrix" values="0 0 0 0 0 0 0 0 0 0 0 0 0 0 0 0 0 0 0.04 0"/>
<feBlend mode="normal" in2="effect2_dropShadow_376_5159" result="effect3_dropShadow_376_5159"/>
<feBlend mode="normal" in="SourceGraphic" in2="effect3_dropShadow_376_5159" result="shape"/>
</filter>
<clipPath id="clip0_376_5159">
<rect x="84" y="0.5" width="51" height="31" rx="15.5" fill="white"/>
</clipPath>
</defs>
</svg>
