<svg width="33" height="32" viewBox="0 0 33 32" fill="none" xmlns="http://www.w3.org/2000/svg">
<path d="M25.517 18.3925L27.205 21.3629C27.0045 21.755 26.7803 22.1401 26.5322 22.5164C26.2841 22.8926 26.0185 23.2504 25.7371 23.5892L22.4166 23.2189C21.5284 23.9478 20.5032 24.5159 19.3856 24.8789L17.8333 27.9267C17.3955 27.9751 16.9506 28 16.5 28C16.0493 28 15.6044 27.9751 15.1666 27.9267L13.6102 24.8776C12.4921 24.5139 11.4665 23.9447 10.5782 23.2147L7.23844 23.5887C6.95705 23.2499 6.69142 22.8921 6.44333 22.5159C6.19524 22.1396 5.97109 21.7545 5.77051 21.3624L7.46816 18.3752C7.27038 17.6189 7.16662 16.8185 7.16662 16.0002C7.16662 15.1665 7.27593 14.3584 7.481 13.5893L5.77101 10.5813C5.9716 10.1892 6.19575 9.80414 6.44384 9.42789C6.69192 9.05164 6.95756 8.69391 7.23894 8.35507L10.6456 8.7377C11.5234 8.02767 12.5213 7.47577 13.6197 7.11979M13.6145 7.11995L15.1663 4.07324C15.6041 4.02484 16.049 4 16.4996 4C16.9503 4 17.3952 4.02484 17.833 4.07324L19.3847 7.11995C20.4839 7.47621 21.4848 8.02352 22.3631 8.73436L25.7363 8.35548C26.0177 8.69432 26.2833 9.05205 26.5314 9.4283C26.7795 9.80455 27.0036 10.1896 27.2042 10.5818L25.5119 13.5596M25.5122 13.5642C25.7216 14.3408 25.8333 15.1575 25.8333 16.0002C25.8333 16.8287 25.7254 17.6319 25.5228 18.3966M20.4999 16.0002C20.4999 18.2093 18.7091 20.0002 16.4999 20.0002C14.2908 20.0002 12.4999 18.2093 12.4999 16.0002C12.4999 13.7911 14.2908 12.0002 16.4999 12.0002C18.7091 12.0002 20.4999 13.7911 20.4999 16.0002Z" stroke="#1A1A19" stroke-width="2" stroke-linecap="round" stroke-linejoin="round"/>
</svg>
